<svg xmlns="http://www.w3.org/2000/svg" viewBox="0 0 49.23 169.51"><defs><style>.cls-1{fill:#fff;}</style></defs><title>door</title><g id="Layer_2" data-name="Layer 2"><g id="Layer_1-2" data-name="Layer 1"><path class="cls-1" d="M5.68,159.23v-134c0-3.22-5-3.22-5,0v134c0,3.22,5,3.22,5,0Z"/><path class="cls-1" d="M5,26.22A140.41,140.41,0,0,1,8,3.09L4.34,4.59C11.84,7.82,18,12.73,24.66,17.33a158.52,158.52,0,0,0,20.76,12c2.88,1.4,5.42-2.91,2.52-4.32A158.5,158.5,0,0,1,27.19,13C20.52,8.41,14.35,3.5,6.86.27,5.48-.33,3.56,0,3.19,1.76A148.58,148.58,0,0,0,0,26.22c-.15,3.22,4.85,3.21,5,0Z"/><path class="cls-1" d="M10.55,90.48a7,7,0,0,0,.77,7.93,2.47,2.47,0,0,0,2.73.52,2.56,2.56,0,0,0,1.54-2.28l.13-1.92a2.5,2.5,0,0,0-5,0l-.13,1.92,4.27-1.77a3.28,3.28,0,0,1-.23-.77,1.72,1.72,0,0,1,.24-1.1c1.56-2.82-2.76-5.34-4.32-2.52Z"/><path class="cls-1" d="M5.72,157.55Q18.88,164,32.46,169.47c.75.3,1.07-.91.33-1.21q-13.43-5.43-26.44-11.79c-.72-.35-1.35.73-.63,1.08Z"/></g></g></svg>