<svg xmlns="http://www.w3.org/2000/svg" viewBox="0 0 53.21 156.16"><defs><style>.cls-1,.cls-4{fill:none;stroke:#000;stroke-miterlimit:10;}.cls-2{fill:#092117;}.cls-3{fill:#fff;}.cls-4{stroke-width:0.25px;}.cls-5{fill:#7bcddc;}</style></defs><title>archivistF</title><g id="Layer_2" data-name="Layer 2"><g id="Layer_1-2" data-name="Layer 1"><polygon points="16.53 22.36 16.57 22.35 16.46 22.34 16.53 22.36"/><path d="M16.29,22.52h-.07l.3.05C16.69,22.54,16.18,22.54,16.29,22.52Z" transform="translate(0 -0.26)"/><path d="M16.32,22.49c.07,0-.07,0-.12,0C16.31,22.46,16.17,22.51,16.32,22.49Z" transform="translate(0 -0.26)"/><path d="M16.13,20.06h0Z" transform="translate(0 -0.26)"/><path d="M15.64,19.44h-.11c.2.11,0,.25.09.38h0a2.47,2.47,0,0,0,.26.92h-.06s.11,0,.1,0h-.06c-.18.08.13.19,0,.24A.24.24,0,0,0,16,21a2.29,2.29,0,0,0,.26.75.34.34,0,0,1-.14,0c.31.2.2.43.17.65.08,0,.08,0,.16,0s-.2-.12-.06-.19h.08s-.19,0-.1-.05.1,0,.1,0,0-.2-.16-.29c.16,0,0-.11.15-.15-.07,0-.05,0-.16-.05a5.21,5.21,0,0,0-.11-1.05c-.32-.15,0-.37-.07-.56h0a.2.2,0,0,1-.08-.23l-.14-.06c.27-.47.06-.94.18-1.41s.32-1-.08-1.52c0,0,0,0,.06,0-.05-.15.07-.28,0-.43h0c-.25-.37.08-.72-.16-1.08A6.88,6.88,0,0,0,16,14h.06c-.06-.37.32-.64.3-1,.23-.31-.19-.81.11-1.1.36-.12-.19-.61.19-.71.61-.24.45-.72.38-1.24.31-.29.13-.85.63-1-.11-.28.44-.18.49-.38l-.07,0c.24.07-.18-.32.13-.16v0c.17.07-.29-.31-.11-.21l-.07-.06c0-.05.08.05.13,0s-.13-.1-.07-.09c.3.21,0-.14.33.09,0,0,.15.06.19.16s.07-.06-.07-.16a1.4,1.4,0,0,0-.39-.28l.1.09-.14-.08s-.21-.06-.3-.07h0c.11.12,0,.1,0,.11l-.07,0c-.14-.08.21.24,0,.07a1,1,0,0,1-.19.39c.07.07-.07.09.11.17-.21-.09-.32,0-.33,0s0,0,0,0c-.29-.08.18.22-.16.1.21.14-.14.08.1.26l-.13-.07c-.07.11-.22.2-.29.3.14.19-.2.16,0,.38-.09,0-.25.08-.18.22l0,0a.33.33,0,0,0,.07.38c-.28-.09-.24,0-.35,0,.09.12,0,.24.07.39-.13,0,0,.11-.16,0,.24.43,0,.72-.38,1h0c.09.07.3.19.42.27l0,0c0,.07-.18.06-.16.13l-.06,0c.07.08-.18.07-.06.17H16L16,12c-.06,0-.15,0-.13-.06-.19.49,0,1.07-.14,1.57l-.06,0,.09.12-.06,0c-.13.11,0,.27,0,.39s-.09,0-.13,0c.16.12-.24.11.11.21l-.13,0a1.19,1.19,0,0,1-.05.78c.3.25,0,.46.22.7h-.06c.2.3-.06.59,0,.89,0,.12,0,.21,0,.33h-.08c.3.22-.29.43,0,.66l-.11,0c.17,0-.06.13.23.12l-.09,0c.38.15-.18.27.07.45h-.07c.05,0,.1.1,0,.14h0c-.28.15,0,.32,0,.48l-.13,0c.15.08,0,.22.08.32h-.06l.09,0h-.12C15.52,19.19,15.62,19.31,15.64,19.44Z" transform="translate(0 -0.26)"/><path d="M15.82,20.76h0Z" transform="translate(0 -0.26)"/><path d="M17.84,7.87h0S17.84,7.86,17.84,7.87Z" transform="translate(0 -0.26)"/><polygon points="15.92 25.24 15.95 25.22 15.86 25.27 15.92 25.24"/><path d="M15.69,25.59l-.05,0,.26-.15C16,25.37,15.61,25.67,15.69,25.59Z" transform="translate(0 -0.26)"/><path d="M15.71,25.56c0-.06-.07,0-.11.05S15.59,25.66,15.71,25.56Z" transform="translate(0 -0.26)"/><path d="M14.82,24.45h0Z" transform="translate(0 -0.26)"/><path d="M14.22,24.37l-.1.05c.21,0,.08.14.19.16l0,0c.07.19.32.24.5.34l-.05,0s.1,0,.1,0l-.06,0c-.13.14.16,0,.06.13A.39.39,0,0,0,15,25a1,1,0,0,0,.45.23l-.11.09c.31-.08.3.1.34.23.06,0,.06-.06.13-.1s-.2.06-.11-.06l.06,0c0-.05-.15.11-.09,0a.61.61,0,0,1,.08-.06c-.06,0,0-.12-.22,0,.12-.11,0-.05.08-.17a.45.45,0,0,0-.15.07c-.05-.21-.3-.29-.41-.46-.32.1-.07-.21-.22-.25l0,0c-.09,0-.15,0-.14-.07l-.13,0c.1-.37-.2-.51-.22-.81s.06-.62-.42-.77H14c-.09-.06,0-.17-.09-.23h0c-.31-.13-.07-.41-.38-.55a2.62,2.62,0,0,0-.19-.76h.06c-.15-.2.17-.42.07-.61.14-.2-.35-.45-.14-.66s-.31-.36,0-.44.3-.08.28-.21a.48.48,0,0,1,0-.45c.3.13.55-.3.77.07.14-.21.2.3.31.26v-.08c0,.24.16-.3.12,0h0c0,.18.15-.4.11-.19l0-.08s0,.1,0,.14,0-.15,0-.1c-.09.35.09-.06,0,.33,0,0,0,.16-.07.23s0,0,.09-.13a2.29,2.29,0,0,0,.13-.47l0,.13,0-.16s0-.22,0-.3h0c-.06.15-.06.05-.07,0v-.07c0-.15-.12.28,0,0a.5.5,0,0,1-.29,0c0,.1-.07,0-.08.18,0-.22-.05-.29-.08-.28s0,0,0,0c0-.29-.09.26-.1-.1,0,.25-.09-.09-.13.2a1,1,0,0,1,0-.15c-.09,0-.19-.1-.26-.12s-.06.08-.12.07-.13,0-.14.14c-.07-.06-.24-.17-.29,0v0c-.1,0-.24.07-.19.26a.67.67,0,0,0-.34-.27.61.61,0,0,0,0,.42c-.12-.08,0,.12-.14,0,.24.53.08.73-.23.9h0c.1,0,.33.1.46.14h0s-.16.05-.13.09h-.06c.08,0-.16.06,0,.11h-.05l.07,0c-.06,0-.16,0-.14,0-.09.33.25.66.21,1H12.9l.11.06h-.06c-.11.09.08.16.06.23a.49.49,0,0,0-.13,0c.18,0-.22.12.15.11H12.9a.5.5,0,0,1,.12.47c.34.07.08.27.36.35h-.06c.26.12.07.35.16.51s.08.11.11.17l-.08,0c.33,0-.17.35.19.35l-.11,0c.17,0,0,.1.24,0l-.07.05c.39-.07-.1.22.17.22l-.07,0c.06,0,.11,0,.06.06h0c-.21.2.11.16.14.25l-.12,0c.16,0,.07.11.16.13l-.06,0h.09l-.11.06C14,24.3,14.17,24.31,14.22,24.37Z" transform="translate(0 -0.26)"/><path d="M14.76,25h0Z" transform="translate(0 -0.26)"/><path d="M15.17,18.56v0S15.17,18.57,15.17,18.56Z" transform="translate(0 -0.26)"/><polygon points="27.17 34.23 27.19 34.27 27.25 34.17 27.17 34.23"/><path d="M27.53,34.29s0-.05,0-.07l-.22.28C27.38,34.68,27.49,34.17,27.53,34.29Z" transform="translate(0 -0.26)"/><path d="M27.59,34.33c.07.07.11-.06.13-.11C27.69,34.33,27.58,34.17,27.59,34.33Z" transform="translate(0 -0.26)"/><path d="M33.18,31.49v0A0,0,0,0,0,33.18,31.49Z" transform="translate(0 -0.26)"/><path d="M33.69,29.88l-.09-.07c0,.36-.31.54-.42.84l0,0a17.56,17.56,0,0,1-1.4,1.85s0,0,0-.06,0,.14,0,.16,0,0,0-.07c-.24,0-.33.39-.5.34a.12.12,0,0,0,.05.15A12.81,12.81,0,0,1,29.56,34s-.06-.06-.07-.12a2,2,0,0,1-1.72.37c0,.08.06.08,0,.16.2.09.36-.19.54-.06l0,.08c.13,0,0-.19.15-.11s0,.1,0,.1a1.21,1.21,0,0,0,.78-.28c.1.14.28-.07.42.05,0-.08.12-.09.11-.2a6.19,6.19,0,0,0,2.39-1.46c.11-.52.74-.61,1-1.09l0,0a1.2,1.2,0,0,1,.31-.54l0-.21a8.51,8.51,0,0,0,1.68-3.17,7.62,7.62,0,0,0,.74-3.78s0,0,.06,0c0-.38.17-.7.17-1.06h0c-.11-.91.32-1.81.14-2.69a15.32,15.32,0,0,0,.12-3.29h.06a22.7,22.7,0,0,0-.08-2.6c0-.94-.71-1.74-.83-2.64.09-.65-.8-1-.79-1.63a2.58,2.58,0,0,0-2.3-2.09c-.84-.6-1.89-.32-2.8-.69-.45.21-1-.28-1.48-.18l0,.08c-.2-.22-.38.36-.52,0l0,0c-.11-.17-.18.44-.26.23v.09c-.11,0,0-.1-.12-.12s0,.16-.07.12c-.05-.36-.28.11-.33-.29.06,0-.12-.15,0-.24a.15.15,0,0,0-.2.17c0,.18-.06.35.08.48V7.33a.59.59,0,0,1,.06.16c.16,0,.2.19.32.26a0,0,0,0,1,0,0c.06-.17.17-.08.23-.07l0,.07c.05.15.15-.32.12,0a4.28,4.28,0,0,1,1-.14c0-.1.26,0,.18-.19a.48.48,0,0,0,.44.26s0,0,0,0c.18.28.22-.26.38.09,0-.25.3.09.41-.2a.28.28,0,0,1,0,.15,5.86,5.86,0,0,1,.85.21c.25-.18.46.2.72,0,.13.11.3.3.53.27l0,0a1.26,1.26,0,0,0,.71.12c-.1.28,0,.28,0,.41.2,0,.41.2.66.29-.07.12.18.1,0,.24a2,2,0,0,1,1.14,1.91h0c.14,0,.39.06.56.1,0,0,0,0,0,0s0,.31,0,.43a.08.08,0,0,1-.07,0c.13.09-.05.3.13.4l0,0,.1.07c-.06,0-.15,0-.15,0A14.66,14.66,0,0,1,36,15.71l-.06,0,.12.24a.09.09,0,0,1-.06,0c-.09.31.1.63.07.93,0,0-.09,0-.13,0,.18.22-.22.35.13.47a.17.17,0,0,1-.13,0,5.32,5.32,0,0,1-.05,1.88c.28.55-.08,1.11.1,1.68h-.06A7.71,7.71,0,0,1,35.63,23a8,8,0,0,0-.09.82h-.08c.21.57-.47,1-.25,1.61l-.1-.06c.15.12-.13.3.17.34l-.11.07c.29.45-.32.61-.2,1.1l-.06,0c0,.13,0,.28-.06.34s0,0,0,0c-.37.28-.2.76-.35,1.13l-.11-.09c.08.23-.18.5-.22.76l0,0,0,.15L34,29C33.87,29.28,33.83,29.6,33.69,29.88Z" transform="translate(0 -0.26)"/><path d="M31.7,32.48h0S31.7,32.47,31.7,32.48Z" transform="translate(0 -0.26)"/><path d="M27.24,7.77l0,0S27.23,7.76,27.24,7.77Z" transform="translate(0 -0.26)"/><polygon points="36.73 25.62 36.76 25.64 36.69 25.56 36.73 25.62"/><path d="M36.62,25.66l-.05,0,.18.24C36.88,26,36.53,25.59,36.62,25.66Z" transform="translate(0 -0.26)"/><path d="M36.65,25.67c.06,0,0-.07-.06-.1S36.54,25.57,36.65,25.67Z" transform="translate(0 -0.26)"/><path d="M37.61,24.28h0S37.62,24.29,37.61,24.28Z" transform="translate(0 -0.26)"/><path d="M37.41,23.68l-.1-.05c.14.16-.08.14,0,.25l0,0c-.14.15-.07.41-.12.63l0,0s.08.08.06.08l0,0c-.18-.07,0,.17-.11.11a.36.36,0,0,0,.12.1,1.41,1.41,0,0,0-.14.55l-.11-.08c.14.31-.07.35-.2.42.05.06.07,0,.12.11s-.08-.2.06-.13l.05.06c.06,0-.14-.13,0-.09s.07.07.08.07.13-.08,0-.25c.14.09.05-.05.19,0,0-.06,0-.06-.09-.13.22-.14.25-.43.39-.63-.2-.27.19-.17.17-.35l0,0c0-.08,0-.15,0-.18l-.09-.1c.39-.14.37-.52.59-.77s.54-.56.22-1l.06,0c0-.11.1-.18.06-.29h0c-.21-.28.14-.48-.12-.75a1.81,1.81,0,0,0,0-.87h.06c-.14-.23.2-.46.08-.69.13-.26-.41-.44-.26-.7s-.42-.26-.13-.45a.47.47,0,0,0,.06-.59c-.06,0-.08-.14-.2-.05a1.73,1.73,0,0,0-.3.26c-.22-.14-.35.35-.68.08,0,.25-.33-.18-.44-.07l0,.07c-.13-.2,0,.35-.14,0v0c-.09-.15.11.41,0,.22l0,.08s0-.09-.08-.11.06.15,0,.11c-.15-.33,0,.1-.21-.27,0,0-.09-.13-.09-.22s-.07,0,0,.16a2.18,2.18,0,0,0,.21.43l-.05-.12.08.15s.13.17.18.23h0c0-.15,0-.08,0-.06l0,.07c.07.14-.08-.29,0,0a.33.33,0,0,1,.2-.15c0-.1.06,0,0-.19.1.2.17.23.19.22s0,0,0,0c.13.26,0-.27.11.05-.07-.24.09.05,0-.23a1.09,1.09,0,0,1,0,.14c.07,0,.19,0,.22,0,0-.22,0,.1,0-.21,0,.06,0,.2,0,.06v0l.15-.25c-.15.32-.12.26-.18.36a.54.54,0,0,1,.17-.2c-.1.12.05,0-.11.13.15-.14.23-.11.22-.06a1.23,1.23,0,0,1-.21.29h0l.48,0h0s-.14.1-.1.13h-.06c.09,0-.14.09,0,.11h0c-.06,0-.16,0-.14,0,0,.3.34.58.3.9h-.06l.11.06H38c-.11.08.07.16,0,.24a.5.5,0,0,0-.13,0c.18.06-.23.08.13.12h-.13a.45.45,0,0,1,0,.47c.31.17,0,.28.24.46h-.06c.19.22-.08.37-.08.56s0,.14,0,.22l-.08,0c.27.21-.34.19-.06.42l-.1,0c.16.07-.08.06.2.14h-.09c.33.22-.22.11,0,.3l-.06,0s.06.1,0,.1l0,0c-.29,0,0,.2-.1.29l-.11-.06c.12.11,0,.13,0,.22l-.05,0,.06.07-.11-.05C37.37,23.49,37.43,23.6,37.41,23.68Z" transform="translate(0 -0.26)"/><path d="M37.08,24.49h0Z" transform="translate(0 -0.26)"/><path d="M36.59,18.89l0,0S36.58,18.89,36.59,18.89Z" transform="translate(0 -0.26)"/><polygon points="25.47 33.26 25.46 33.22 25.46 33.33 25.47 33.26"/><path d="M25.4,33.75v.07l0-.3C25.41,33.36,25.42,33.87,25.4,33.75Z" transform="translate(0 -0.26)"/><path d="M25.38,33.72c0-.07,0,.07,0,.12C25.35,33.73,25.39,33.87,25.38,33.72Z" transform="translate(0 -0.26)"/><path d="M23.52,33.52h0Z" transform="translate(0 -0.26)"/><path d="M22.87,33.78l0,.1c.17-.14.2.08.33,0l0,0c.24.14.54,0,.81,0l0,.05s.05-.1.06-.09A.13.13,0,0,1,24,34c0,.19.18-.08.19.06a.29.29,0,0,0,0-.15,1.18,1.18,0,0,0,.63-.14.43.43,0,0,1,0,.14c.19-.29.34-.16.52-.12,0-.08,0-.08,0-.16s-.09.2-.14.05V33.6s0,.19,0,.09a.48.48,0,0,1,0-.1c-.07,0-.15,0-.23.14,0-.16-.08,0-.1-.17,0,.06,0,0-.06.15-.25-.11-.54,0-.81-.08-.21.27-.26-.13-.44-.08v0c-.07.06-.16.07-.2,0l-.1.11c-.24-.39-.65-.38-.93-.67s-.47-.68-1.05-.62c0,0,0,0,0,0s-.14-.18-.27-.22l0,0c-.39,0-.39-.43-.78-.45a6.2,6.2,0,0,0-.73-.82l.05,0c-.28-.17-.14-.58-.37-.78,0-.32-.61-.36-.58-.72.2-.3-.51-.24-.29-.54.29-.52-.12-.71-.52-.95,0-.37-.49-.53-.27-1-.26-.07.16-.4,0-.53l-.07,0c.2-.13-.36,0,0-.17h0c.16-.09-.42.06-.23,0l-.09,0s.09,0,.12-.08-.15,0-.11,0c.34-.12-.1-.07.28-.2,0,0,.14-.08.23-.06s0-.08-.17,0a1.68,1.68,0,0,0-.46.16l.13,0-.15.07c0,.06-.18.12-.25.18h0c.16,0,.08,0,.07.06l-.07,0c-.14.06.31,0,0,0a.68.68,0,0,1,.17.31c.1,0,0,.09.2,0-.2.1-.22.2-.21.23h0c-.25.16.28,0,0,.16.24-.07,0,.13.25.06l-.14.06c0,.1,0,.25,0,.34.23,0,0,.21.28.17,0,.07-.12.21,0,.24h0a.28.28,0,0,0,.3.16c-.26.13-.19.15-.26.22.15,0,.15.13.3.17-.12.06.08,0-.1.13.44.09.45.42.31.79h0c.11,0,.34-.08.48-.11l0,0c.05,0-.1.15,0,.18l-.06,0c.1,0-.09.16.06.14l0,0h.08c-.06,0-.14.07-.13,0,.14.42.65.64.84,1l-.06,0h.14l-.06,0c0,.15.18.14.22.25s-.09,0-.11.07c.19,0-.11.24.21.06l-.1.07a.94.94,0,0,1,.45.5c.37-.07.28.28.59.24l0,0c.33,0,.33.37.55.51.06.09.17.08.25.14l-.05.06c.33-.13.12.45.47.29l-.08.08c.12-.12.06.11.22-.13l0,.09c.32-.25.08.28.35.15l0,.05c.06,0,.13,0,.12,0l0,0c0,.31.25.11.35.19l-.08.11c.13-.1.17.08.28.06l0,.05.08-.06-.05.11C22.63,33.8,22.76,33.75,22.87,33.78Z" transform="translate(0 -0.26)"/><path d="M24,34h0S24,34,24,34Z" transform="translate(0 -0.26)"/><path d="M16.8,26.19l0,0S16.8,26.19,16.8,26.19Z" transform="translate(0 -0.26)"/><path d="M17.92,17.49l-.11-.14-.06.63a8,8,0,0,1,4.53-.32c.08,0,.18-.88,0-.93a6.61,6.61,0,0,0-4.53.41c-.22.11,0,.86,0,.82l.15-.12c.06,0,0-.29,0-.35Z" transform="translate(0 -0.26)"/><path d="M29,17.46a7.15,7.15,0,0,1,4.84.22c.05,0,.25-1.06,0-1.16a6.32,6.32,0,0,0-4.83.29c-.14.06,0,.67,0,.65Z" transform="translate(0 -0.26)"/><path d="M17.8,20.38a3.06,3.06,0,0,1,3.09-.61c.72.33,1.17.91.47,1.47-1,.83-2,.27-1.77-1.27,0-.16-.09-1-.16-.65a4.22,4.22,0,0,0,.31,2.91c.71,1,2.14-.1,2.28-1a1.72,1.72,0,0,0-.93-2,2.92,2.92,0,0,0-3.29,1s0,.17,0,.16Z" transform="translate(0 -0.26)"/><path d="M29.65,19.57a3.78,3.78,0,0,1,3.91.71c.08.06.25-.9,0-1.07a3.72,3.72,0,0,0-4,0c-.09,0,0,.41,0,.4Z" transform="translate(0 -0.26)"/><path d="M31.32,19.29c-.89-.31-1.14.89-1.1,1.52a1.42,1.42,0,0,0,1.65,1.43,1.78,1.78,0,0,0,1.21-1.91,1.63,1.63,0,0,0-1.94-1.48c-.12,0-.1.68,0,.71a2.55,2.55,0,0,1,1.54.65c.33.41-.43.94-.79,1a1.27,1.27,0,0,1-1.28-.35c-.44-.47.32-1,.69-1.16.07,0,.07-.43,0-.46Z" transform="translate(0 -0.26)"/><path d="M18.08,20c.75,0,1.49-.22,2.25-.22a5.47,5.47,0,0,1,1.1.11c.3.06.57.28.86.27.14,0,.06-.62,0-.7-.33-.68-1.19-.59-1.87-.54a3.7,3.7,0,0,0-2.37,1s0,.1,0,.1Z" transform="translate(0 -0.26)"/><path d="M26.46,21.9c-.13-.7,0-.17,0,0,.06.4.15.79.23,1.18.17.82.74,2.1-.52,2.21-.18,0-.16,1.08,0,1.14,2.07.64.54-4.51.4-5.07-.1-.38-.16.43-.14.54Z" transform="translate(0 -0.26)"/><path d="M25.39,29.67a8.51,8.51,0,0,0,1.31.12,4.76,4.76,0,0,1,1.31.11c.14,0,.14-1.13,0-1.07a4.65,4.65,0,0,1-1.3.11,8.39,8.39,0,0,0-1.3.12c-.1,0-.09.58,0,.61Z" transform="translate(0 -0.26)"/><path d="M19.63,20.75v.56l1.23-.17a3.08,3.08,0,0,0-.15-.52q0-.28-.12-.1t0,.07c0-.05.13.08.12.08v0q-.16.3.44.07l.29.37,0-.06-.16.61,0,0-.61.16h.06l-.37-.29,0,0c.34.73,1.42.09,1.08-.63a.69.69,0,0,0-1.11-.14.62.62,0,0,0-.16.61c.2.78,1.09.61,1.47.09a1.38,1.38,0,0,0-.06-1.71,1.41,1.41,0,0,0-1.7-.28c-.79.45-.43,1.27-.24,2a.63.63,0,0,0,1.23-.17v-.56a.63.63,0,0,0-1.25,0Z" transform="translate(0 -0.26)"/><path d="M32.09,21a.52.52,0,0,1-.36-.2c-.06-.08,0-.32-.07-.35-.38-.46-.4.4-.41.47a1.92,1.92,0,0,0,.07.68.63.63,0,0,0,1.14.15A3.93,3.93,0,0,0,33,20a.63.63,0,0,0-.62-.62.64.64,0,0,0-.62.63,2.54,2.54,0,0,1-.42,1.07l1.14.15c-.09-.32,0-.66,0-1a1.27,1.27,0,0,0-.36-.73,1,1,0,0,0-1.46.12,1.66,1.66,0,0,0,1.06,2.56c.79.16,1.12-1,.33-1.21Z" transform="translate(0 -0.26)"/><path d="M15.62,23.16c-.65.73-1.31-1.59-1.38-1.93s-.07-.4-.1-.6-.14-.35.13-.4.7.37.87.66c.07.12.12-.34.13-.35a1,1,0,0,0-.09-.61c-.24-.32-.91-.9-1.25-.36-.23.37,0,1.18,0,1.55a6.17,6.17,0,0,0,.61,2.19c.17.3.72,1.12,1.1.65.13-.16,0-.84-.07-.8Z" transform="translate(0 -0.26)"/><path d="M37,20.45c.5-.31.22.87.18,1.06a2.23,2.23,0,0,1-.72,1.44c-.17.1-.11.73,0,.86l.15.19,0,0c.4-.16.43-.67.51-1.06.12-.65.25-1.29.33-1.95,0-.25.09-1.53-.5-1.06-.09.07,0,.5,0,.5Z" transform="translate(0 -0.26)"/><path d="M15.58,19.78c-.47-4.95-1.31-11,3.93-13.41a18.17,18.17,0,0,1,7-1.72,14.32,14.32,0,0,1,7.71,3C36.91,9.8,36.4,15.72,36.57,19c0,.79.34.81.3,0-.14-3.13.7-8.53-1.17-11.38S28.46,3.26,25.24,3.74C21.52,4.3,17,5.62,15.53,9.43c-1.26,3.24-.38,7.14,0,10.44,0,.24.08,0,.07-.09Z" transform="translate(0 -0.26)"/><polygon points="27.47 4.35 27.46 4.31 27.44 4.41 27.47 4.35"/><path d="M27.33,4.84v.07l.08-.3C27.37,4.45,27.36,5,27.33,4.84Z" transform="translate(0 -0.26)"/><path d="M27.31,4.81c0-.07,0,.07-.05.12C27.26,4.82,27.32,5,27.31,4.81Z" transform="translate(0 -0.26)"/><path d="M24.37,5h0Z" transform="translate(0 -0.26)"/><path d="M23.66,5.6v.11c.11-.21.3,0,.44-.14v0a4,4,0,0,0,1.09-.32v.06s0-.11.05-.1a.1.1,0,0,1,0,.06c.09.18.23-.13.29,0a.21.21,0,0,0,0-.16,3.47,3.47,0,0,0,.91-.27.28.28,0,0,1,0,.14c.25-.31.52-.2.79-.16,0-.08,0-.08,0-.16s-.15.2-.23.06V4.69c-.06,0,0,.19-.07.1s0-.1,0-.1-.25,0-.35.16c0-.16-.13,0-.18-.16,0,.07-.06.05-.07.16A6.29,6.29,0,0,0,25,5c-.18.33-.45,0-.68.1a.11.11,0,0,1,0,0,.28.28,0,0,1-.28.11L24,5.29c-.59-.21-1.14.07-1.72.08S21,5.39,20.54,6c0,0,0,0,0-.06-.15.13-.35.09-.48.22v0c-.28.41-.83.37-1,.84A3.75,3.75,0,0,0,17.8,8l0,0c-.2.38-.71.48-.89.9-.38.29-.18.94-.53,1.23-.41.11.06.7-.32.81-.64.32-.5.94-.33,1.49-.28.43.08,1-.32,1.37.2.24-.33.43-.28.68h.08c-.24.07.31.21,0,.25h0c-.18,0,.41.13.2.15h.09c0,.06-.1,0-.14,0s.16,0,.11,0c-.36,0,.07.14-.33.13,0,0-.16,0-.24,0s0,.12.15.11a1.19,1.19,0,0,0,.48,0H15.3l.17,0c0-.07.21-.08.3-.12h0c-.16,0-.06-.09,0-.11h.07c.16,0-.3-.1,0-.06a1.11,1.11,0,0,1,0-.48c-.1,0,0-.12-.18-.11.22,0,.29-.14.29-.18h0c.3-.06-.25-.13.1-.17-.24,0,.09-.14-.19-.22h.15c0-.14.14-.29.17-.41-.2-.14.14-.23-.14-.38.07-.06.22-.15.13-.28l0,0a.39.39,0,0,0-.14-.39c.29,0,.25,0,.35-.05-.11-.11,0-.25-.11-.4.13,0,0-.11.16-.06-.26-.43,0-.81.42-1h0c-.08-.08-.27-.23-.37-.33s0,0,0,0,.2,0,.19-.12l.05,0c0-.09.19,0,.09-.18l0,0,0-.07c.06,0,.14.08.11.09.31-.45.35-1.12.78-1.54l0,.06V8.55l0,.05c.17,0,.15-.26.27-.34s.05.08.09.09c0-.2.27,0,.06-.25a.36.36,0,0,1,.08.09,1.21,1.21,0,0,1,.64-.59c0-.41.41-.32.5-.66l0,.06c.18-.37.62-.31.92-.49.14,0,.2-.14.34-.2l0,.07c.13-.38.57.09.71-.31l0,.11c0-.18.16,0,.07-.26l.07.07c.07-.42.35.09.5-.21v.07c0-.07.1-.12.15-.07s0,0,0,.05c.23.23.36-.11.55-.13v.13c.06-.16.25-.06.36-.14v.06l0-.09,0,.12C23.38,5.76,23.51,5.63,23.66,5.6Z" transform="translate(0 -0.26)"/><path d="M25.21,5.31h0S25.21,5.31,25.21,5.31Z" transform="translate(0 -0.26)"/><path d="M15.79,15l0,0S15.78,15,15.79,15Z" transform="translate(0 -0.26)"/><polygon points="24.94 4.87 24.93 4.83 24.94 4.93 24.94 4.87"/><path d="M24.92,5.37l0,.07,0-.3C24.86,5,25,5.47,24.92,5.37Z" transform="translate(0 -0.26)"/><path d="M24.91,5.34c0-.06,0,.07,0,.12C24.89,5.35,24.94,5.49,24.91,5.34Z" transform="translate(0 -0.26)"/><path d="M23.71,5.73h0S23.71,5.72,23.71,5.73Z" transform="translate(0 -0.26)"/><path d="M23.55,6.27l0,.11c0-.21.12,0,.15-.14v0c.16,0,.25-.23.38-.35V6s0-.11,0-.1a.21.21,0,0,1,0,.06c.08.17.06-.14.12,0a.46.46,0,0,0,0-.15.87.87,0,0,0,.32-.32.65.65,0,0,1,0,.13c0-.32.18-.23.3-.2a1.31,1.31,0,0,1,0-.16c-.06-.09,0,.2-.09.07V5.24s0,.19,0,.1a.69.69,0,0,1,0-.1s-.11,0-.12.18c-.05-.16-.05,0-.11-.14a.48.48,0,0,0,0,.16c-.2,0-.33.16-.51.2,0,.33-.2,0-.26.13v0c0,.08,0,.13-.09.11V6c-.31-.19-.48.07-.74,0s-.59-.11-.68.38a.15.15,0,0,1,0-.06c0,.09-.15,0-.2.1v0c-.06.31-.36.11-.4.44a1.34,1.34,0,0,0-.57.34l0-.06c-.1.19-.4,0-.51.13-.22-.05-.18.48-.42.39s-.08.43-.31.19c-.4-.34-.47,0-.52.39-.27,0-.17.4-.51.25.1.21-.34-.05-.36.1l.07,0c-.23-.08.25.23-.07.09h0c-.18,0,.37.21.17.14l.08,0s-.09,0-.13,0,.15.06.1.05c-.35-.11.06.07-.33,0,0,0-.16,0-.23-.07s0,.07.13.1a3.06,3.06,0,0,0,.47.1l-.13,0,.16,0a1.13,1.13,0,0,1,.29,0h0c-.15-.05-.06,0,0,0l.07,0c.14.06-.27-.13,0,0a.07.07,0,0,1,0-.11c-.08-.06,0,0-.13-.13.18.13.24.15.24.13l0,0c.22.19-.17-.21.09,0-.17-.18.08,0-.1-.19l.1.11s.13,0,.16,0c-.09-.2.12,0,0-.23.06,0,.15.13.13,0v0s.07-.08,0-.26a.77.77,0,0,0,.19.26c0-.13,0-.13,0-.26.07.12,0-.07.1.1,0-.4.19-.36.46-.18h0l-.15-.46,0,0s.12.11.13.07l0,.06c0-.09.12.12.08,0l0,0V8c0,.06.07.14,0,.13.25,0,.34-.46.59-.52l0,.06V7.54l0,.06c.1.07.09-.12.15-.12a.62.62,0,0,0,.05.12c0-.18.16.18,0-.16a.82.82,0,0,1,.05.12.31.31,0,0,1,.32-.2c0-.34.19-.12.19-.4l0,.06c0-.27.28-.1.39-.2s.08-.09.13-.11l0,.07c0-.33.3.18.28-.18l0,.11c0-.17.08,0,0-.24l0,.08c-.07-.39.19.12.18-.15l0,.07c0-.06,0-.11.05-.05a.46.46,0,0,1,0,0c.16.23.14-.08.22-.1l0,.13c0-.16.1,0,.12-.13l0,.06V6.32l0,.12C23.47,6.43,23.49,6.31,23.55,6.27Z" transform="translate(0 -0.26)"/><path d="M24.14,5.95h0Z" transform="translate(0 -0.26)"/><path d="M18.92,9h0Z" transform="translate(0 -0.26)"/><polygon points="25.82 5.48 25.81 5.44 25.81 5.55 25.82 5.48"/><path d="M25.77,6l0,.07v-.3C25.74,5.59,25.8,6.09,25.77,6Z" transform="translate(0 -0.26)"/><path d="M25.75,6c0-.06,0,.07,0,.12C25.73,6,25.78,6.11,25.75,6Z" transform="translate(0 -0.26)"/><path d="M24,6.38h0S24,6.37,24,6.38Z" transform="translate(0 -0.26)"/><path d="M23.67,7l0,.11c0-.22.18,0,.24-.15V7c.23,0,.39-.25.6-.38v.06s0-.11,0-.11a.15.15,0,0,1,0,.06c.09.17.11-.14.17,0a.33.33,0,0,0,0-.15,1.44,1.44,0,0,0,.5-.33.46.46,0,0,1,0,.13c.1-.32.29-.23.45-.21,0-.08,0-.08,0-.16s-.06.21-.13.07V5.86s0,.19,0,.1a.49.49,0,0,1,0-.1c-.07,0-.15,0-.19.18,0-.16-.08,0-.13-.14,0,.07,0,.05,0,.16-.27,0-.49.17-.75.22,0,.34-.28,0-.39.14v0c0,.09-.09.14-.15.12v.14c-.4-.18-.68.1-1,.09s-.81-.06-1,.47c0,0,0,0,0-.06s-.22,0-.29.13v0c-.13.35-.51.18-.62.54A2.39,2.39,0,0,0,20,8.3l0-.06c-.15.24-.54.08-.7.31-.31,0-.24.6-.56.6s-.07.51-.39.35c-.55-.17-.59.28-.6.7-.33.1-.15.57-.57.6.14.21-.37.12-.37.32l.08,0c-.25,0,.29.19-.06.15h0c-.18,0,.4.14.19.12l.09,0s-.1,0-.14,0,.16,0,.11,0c-.36,0,.07.08-.33.06,0,0-.16,0-.24,0s0,.09.15.08a2,2,0,0,0,.48,0h0s.21,0,.29,0h0c-.16,0-.06,0,0,0h.07c.15,0-.29-.08,0,0a.21.21,0,0,1,0-.22c-.09,0,0-.05-.16-.11.21.06.29,0,.29,0l0,0c.27.1-.21-.17.11,0-.21-.13.1,0-.14-.19l.13.07c0-.06.16-.07.21-.11-.14-.18.16,0,0-.27.08,0,.21,0,.16-.08l0,0c0-.06.08-.13,0-.3a.58.58,0,0,0,.28.18c-.06-.13,0-.16,0-.3.1.09,0-.08.14.06-.1-.42.19-.49.53-.4h0l-.22-.43s0,0,0,0,.16.08.17,0l0,.05c0-.09.15.08.1-.07l0,0,0-.07c0,.05.09.13.07.12.31-.15.42-.62.76-.77l0,.06V8.7l0,.06c.13,0,.12-.15.21-.17a.44.44,0,0,0,.06.11c0-.18.2.15.05-.18a.58.58,0,0,1,.06.11.56.56,0,0,1,.45-.3c0-.36.27-.17.3-.47l0,.06c.1-.29.39-.16.57-.27s.12-.1.2-.14l0,.08c0-.35.39.15.42-.22l0,.11c0-.17.11,0,0-.25l.06.07c0-.4.24.1.28-.17v.07c0-.06,0-.11.09-.06a.34.34,0,0,1,0,0c.19.23.21-.1.32-.12l0,.13c0-.16.15-.05.2-.14V7l0,.12C23.53,7.12,23.59,7,23.67,7Z" transform="translate(0 -0.26)"/><path d="M24.57,6.59h0S24.57,6.6,24.57,6.59Z" transform="translate(0 -0.26)"/><path d="M17.47,11.51h0Z" transform="translate(0 -0.26)"/><polygon points="34.21 6.67 34.22 6.64 34.16 6.72 34.21 6.67"/><path d="M34,7.11l0,.06.17-.24C34.26,6.78,34,7.21,34,7.11Z" transform="translate(0 -0.26)"/><path d="M34.05,7.08c0-.07,0,.05-.07.09S34,7.21,34.05,7.08Z" transform="translate(0 -0.26)"/><path d="M33.11,6.66h0Z" transform="translate(0 -0.26)"/><path d="M32.67,7l0,.1c.13-.16.09,0,.17,0l0,0c.1.09.29,0,.44,0l0,0s.06-.09.06-.08l0,.05c-.06.18.12-.07.08.07A.56.56,0,0,0,33.37,7,.69.69,0,0,0,33.76,7l-.06.12c.22-.22.25-.07.31,0A1.6,1.6,0,0,1,34.08,7c0-.1-.14.14-.1,0l0-.06c0-.05-.1.16-.07.07a.84.84,0,0,1,0-.09c-.05,0-.06-.07-.18.07.07-.15,0,0,0-.17a.58.58,0,0,0-.1.13c-.09-.15-.3-.08-.43-.15-.2.25-.11-.12-.23-.06v0c-.06.06-.11.08-.12,0l-.08.11c-.06-.33-.32-.24-.46-.42s-.28-.45-.64-.13a.18.18,0,0,1,0-.06c-.08,0-.1-.09-.17,0v0c-.23.2-.28-.13-.5.1a1,1,0,0,0-.54-.09l0-.06c-.18.08-.21-.28-.38-.23-.1-.18-.39.25-.48,0s-.3.28-.3-.05c0-.51-.29-.26-.54,0-.11-.21-.39.17-.44-.22-.14.19-.07-.31-.17-.27l0,.08c0-.24-.16.3-.08,0h0c0-.18-.15.39-.1.19l0,.08s0-.1,0-.13,0,.15,0,.1c.1-.35-.07.06,0-.33A1.72,1.72,0,0,1,28.22,5s0,0-.08.13a3.41,3.41,0,0,0-.13.46l0-.13,0,.16a1.65,1.65,0,0,1,0,.29h0c.06-.15,0-.05.05,0l0,.07c0,.15.11-.28,0,0a.19.19,0,0,1,.18,0c0-.09,0,0,.08-.17,0,.22,0,.28,0,.28V6c-.05.28.11-.24,0,.1.07-.24,0,.09.13-.18l0,.14s.08.12.12.15c.1-.2.06.12.18-.16,0,.07,0,.2.08.1v0s.1,0,.18-.18a.82.82,0,0,0,0,.32c.07-.12.11-.07.18-.17,0,.13.05,0,0,.14.22-.32.33-.16.37.15h0l.19-.44,0,0s0,.16,0,.13l0,.06c0-.08,0,.16.07,0v0l0-.06c0,.06,0,.15,0,.13.17.12.47-.13.65,0l0,.06.07-.09,0,.06c0,.12.12,0,.16,0a.75.75,0,0,0,0,.12c.09-.15,0,.23.12-.11a1,1,0,0,1,0,.12.22.22,0,0,1,.31,0c.19-.28.18,0,.35-.19l0,.06c.19-.18.22.09.35.08s.1,0,.14,0l0,.08c.19-.26.07.32.27,0l0,.1c.08-.15,0,.08.13-.2l0,.09c.2-.34,0,.21.2,0l0,.06s.08-.07.07,0l0,0c-.05.28.13,0,.19.06l-.06.12c.09-.13.09,0,.15,0l0,.05.05-.07,0,.11S32.61,7,32.67,7Z" transform="translate(0 -0.26)"/><path d="M33.22,7.09h0Z" transform="translate(0 -0.26)"/><path d="M28,5.94v0S28,5.93,28,5.94Z" transform="translate(0 -0.26)"/><path d="M34.33,10.44l0,.05.15-.07Z" transform="translate(0 -0.26)"/><path d="M35,10H35a.45.45,0,0,1-.28.52.28.28,0,0,0,.34-.27C35,10.07,35,10,35,10Z" transform="translate(0 -0.26)"/><path d="M35.09,9.91c.09-.07,0-.12-.09-.14C35.11,9.81,34.94,9.89,35.09,9.91Z" transform="translate(0 -0.26)"/><path d="M33.58,8.47h0Z" transform="translate(0 -0.26)"/><path d="M33,8.78l0,.1c.14-.16.15.06.26,0l0,0c.18.11.42,0,.65,0l0,0s.07-.09.07-.08a.17.17,0,0,1,0,.05c0,.18.17,0,.13.1a.35.35,0,0,0,.08-.13,3.46,3.46,0,0,0,.59.15.42.42,0,0,1-.09.11.27.27,0,0,1,.32.05.69.69,0,0,1,.14.51c.08,0,.08,0,.16,0,.09-.21-.21-.22-.18-.43l.08,0c0-.15-.17.09-.13,0s.08-.06.08-.07S35,9,34.79,9.11c.1-.13-.06-.07,0-.2-.06,0-.07,0-.14.08-.17-.26-.5-.26-.72-.38-.24.24-.21-.16-.38-.11v0c-.07.06-.14.07-.18,0l-.09.11c-.2-.36-.56-.27-.78-.49s-.38-.53-.88-.35c0,0,0,0,0,0s-.13-.14-.24-.13l0,0c-.33.1-.39-.29-.73-.16a2,2,0,0,0-.8-.34L30,7c-.26,0-.32-.38-.57-.38-.16-.23-.59.14-.73-.13s-.44.2-.45-.14c-.09-.55-.47-.36-.82-.18-.19-.25-.58.09-.7-.33-.18.18-.15-.34-.3-.32l0,.08c0-.24-.2.28-.12-.06h0c0-.18-.19.38-.14.17l0,.08s0-.1,0-.14-.05.15-.06.1c.11-.34-.1.05,0-.33,0,0,0-.16.09-.23s-.05,0-.1.12a2.15,2.15,0,0,0-.14.46l0-.12,0,.16s0,.21,0,.3h0c.07-.14.07,0,.07,0l0,.07c0,.15.14-.27,0,0a.41.41,0,0,1,.28,0c0-.09.06,0,.11-.16,0,.22,0,.29,0,.29s0,0,0,0c0,.29.14-.23.07.11.09-.23.05.1.17-.17a1,1,0,0,1,0,.14c.08,0,.13.15.2.18.13-.19.1.14.25-.13,0,.07,0,.22.14.12l0,0c.07,0,.15,0,.26-.14a.57.57,0,0,0,0,.33c.09-.11.16,0,.26-.13,0,.13.07,0,0,.15.31-.28.49-.08.57.26h0l.25-.41s0,0,0,0,0,.17.06.15l0,.06c.06-.07,0,.17.1,0l0,0,.05-.06c0,.06-.06.15-.07.12.26.18.7,0,1,.19l0,0,.1-.07,0,.05c0,.13.18,0,.24.07a.48.48,0,0,0-.06.11c.13-.13,0,.24.17-.07a.64.64,0,0,1-.06.11.47.47,0,0,1,.45.18c.28-.22.26.12.52,0l0,.06c.28-.1.31.21.5.28s.14,0,.21.07l0,.07c.27-.19.11.39.4.16l-.06.09c.1-.14,0,.1.18-.17l0,.09c.26-.3.08.24.29.06l0,.06c.05,0,.1-.06.1,0l0,0c0,.29.21.06.3.1l-.06.12c.1-.12.14,0,.22,0l0,.06.06-.07,0,.12C32.83,8.84,32.94,8.76,33,8.78Z" transform="translate(0 -0.26)"/><path d="M33.88,9h0S33.87,9,33.88,9Z" transform="translate(0 -0.26)"/><path d="M25.91,6.13v0S25.91,6.13,25.91,6.13Z" transform="translate(0 -0.26)"/><polygon points="35.98 11.33 36.02 11.32 35.92 11.31 35.98 11.33"/><path d="M35.75,11.51h-.07l.3.05C36.15,11.54,35.64,11.52,35.75,11.51Z" transform="translate(0 -0.26)"/><path d="M35.79,11.49c.07,0-.07,0-.12,0C35.78,11.47,35.63,11.49,35.79,11.49Z" transform="translate(0 -0.26)"/><path d="M35.75,9.9h0Z" transform="translate(0 -0.26)"/><path d="M35.23,9.53l-.11,0c.21,0,0,.14.12.2h0c0,.19.15.38.23.59h-.06s.11,0,.1,0h-.06c-.18,0,.11.13,0,.15a.36.36,0,0,0,.15,0,1.13,1.13,0,0,0,.21.5h-.14c.29.15.17.29.12.43a1.05,1.05,0,0,1,.16,0c.1,0-.19-.09,0-.13h.08s-.19,0-.09,0a.55.55,0,0,1,.1,0c0-.06,0-.13-.14-.19.16,0,0-.07.16-.09a.41.41,0,0,0-.16,0c.09-.22-.06-.45,0-.68-.31-.11.07-.24,0-.38h0c-.08,0-.12-.11-.08-.17l-.14,0a.54.54,0,0,0,0-.58,4.74,4.74,0,0,0-.38-.47c-.31-.32-.48-.61-.92-.42l0,0c-.1,0-.1-.15-.2-.16l0,0c-.33.06-.3-.33-.66-.26a1.53,1.53,0,0,0-.75-.43l0-.05c-.26,0-.3-.39-.56-.4-.16-.23-.58.15-.72-.12S31,7,31,6.62c-.09-.55-.45-.35-.81-.19-.17-.25-.59,0-.66-.39-.2.14-.1-.32-.21-.36L29.19,6h0V5.9c0,.24.11-.33.13,0v0c0,.18.07-.42.08-.21V5.65s0,.1,0,.14,0-.16,0-.11c0,.36.08-.08.07.33,0,0,0,.16,0,.24s.06,0,.06-.15a2.18,2.18,0,0,0,0-.48v0s0-.21-.07-.29h0c0,.16,0,.06-.06,0V5.27c0-.16-.05.3,0,0a.31.31,0,0,1-.19.06l-1.77.07L29,6.21l.08,0c.06-.08.06,0,.14-.14-.09.2-.05.29,0,.3l0,0c-.09.28.18-.2.06.13.12-.22,0,.11.2-.14l-.06.14c.08,0,.13.17.19.21.15-.17.1.15.27-.1,0,.08,0,.22.14.13l0,0c.07,0,.16,0,.27-.13a.54.54,0,0,0,0,.33c.09-.11.16,0,.27-.13,0,.13.07,0,0,.15.31-.28.49-.08.58.26h0l.25-.42s0,0,0,0,0,.17.06.15l0,.06c.06-.07,0,.17.1,0l0,0,0-.06c0,.06-.06.15-.06.12.26.17.68,0,.94.17l0,0,.1-.07,0,.05c0,.13.17,0,.22.07a.51.51,0,0,0-.06.11c.14-.12,0,.24.17-.06l-.07.11A.39.39,0,0,1,33,8c.3-.17.22.14.5,0l0,0c.29,0,.27.27.45.37s.13.05.2.09l0,.07c.27-.19.12.39.4.16l-.06.09c.1-.14,0,.09.18-.17l0,.09c.27-.29.06.24.29.08l0,.05c.05,0,.11,0,.09,0l0,0c-.09.28.17.09.24.17l-.1.08c.14-.07.09.08.17.09l-.05,0,.09,0L35,9.37C35.07,9.43,35.19,9.45,35.23,9.53Z" transform="translate(0 -0.26)"/><path d="M35.41,10.35h0Z" transform="translate(0 -0.26)"/><path d="M29.49,5.26v0S29.49,5.27,29.49,5.26Z" transform="translate(0 -0.26)"/><polygon points="18.91 12.29 18.93 12.32 18.89 12.23 18.91 12.29"/><path d="M18.86,12.31l0-.06.11.28C19,12.67,18.79,12.22,18.86,12.31Z" transform="translate(0 -0.26)"/><path d="M18.88,12.33c0,.05,0-.07,0-.12S18.81,12.21,18.88,12.33Z" transform="translate(0 -0.26)"/><path d="M20.16,11.51h0S20.16,11.52,20.16,11.51Z" transform="translate(0 -0.26)"/><path d="M20.26,10.91l-.05-.1c0,.21-.14.08-.16.19l0,0c-.19.06-.26.31-.38.49l0-.05s0,.1,0,.1a.17.17,0,0,1,0-.06c-.13-.14,0,.16-.14.05a.38.38,0,0,0,.07.14,1.07,1.07,0,0,0-.3.43.54.54,0,0,1-.08-.12c0,.32-.15.29-.29.32,0,.07.05.06.08.14s0-.21.08-.1l0,.07s-.09-.17,0-.1a.58.58,0,0,1,.05.09c0-.06.13,0,.09-.22.09.13.06,0,.16.1a.42.42,0,0,0,0-.15c.23,0,.34-.28.54-.38-.07-.33.23-.06.28-.21l0,0c0-.09,0-.15.09-.14l0-.14c.39.09.54-.22.85-.27s.69,0,.76-.57c0,0,0,0,0,.06s.18,0,.22-.15l0,0c.06-.34.41-.2.45-.55a2.11,2.11,0,0,0,.66-.48l0,.05c.12-.22.47,0,.6-.24.26,0,.21-.54.5-.49s.1-.47.37-.26c.47.28.54-.12.63-.5.3,0,.29-.48.67-.3,0-.25.35.12.42,0l0-.07c.14.19-.06-.34.12,0v0c.08.16-.1-.41,0-.22l0-.08s0,.09.07.12,0-.16,0-.11c.08.35.07-.09.13.31,0,0,0,.15,0,.24s0,0,0-.15a2.07,2.07,0,0,0,0-.48v.13l0-.16c-.05,0-.09-.2-.16-.27h0c0,.16-.06.08-.09.07l0-.07c-.07-.14,0,.31,0,.05A1.14,1.14,0,0,1,26,7.1c0,.09-.06,0,.05.18-.13-.18-.21-.2-.23-.18s0,0,0,0c-.19-.22.09.26-.13,0,.12.22-.11,0,0,.24l-.08-.13c-.07,0-.19,0-.26,0,.06.22-.17,0-.06.27-.07,0-.19-.11-.18,0v0s-.11.1-.05.29c-.16-.24-.16-.18-.23-.24,0,.14-.06.15-.06.28-.08-.11,0,.08-.12-.09,0,.41-.23.42-.54.27h0l.17.45s0,0,0,0-.14-.1-.15,0l0-.06c0,.09-.14-.1-.1.05l0,0v.07c0-.06-.08-.14-.06-.13-.3.1-.4.55-.7.66l0-.06v.12l0-.06c-.12-.05-.1.14-.18.16A.5.5,0,0,0,23,8.92c0,.18-.19-.15,0,.18A.65.65,0,0,1,22.87,9a.46.46,0,0,1-.38.29c.05.35-.22.17-.21.46l0-.06c0,.29-.32.17-.46.3s-.08.11-.15.15l0-.07c0,.33-.37-.1-.32.26l0-.1c.07.16-.1,0,.05.24l-.07-.06c.12.38-.23-.07-.2.2l0-.06c0,.06,0,.12-.06.07a.39.39,0,0,1,0,0c-.22-.19-.16.12-.25.16l-.06-.12c0,.16-.11.08-.13.17l0-.05,0,.09-.06-.11C20.33,10.72,20.32,10.85,20.26,10.91Z" transform="translate(0 -0.26)"/><path d="M19.62,11.44h0Z" transform="translate(0 -0.26)"/><path d="M26.46,6.8l0,0S26.46,6.81,26.46,6.8Z" transform="translate(0 -0.26)"/><polygon points="20.77 10.78 20.79 10.8 20.74 10.72 20.77 10.78"/><path d="M20.67,10.82l0-.05.16.25C20.9,11.14,20.59,10.74,20.67,10.82Z" transform="translate(0 -0.26)"/><path d="M20.7,10.84c.05,0,0-.07-.06-.11S20.6,10.72,20.7,10.84Z" transform="translate(0 -0.26)"/><path d="M21.6,10h0S21.61,10.05,21.6,10Z" transform="translate(0 -0.26)"/><path d="M21.57,9.48l-.06-.09c.07.19-.1.07-.1.18l0,0c-.15.06-.16.3-.23.46l0,0s.05.1,0,.09l0-.05c-.14-.13,0,.15-.11.05a.47.47,0,0,0,.09.13.79.79,0,0,0-.16.41l-.09-.11c.1.3-.06.28-.17.31a1.37,1.37,0,0,1,.1.13c.09.05-.07-.19,0-.1l0,.06s-.11-.15,0-.09a.74.74,0,0,1,.06.08c0-.05.1,0,0-.21.11.12,0,0,.16.08a.52.52,0,0,0-.07-.14c.19,0,.23-.27.38-.37-.13-.3.18-.06.19-.2l0,0c0-.08,0-.14,0-.13l-.05-.13c.35.08.42-.21.68-.26s.58,0,.55-.53c0,0,0,0,0,.05S23,9,23,8.92l0,0c0-.32.32-.18.3-.5a1.41,1.41,0,0,0,.5-.43l0,.05c.07-.21.39,0,.49-.2.23,0,.12-.5.37-.43s0-.44.29-.22c.43.3.45-.07.49-.43.26,0,.21-.43.55-.23,0-.24.3.15.36,0l0-.07c.15.19-.09-.33.1,0v0c.1.15-.17-.39-.05-.21l0-.08s.05.09.08.11-.08-.14,0-.1c.18.31,0-.1.21.26,0,0,.09.13.11.22s.05,0,0-.15a2.81,2.81,0,0,0-.24-.42l.06.12-.09-.14s-.13-.17-.19-.23h0c.06.15,0,.07,0,.06l0-.06c-.08-.13.12.28,0,0A.27.27,0,0,1,26,6.1c0,.09-.05,0,.06.18-.13-.18-.2-.21-.21-.19s0,0,0,0c-.18-.23.09.25-.11,0,.12.22-.1,0,0,.23l-.08-.13c-.06,0-.17,0-.22,0,.07.21-.15,0,0,.25-.06,0-.17-.12-.15,0v0s-.08.09,0,.27a.68.68,0,0,0-.22-.25c0,.13,0,.13,0,.27-.08-.11,0,.07-.11-.09.07.4-.16.38-.44.22h0l.2.44,0,0s-.13-.1-.13-.06l0-.06c0,.09-.13-.1-.08,0l0,0,0,.07c0-.05-.08-.14-.06-.12-.25.08-.29.5-.52.6l0-.06,0,.12,0-.05c-.11-.06-.07.13-.13.14a.61.61,0,0,0-.07-.11c.06.17-.19-.15,0,.17l-.07-.11a.32.32,0,0,1-.29.26c.09.33-.17.15-.11.43l0-.05c0,.27-.25.15-.35.27s-.05.1-.1.14l0-.07c.09.31-.34-.1-.23.24l-.06-.09c.09.15-.09,0,.09.22L22.3,9c.17.36-.21-.07-.14.19l0-.06c0,.06,0,.11,0,.07l0,0c-.22-.18-.11.12-.18.15l-.07-.11c.06.15-.08.07-.08.16l0-.05,0,.08-.07-.1C21.6,9.3,21.62,9.43,21.57,9.48Z" transform="translate(0 -0.26)"/><path d="M21.13,10h0Z" transform="translate(0 -0.26)"/><path d="M26.23,5.87l0,0Z" transform="translate(0 -0.26)"/><polygon points="30.17 6.51 30.12 6.51 30.14 6.63 30.17 6.51"/><path d="M29.95,7.31l.07,0,0-.43C29.81,6.89,30.09,7.32,29.95,7.31Z" transform="translate(0 -0.26)"/><path d="M29.86,7.35c-.14,0-.08.17-.06.22C29.75,7.47,30,7.44,29.86,7.35Z" transform="translate(0 -0.26)"/><path d="M27.18,10.46l0,0S27.19,10.47,27.18,10.46Z" transform="translate(0 -0.26)"/><path d="M28.69,7.94l-.07-.09c-.19.53-.74.87-1,1.36V9.16a35.69,35.69,0,0,0-2.26,3l-.07-.07.33-.37s0,.05,0,.08,0-.18.09-.23,0,.05,0,.08c.34-.08.55-.71.79-.74,0-.07,0-.15-.05-.16.77-.82,1.6-1.7,2.31-2.6.06,0,.1,0,.13.06a4,4,0,0,1,.24-.39l.63-.89,0,1.21a1.54,1.54,0,0,1-.57,1.22l-.62-.73c.35-.35.74-.66,1.12-1,0-.08-.13,0-.12-.11-.29.15-.28.54-.59.63L29,8c-.18.11.1.17-.12.25s0-.09-.08-.06l-.26.27.78.92a1.38,1.38,0,0,0,.55-1.2.19.19,0,0,0,.07-.1l.4-1L29,7.68c-.15.06-.29.33-.48.33,0,.13-.13.2-.09.31-1.19,1.05-2.22,2.3-3.38,3.43l0,.08.55.53c.29-.74,1.11-1.18,1.6-1.92l0,0a3.23,3.23,0,0,1,.64-.87l.09-.31A19.74,19.74,0,0,0,29.35,7.8l-.5-.44a22.53,22.53,0,0,1-3.26,2.79c-.55.38-1.09.71-1.63,1l.61.69a11.9,11.9,0,0,0,2.32-3.6l1-2.49-1.59,2c-.16.2-.32.41-.47.63,0,0,0,0,0-.08-.44.53-1,.89-1.38,1.39l0,0c-.85,1.18-2.1,2.11-3,3.2l.25.24c.11-.14.21-.27.3-.41a25.47,25.47,0,0,0,3.59-4.57l.15-.24-.19.21-.12.13,0,0a41,41,0,0,1-3.56,3.05A17,17,0,0,0,20,12.81l.13.14A12.12,12.12,0,0,1,21.84,11c.75-.41,1.2-1.42,1.82-2l.15.15a1.92,1.92,0,0,1-.49.34,14.81,14.81,0,0,0-4.14,4.1l-.13.1-.15-.18a3.53,3.53,0,0,0,1.19-2.2,3.69,3.69,0,0,1,1.42-2.18c.46-.78,1.53-.88,2.3-1.33l-.06-.06c.39.07.53-.62.86-.37l0,0c.23.1.21-.55.4-.39V6.91c.19-.1.06.08.23.06s0-.16.1-.16c.15.33.46-.26.62.12-.11,0,.22.08,0,.25.08,0,.41-.13.32-.28s0-.38-.21-.44V6.6c-.11-.1-.07,0-.13-.13-.27.08-.38-.09-.6-.09h0c-.07.2-.29.18-.4.2l-.07-.05c-.12-.12-.19.4-.21.12-.52.28-1.14.56-1.72.9,0,.13-.45.26-.22.35-.26-.11-.71.14-.86.27s0,0,0-.06c-.48,0-.17.47-.66.46.13.2-.52.42-.41.77a.16.16,0,0,1-.14-.06,6.43,6.43,0,0,0-1,1.63c.05.49-.42.92-.28,1.32a5.58,5.58,0,0,0-.6.77v0c0,.05-.1.09-.15.14l.76.91a2.66,2.66,0,0,0,.65-.91c.3.11.41-.07.62-.14.14-.31.62-.72.89-1.14.14,0,.25-.31.4-.19A8.55,8.55,0,0,1,24,9.4l-.63-.67c-.36.3-.74.59-1.11.85v0c-.06.21,0,.53-.08.77,0,0,0,0,0-.05-.16.21-.47.26-.62.47,0,0,0,0,0-.08-.11.24-.47.26-.57.57l0,0-.08.18s-.11-.12,0-.17c-.43.41-.84.85-1.25,1.31l.72.79c1.33-1.06,2.55-2.29,3.85-3.42l0,.1.26-.38a.08.08,0,0,1,0,.08,9.92,9.92,0,0,0,1.22-1.23s0,.13.08.1a.6.6,0,0,1,.06-.12l-.61-.5c-.14.31-.5.33-.34.66,0,0-.1,0-.1-.08a13.17,13.17,0,0,1-2.08,2.74A5.73,5.73,0,0,1,21.4,12.9l.28.27a4.14,4.14,0,0,0,.59-.75l0,0a29.2,29.2,0,0,1,2.82-2.84c.41-.37.63-.69,1-1.09l.07,0a2,2,0,0,1,.35-.48l-.07-.06c-.36.7-1,1.22-1.26,2L25.18,10c.06.22-.39.45-.12.57l-.17.09c-.05.47-.37.69-.69,1h0a1.65,1.65,0,0,0,.7-.49v.09a1.23,1.23,0,0,1,.5-.39s0,0,0,.08c.72-.17,1.15-.88,1.7-1.33l0,.15c.17-.34.75-.65,1-1l0,.06.11-.22.09.09a8.4,8.4,0,0,0,.81-.92L29,7.53C28.9,7.67,28.8,7.81,28.69,7.94Z" transform="translate(0 -0.26)"/><path d="M25.67,11.61h0S25.67,11.63,25.67,11.61Z" transform="translate(0 -0.26)"/><path d="M25.23,6.39h.08S25.26,6.39,25.23,6.39Z" transform="translate(0 -0.26)"/><polygon points="16.63 14.23 16.66 14.25 16.6 14.17 16.63 14.23"/><path d="M16.52,14.28l0,0,.18.24C16.77,14.58,16.43,14.21,16.52,14.28Z" transform="translate(0 -0.26)"/><path d="M16.54,14.3c.06,0,0-.06-.07-.1S16.44,14.19,16.54,14.3Z" transform="translate(0 -0.26)"/><path d="M17.31,13.47h0S17.32,13.48,17.31,13.47Z" transform="translate(0 -0.26)"/><path d="M17.2,12.93l-.07-.08c.1.18-.09.08-.07.18l0,0c-.14.07-.11.3-.15.46l0,0s.06.09.05.09l0,0c-.15-.11,0,.15-.1.06a.5.5,0,0,0,.1.12.73.73,0,0,0-.1.41l-.1-.1c.13.28,0,.27-.13.3a1.48,1.48,0,0,1,.11.12c.09,0-.09-.18,0-.1l0,.06s-.13-.14,0-.09a.78.78,0,0,1,.07.07c0-.05.09,0,0-.2.12.11,0,0,.16.07a.54.54,0,0,0-.09-.13c.18,0,.19-.28.31-.38-.16-.28.16-.07.16-.21l0,0c0-.08,0-.13,0-.13l-.07-.12c.34.05.37-.24.61-.3s.55-.09.43-.56l0,0c0-.09.13-.05.13-.15l0,0c-.06-.3.27-.21.19-.52a1.19,1.19,0,0,0,.38-.48l0,0c0-.21.37-.07.42-.25.22,0,0-.5.25-.47s-.07-.42.22-.25c.48.21.4-.14.35-.49.25,0,.08-.45.45-.31-.09-.22.32.08.34,0l-.06-.05c.19.15-.17-.29.08-.05h0c.14.12-.26-.33-.11-.19L21,9.17s.07.07.11.08-.11-.12-.06-.09c.25.26,0-.09.26.2,0,0,.12.1.16.18s0,0-.07-.14a3,3,0,0,0-.34-.35l.09.1L21,9s-.17-.13-.24-.17h0c.1.13,0,.07,0,.06l-.05-.05c-.11-.11.18.24,0,0a.23.23,0,0,1-.09.18c.06.08,0,0,.1.16-.16-.15-.24-.16-.25-.14l0,0c-.22-.18.15.22-.11,0,.17.18-.1,0,.09.21l-.11-.11s-.16,0-.2,0c.12.19-.14,0,0,.24-.07,0-.19-.08-.14,0l0,0s-.06.1.05.26a.74.74,0,0,0-.26-.2c.07.12,0,.13,0,.26-.1-.09,0,.07-.12-.07.16.36-.05.39-.35.28h0l.28.39,0,0s-.14-.08-.14,0l0,0c0,.08-.14-.08-.06.05l0,0,0,.06s-.11-.12-.09-.11c-.21.11-.15.51-.36.64l0,0L19,11l0,0c-.12,0,0,.13-.1.15a.67.67,0,0,0-.09-.09c.09.16-.2-.12,0,.16L18.7,11a.27.27,0,0,1-.22.28c.15.3-.13.16,0,.42l0,0c.06.26-.21.17-.27.3s0,.1-.07.14L18,12.07c.14.29-.34-.06-.18.25l-.07-.09c.11.14-.09,0,.12.21l-.07-.05c.22.33-.21,0-.1.19l0-.05c0,.05,0,.1,0,.07l0,0c-.24-.15-.09.12-.15.16l-.08-.1c.08.13-.07.08-.05.16l0,0,0,.08-.08-.09S17.23,12.88,17.2,12.93Z" transform="translate(0 -0.26)"/><path d="M16.85,13.45h0Z" transform="translate(0 -0.26)"/><path d="M20.78,8.86h0Z" transform="translate(0 -0.26)"/><polygon points="19.61 12.26 19.65 12.26 19.55 12.24 19.61 12.26"/><path d="M19.39,12.44h-.07l.29.08C19.78,12.52,19.28,12.42,19.39,12.44Z" transform="translate(0 -0.26)"/><path d="M19.42,12.43c.07,0-.07,0-.11,0C19.42,12.42,19.28,12.41,19.42,12.43Z" transform="translate(0 -0.26)"/><path d="M19.67,11.53h0Z" transform="translate(0 -0.26)"/><path d="M19.39,11.07,19.29,11c.15.14-.06.1,0,.19l0,0c-.11.11,0,.31,0,.46l-.05,0s.1.06.08.06l-.06,0c-.18,0,.07.12-.06.08l.14.06a.52.52,0,0,0,.11.36l-.13,0c.26.16.13.2.07.28l.16,0c.1,0-.18-.08,0-.08l.07,0c.05,0-.18,0-.09,0l.1,0s.05-.06-.12-.14c.16,0,0,0,.17,0a.74.74,0,0,0-.14-.07c.12-.09,0-.27.09-.4-.26-.19.12-.11.06-.22h0c-.06-.06-.07-.11,0-.12l-.11-.09c.33,0,.27-.3.47-.41s.49-.18.28-.6l0,0c0-.09.11-.07.09-.16l0,0c-.13-.28.21-.24.07-.52a1.1,1.1,0,0,0,.27-.51l0,0c0-.2.34-.12.35-.3.21,0-.09-.47.16-.48s-.14-.4.17-.27c.49.16.36-.18.26-.51.24,0,0-.44.39-.34-.12-.21.32.05.33-.05l-.06,0c.2.13-.2-.27.07-.05h0c.15.1-.29-.31-.12-.17L22.36,7s.08.06.11.08-.12-.11-.07-.08c.27.24,0-.09.28.18,0,0,.13.09.18.17s0,0-.09-.13a3.21,3.21,0,0,0-.37-.32l.1.09-.13-.1s-.18-.12-.25-.15h0c.11.12,0,.07,0,.06l-.06,0c-.12-.1.21.22,0,0a.22.22,0,0,1-.07.18c.07.07,0,0,.12.15-.18-.13-.25-.13-.26-.12l0,0c-.24-.16.18.2-.11,0,.19.17-.1,0,.11.2L21.74,7s-.15,0-.19.06c.14.17-.14,0,.07.23-.07,0-.19-.06-.13,0l0,0s0,.1.09.25a.76.76,0,0,0-.28-.16c.08.11,0,.13.08.24-.11-.08,0,.07-.13-.05.21.34,0,.38-.3.31h0l.34.34,0,0s-.15-.06-.14,0l0,0c.05.07-.15-.06-.05.06l0,0,0,.06s-.12-.1-.1-.09c-.19.13-.06.52-.23.66l0,0,.06.1,0,0c-.12,0,0,.13-.06.16l-.1-.08c.12.14-.22-.08.06.15L20.39,9a.25.25,0,0,1-.16.3c.21.27-.09.18.06.41l-.05,0c.11.23-.16.2-.2.33s0,.1,0,.15l-.07,0c.2.25-.34,0-.11.27l-.09-.07c.13.11-.08,0,.16.17l-.08,0c.29.27-.21,0,0,.2l-.06,0s.06.09,0,.07l0,0c-.27-.1-.05.13-.1.18l-.11-.08c.11.11,0,.09,0,.16l-.05,0,.06.06-.11-.06S19.4,11,19.39,11.07Z" transform="translate(0 -0.26)"/><path d="M19.25,11.65h0Z" transform="translate(0 -0.26)"/><path d="M22.09,6.66h0Z" transform="translate(0 -0.26)"/><path class="cls-1" d="M19,22.41" transform="translate(0 -0.26)"/><polygon points="28.25 2.52 28.25 2.48 28.18 2.56 28.25 2.52"/><path d="M27.95,2.9l0,.07.24-.22C28.19,2.57,27.94,3,27.95,2.9Z" transform="translate(0 -0.26)"/><path d="M27.93,2.85c0-.08-.09,0-.13.07S27.87,3,27.93,2.85Z" transform="translate(0 -0.26)"/><path d="M23.61,3.76v0S23.61,3.75,23.61,3.76Z" transform="translate(0 -0.26)"/><path d="M22.94,4.5h-.11a.41.41,0,0,1,.12.19l0,.15.11-.1c.12-.11.31-.15.41-.29v0A7.85,7.85,0,0,0,24.78,3.3s0,0,0,.06,0-.12,0-.13a.07.07,0,0,1,0,.06c.21.08.22-.31.37-.24s0-.11-.06-.14a6.42,6.42,0,0,1,.58-.49.9.9,0,0,1,.48-.15,3.15,3.15,0,0,1,.48.06.19.19,0,0,1,0,.13,1.52,1.52,0,0,1,1.16.39c0-.06,0-.09.07-.15s-.3.08-.35-.1l0-.06c-.06-.08-.09.17-.14,0s0-.08,0-.1c-.18,0-.33-.19-.56-.09,0-.17-.18-.09-.17-.26-.07,0-.12,0-.19.09a1,1,0,0,0-.79-.06,1.36,1.36,0,0,0-.34.19l-.2.16a9.77,9.77,0,0,1-.76.63c-.06.44-.58.35-.82.65l0,0a.57.57,0,0,1-.31.32l0,.18a2.94,2.94,0,0,0-.42.18l.46.16A1.84,1.84,0,0,1,23.91,3c.62-.5,1.44-.2,2.39-.64,0,0,0,0,0,.06.27-.06.51.06.77,0v0c.66-.22,1.3.17,2,0a9.83,9.83,0,0,1,1,.3.88.88,0,0,1,.62.77.66.66,0,0,1,0,.17l-.06,0c-.05.29-.37.45-.64.56l.17.06a2.35,2.35,0,0,0-.36-.94A1.41,1.41,0,0,0,29,2.57a8.45,8.45,0,0,1-.92-.46c-.32-.45-1,.11-1.32-.25a1.73,1.73,0,0,0-2.28.28,1.27,1.27,0,0,0-.82.61c-.19.29-.3.55-.51.87.1.17,0,.31,0,.51a.65.65,0,0,0,.12.59l.05-.06c-.08.29.44,0,.27.3h0c0,.2.37-.25.29-.06l0-.07c.08,0,0,.09,0,.15s.07-.15.09-.08c-.1.35.2,0,.13.37-.06,0,.08.17-.08.23,0,.05.25,0,.23-.13s.07-.34,0-.48l0,.13a.67.67,0,0,1,0-.17c-.09,0-.06-.23-.08-.31h0c-.07.14-.1,0-.1,0l0-.07c.07-.14-.22.23-.06,0a.54.54,0,0,1-.37-.32c-.11,0,0-.14-.21,0,.18-.13.21-.26.19-.3h0c.27-.1-.28-.09.07-.17-.25,0,.09-.1-.18-.22l.15,0c0-.15.21-.25.3-.34-.09-.24.25-.13.15-.43.12,0,.3,0,.36-.14v0a.68.68,0,0,0,.35-.37c.12.27.17.2.25.27.08-.15.3-.14.46-.27,0,.13.14-.06.15.13a1.34,1.34,0,0,1,1.64.22h0c.09-.09.22-.3.33-.41s0,0,0,0,.14.2.24.2a.1.1,0,0,1,0,.05c.12,0,.11.21.26.11l0,0,.09,0c0,.06-.08.14-.1.11a3.51,3.51,0,0,1,.85.63,3.34,3.34,0,0,1,.67,1.07l.14.35.34-.2.11-.06v.07l.11-.2a.1.1,0,0,1,0,.06c.28-.06.41-.41.55-.7,0,0,.07.08.12,0a.33.33,0,0,1,0-.25c.06-.11.13-.24-.12-.29a.15.15,0,0,1,.13,0,2.05,2.05,0,0,0-1.36-1.13c-.47.21-.83-.17-1.29,0V2.1c-.55.14-1.08-.17-1.63-.15a3.13,3.13,0,0,0-.61,0V1.91c-.37.31-.82-.26-1.21.12l0-.11c0,.18-.26,0-.19.26l-.08-.08c-.16.42-.55-.06-.75.35l0-.07c-.05.09-.1.19-.2.17s0,0,0-.05c-.42,0-.43.45-.56.69l-.1-.09c.06.2-.18.39-.16.6l-.06,0,.06.12-.12,0A1.68,1.68,0,0,0,22.94,4.5Z" transform="translate(0 -0.26)"/><path d="M24.83,3.29h0S24.83,3.29,24.83,3.29Z" transform="translate(0 -0.26)"/><path d="M24.22,4.51v0S24.22,4.52,24.22,4.51Z" transform="translate(0 -0.26)"/><polygon points="25.06 3.66 25.06 3.67 25.06 3.67 25.06 3.66"/><path d="M25.07,3.9h0a.07.07,0,0,0,0,0Z" transform="translate(0 -0.26)"/><path d="M25.08,3.89h0Z" transform="translate(0 -0.26)"/><path d="M26.13,3.73h0S26.13,3.74,26.13,3.73Z" transform="translate(0 -0.26)"/><path d="M26.4,3.23V3.11c-.06.2-.15,0-.21.1v0c-.19,0-.32.2-.45.33V3.45s0,.11,0,.1a.2.2,0,0,1,0-.06c-.1-.16-.06.15-.13,0a.44.44,0,0,0,.05.15.55.55,0,0,0-.22.37l-.08-.11a.59.59,0,0,1,0,.17.14.14,0,0,1,0,0h0l0-.06a.63.63,0,0,0-.19-.17h-.06c.09,0,0,0,.08,0h0l0,0h0l.11.11.09.11.06.07h0a.23.23,0,0,0,0-.14c.1.13,0,0,.14.1a.67.67,0,0,0-.06-.15c.17,0,.24-.21.4-.25,0-.33.18,0,.24-.11v0c0-.08.05-.13.1-.09V3.5c.25.25.45.07.67.22s.47.42.85,0c0,0,0,0,0,.06s.17.07.27,0v0c.18-.22.4-.07.56-.25l.32-.36h-.28l-.12,0a1.11,1.11,0,0,0-.7-.2l0-.06c-.21.08-.34-.28-.56-.21-.21-.16-.42.34-.61.17s-.22.39-.38.1c-.36-.41-.58,0-.54.39-.13,0-.16.13-.16.22s0,.17-.21.22c.2.11-.31.17-.23.33h.08c-.23.09.34,0,0,.13h0c-.16.08.41-.08.22,0l.08,0s-.09,0-.12.07.15-.06.11,0c-.32.16.09,0-.26.21,0,0-.12.11-.22.11s0,.08.17,0a2.86,2.86,0,0,0,.4-.27l-.11.07.14-.09s.17-.12.24-.16h0c-.14.06-.06,0,0,0l.07,0c.15-.05-.29.09,0,0-.07,0-.07,0-.08-.06s0,0-.19,0c.22,0,.28,0,.27,0h0c.28,0-.26-.07.09,0-.24-.06.08,0-.19-.09l.14,0S26,4,26,4c-.17-.13.1,0-.13-.17.06,0,.16.1.1,0l0,0s0-.06-.06-.23a1.67,1.67,0,0,0,.21.25c-.05-.12,0-.11,0-.24.06.12,0-.07.09.11,0-.39.2-.32.36-.06h0V3.22a.24.24,0,0,1,0,0s.07.15.1.11a.31.31,0,0,1,0,.06c0-.09.06.15.08,0v0c0,.06,0,.16,0,.14.21,0,.47-.27.71-.17l0,.06.07-.1,0,.06c0,.12.14,0,.19,0a.64.64,0,0,0,0,.12c.09-.15,0,.24.13-.1a.85.85,0,0,1,0,.12.27.27,0,0,1,.36.08c.18-.19.21,0,.31,0l0-.34a.22.22,0,0,0,0,.13l0-.06c-.09.26-.29,0-.43.07s-.11,0-.18,0V3.35c-.16.29-.18-.31-.35,0l0-.11c-.05.16-.06-.07-.11.22V3.37c-.16.36-.11-.2-.25,0l0-.07s-.07.08-.08,0l0,0c0-.29-.18,0-.26,0l0-.13c-.06.15-.12,0-.19.06V3.15l0,.08V3.11C26.54,3.1,26.47,3.21,26.4,3.23Z" transform="translate(0 -0.26)"/><path d="M25.72,3.5h0Z" transform="translate(0 -0.26)"/><path d="M25.84,4.2h0Z" transform="translate(0 -0.26)"/><polygon points="23.53 5.16 23.52 5.2 23.59 5.12 23.53 5.16"/><path d="M23.8,5.3l0-.07-.23.22C23.56,5.62,23.82,5.18,23.8,5.3Z" transform="translate(0 -0.26)"/><path d="M23.81,5.34c0,.05,0,0,.07,0l1-1.25-.57.55,0,0,0,0-.41.66S23.86,5.23,23.81,5.34Z" transform="translate(0 -0.26)"/><path d="M24.4,2.07h0S24.4,2.08,24.4,2.07Z" transform="translate(0 -0.26)"/><path d="M24.9,1.2l0-.11c-.09.25-.36.17-.48.35v0a1.65,1.65,0,0,0-.73,1.19l0,0s.08.08.06.1a.08.08,0,0,1-.05,0c-.21,0,0,.3-.12.32,0,0,.08.06.15.06a1.26,1.26,0,0,0,.26,1,.29.29,0,0,1-.13.06c.36.16.37.36.54.57.06-.06,0-.08.1-.13s-.23.05-.17-.1l.06,0c0-.06-.15.12-.11,0s.08-.06.08-.07-.07-.17-.28-.19c.14-.08,0-.11.1-.2-.07,0-.06,0-.17,0A2.44,2.44,0,0,1,24,2.62c-.18-.35.29-.35.39-.58l0,0a.27.27,0,0,1,.19-.25V1.66a5.32,5.32,0,0,1,1.89-.27c.74.13,1.22.54,2.08.48,0,0,0,0,0,0,.22,0,.35.23.56.27l0,0a1.09,1.09,0,0,1,.48.15l.91.49L29.86,2a1.44,1.44,0,0,0-.9-.73A3.37,3.37,0,0,0,27.08.68V.62c-.53,0-1-.31-1.56-.19-.58-.12-1.07.46-1.61.44-.45-.18-.56.62-1,.51-.83,0-1.16.76-1.21,1.42a1.27,1.27,0,0,0-.33.78,2.36,2.36,0,0,1-.2.81c.13.11.09.24.07.41a.49.49,0,0,0,.15.48l0-.07c0,.28.38-.12.26.21h0c0,.2.29-.33.24-.12l0-.08c.06,0,0,.1,0,.14s0-.15.07-.1c0,.36.15-.06.15.34-.05,0,.09.16,0,.24,0,0,.22,0,.17-.16a1,1,0,0,0-.09-.47v.13a.78.78,0,0,1,0-.16c-.07,0-.07-.21-.08-.29h0c0,.16-.06.05-.07,0l0-.07c0-.15-.15.27,0,0a.34.34,0,0,1-.31-.17c-.09,0-.05-.09-.2,0,.17-.15.18-.25.17-.27h0c.26-.13-.28,0,.05-.15-.25,0,.07-.11-.22-.15h.15c0-.13.12-.26.16-.37-.18-.17.17-.21-.06-.41.1-.05.26-.12.22-.28l0,0a.49.49,0,0,0,0-.46c.26.13.25.06.35.07-.05-.15.09-.26.1-.45.11.08,0-.12.18,0a.79.79,0,0,1,1-.67h0c0-.12,0-.36,0-.51,0,0,0,0,0,0s.2.09.26,0a.12.12,0,0,1,0,.06c0-.11.19.1.23-.07l0,0,0-.08c0,.06,0,.15,0,.14A7,7,0,0,1,26.4,1l0,.06.15-.1a.14.14,0,0,1,0,.06c.17.12.37,0,.54,0,0,0,0,.09,0,.13.16-.15.15.26.29-.08a.29.29,0,0,1,0,.12,1.44,1.44,0,0,1,1,.29c.42-.15.54.28.93.29l0,0a.74.74,0,0,1,.46.4l.08-.08a2.71,2.71,0,0,0-.58-.4c-.15-.11-.3-.1-.47-.18l0-.08c-.4.15-.51-.53-.94-.31l.06-.1c-.1.15-.18-.12-.24.17l0-.1c-.3.32-.35-.27-.67-.07l0-.07c-.08,0-.16.08-.21,0s0,0,0,0c-.21-.3-.49,0-.72,0l0-.13c-.1.16-.33,0-.47.15V.94l-.06.1,0-.12A2.15,2.15,0,0,0,24.9,1.2Z" transform="translate(0 -0.26)"/><path d="M23.61,2.63h0Z" transform="translate(0 -0.26)"/><path d="M22.16,4.88v0S22.16,4.89,22.16,4.88Z" transform="translate(0 -0.26)"/><polygon points="28.74 5.43 28.76 5.46 28.77 5.36 28.74 5.43"/><path d="M28.86,5.44l0-.07,0,.3C28.86,5.84,28.82,5.33,28.86,5.44Z" transform="translate(0 -0.26)"/><path d="M28.89,5.47c0,.06,0-.08,0-.12C28.93,5.45,28.86,5.32,28.89,5.47Z" transform="translate(0 -0.26)"/><path d="M31.59,4.27a.06.06,0,0,0,0,0S31.6,4.27,31.59,4.27Z" transform="translate(0 -0.26)"/><path d="M31.18,3.45l-.1,0c.23,0,.08.2.16.3h0l0,.16a1.26,1.26,0,0,1-.45.6V4.49s0,.11,0,.11a.1.1,0,0,1,0-.06c-.14-.14-.15.19-.25.08a.22.22,0,0,0,0,.15,5.13,5.13,0,0,0-.75.49.3.3,0,0,1,0-.13c-.16.35-.46.29-.71.28,0,.08,0,.08,0,.16s.12-.21.22-.09v.08c.06,0,0-.19.05-.1s0,.1,0,.1.25,0,.31-.22c.07.15.12,0,.2.12,0-.07,0-.06,0-.17a3.43,3.43,0,0,0,1.12-.49c0-.19.11-.21.26-.26s.33-.12.37-.29l0,0a.69.69,0,0,1,0-.14.61.61,0,0,1,.06-.24l-.13-.11a.67.67,0,0,0,0-.51,1.3,1.3,0,0,0-.23-.4,4.77,4.77,0,0,1-.51-.61c-.34-.47-.59-1-1.33-1.07,0,0,0,0,0,0-.17-.05-.24-.23-.41-.27l0,0c-.46,0-.74-.45-1.2-.29A2.58,2.58,0,0,0,26.47.49V.42c-.36.15-.78-.11-1.15.09-.44,0-.65.59-1.07.57-.36-.18-.35.56-.69.38-.63-.2-.95.35-1,.87a.59.59,0,0,0-.3.5,1.17,1.17,0,0,1-.14.55c.13.06.09.16.06.3s0,.31.08.38l0-.06c-.07.25.33-.15.19.16h0c0,.19.26-.34.2-.14l0-.08s0,.1,0,.14,0-.15.05-.1c0,.36.11-.06.1.33,0,0,.06.15,0,.24s.17,0,.14-.16a1.43,1.43,0,0,0-.06-.48v.13a1,1,0,0,1,0-.16s0-.21,0-.29h0c0,.16,0,.06,0,0l0-.07c.05-.14-.12.28,0,0-.06,0-.13,0-.18-.07s0-.06-.18.06c.17-.15.2-.22.18-.23h0c.25-.13-.27,0,.05-.1-.24,0,.07-.07-.22-.06l.15,0c0-.08.1-.1.12-.13-.19-.13.13-.07-.1-.26.08,0,.22,0,.17-.12l0,0a.33.33,0,0,0,0-.34.52.52,0,0,0,.29.18c0-.14.09-.19.1-.34.09.1,0-.09.15.07,0-.47.47-.56.88-.44h0c0-.11-.07-.35-.09-.49,0,0,0,0,0,0s.17.09.21,0a.15.15,0,0,1,0,.06c0-.1.17.09.17-.07l0,0V1.39c0,.06.06.15,0,.14.47-.13.87-.61,1.4-.64V1l.08-.12a.19.19,0,0,1,0,.06c.14.09.25-.1.38-.08s0,.09,0,.13c.08-.18.15.22.19-.14a.41.41,0,0,1,0,.13.86.86,0,0,1,.75,0c.28-.28.44.07.73-.08l0,.06c.37-.1.55.28.83.41.09.09.21.08.32.16l0,.07c.37-.1.18.5.57.4L29.73,2c.14-.1.06.14.25-.08L30,2c.39-.17.08.33.4.29l-.06,0c.07,0,.15,0,.13.08l0,0c-.09.31.26.23.37.36l-.11.07c.17,0,.17.16.29.19l-.05,0,.1,0-.09.08C31,3.3,31.11,3.34,31.18,3.45Z" transform="translate(0 -0.26)"/><path d="M30.67,4.54h0S30.67,4.53,30.67,4.54Z" transform="translate(0 -0.26)"/><path d="M22.81,3.58v0S22.81,3.59,22.81,3.58Z" transform="translate(0 -0.26)"/><polygon points="28.92 3.51 28.92 3.47 28.88 3.57 28.92 3.51"/><path d="M28.74,4V4l.13-.28C28.85,3.59,28.75,4.09,28.74,4Z" transform="translate(0 -0.26)"/><path d="M28.72,3.94c0-.07-.06.06-.07.11C28.68,3.94,28.71,4.09,28.72,3.94Z" transform="translate(0 -0.26)"/><path d="M25.77,3.55h0Z" transform="translate(0 -0.26)"/><path d="M24.92,3.89l0,.11c.18-.16.31.06.48,0l0,0a3.6,3.6,0,0,0,1.16,0l0,.05s.06-.1.08-.09a.1.1,0,0,1,0,.06c.05.19.26-.08.28.07a.2.2,0,0,0,0-.15,3.3,3.3,0,0,0,1-.08.28.28,0,0,1,0,.14c.3-.25.56-.09.82,0,0-.08,0-.09,0-.16s-.18.17-.24,0l0-.07c0-.06,0,.19-.08.08s0-.09,0-.1-.24-.07-.38.09c0-.17-.13,0-.15-.19,0,.06-.07,0-.1.14a7.53,7.53,0,0,0-1.29-.14c-.25.28-.43-.13-.69-.06v0a.28.28,0,0,1-.3,0l-.1.12c-.52-.33-1.09-.31-1-.69a1.15,1.15,0,0,1,.29-.54A2.52,2.52,0,0,0,25,1.76s0,0,0,.06c.1-.15.29-.13.4-.27v0c.25-.43.77-.29,1.09-.64.49-.08,1-.14,1.58-.2V.81c.44-.12.81.26,1.24.22.4.2,1-.22,1.33.11.08.19.24.16.42.15s.37,0,.38.22a1.27,1.27,0,0,0,.32.7,3,3,0,0,1,.53.64,5.34,5.34,0,0,1-.2.78.63.63,0,0,1-.65.41c-.13.32-.54-.07-.73,0l0,.08c-.11-.22-.16.36-.25,0v0c-.05-.17-.09.43-.13.21v.09c-.06,0,0-.1-.05-.14s0,.16,0,.11c0-.36-.15.07-.13-.33,0,0,0-.16,0-.24s-.09,0-.11.14a1.13,1.13,0,0,0,0,.48l0-.13a1.2,1.2,0,0,1,0,.17c.08,0,.08.22.14.3a.05.05,0,0,1,0,0c.05-.16.11-.06.14,0l0,.07c0,.15.1-.31.08,0a5.58,5.58,0,0,1,.59-.15c0-.1.15,0,.06-.21.11.2.28.2.33.17s0,0,0,0c.22.22,0-.29.26,0-.1-.23.23,0,.13-.32a.43.43,0,0,1,.09.12A2.25,2.25,0,0,0,32.52,4c-.07-.25.33-.34.1-.6.1-.08.27-.27.16-.45l0,0c0-.19,0-.42-.25-.49.27-.1.2-.17.27-.27-.16-.08-.21-.31-.4-.39.1-.09-.11-.09,0-.2a2.31,2.31,0,0,1-1.16-1h0A3.31,3.31,0,0,0,31,1s0,0,0,0-.08-.2-.17-.19a.11.11,0,0,1,0-.05c-.09.06-.1-.19-.23-.08V.59l-.07.05c0-.06,0-.15.07-.13-.65-.24-1.32,0-1.95-.1l0-.06-.13.1a.15.15,0,0,1,0-.06c-.15-.12-.33,0-.48,0,0,0,0-.09,0-.13-.12.17-.18-.23-.25.13a.32.32,0,0,1,0-.13,2.49,2.49,0,0,1-1,.11c-.22.36-.57.13-.78.46l0-.06c-.27.32-.7.22-1,.46-.15.05-.19.18-.32.27l-.05-.06c0,.2-.16.23-.3.28s-.3.13-.24.35L24.1,2c.11.13-.15.11.11.25h-.1c.26.32-.32.24-.12.54l-.07,0c0,.07.08.13,0,.18l0,0a.21.21,0,0,0,0,.33c.08.1.2.15.26.23L24,3.54c.18,0,.24.2.4.2l0,.05.1,0,0,.11C24.58,3.94,24.77,3.87,24.92,3.89Z" transform="translate(0 -0.26)"/><path d="M26.54,4h0S26.54,4,26.54,4Z" transform="translate(0 -0.26)"/><path d="M30.27,4.82l0,0S30.26,4.82,30.27,4.82Z" transform="translate(0 -0.26)"/><polygon points="19.56 6.52 19.6 6.53 19.5 6.5 19.56 6.52"/><path d="M19.34,6.69h-.07l.29.08C19.73,6.78,19.23,6.68,19.34,6.69Z" transform="translate(0 -0.26)"/><path d="M19.37,6.69c.07,0-.07,0-.11,0C19.36,6.67,19.22,6.66,19.37,6.69Z" transform="translate(0 -0.26)"/><path d="M19.41,5.74h0Z" transform="translate(0 -0.26)"/><path d="M19,5.43l-.11,0c.19.08,0,.1.06.16h0c-.06.12.11.25.18.38H19l.1,0h-.06c-.19,0,.11.09,0,.09l.15,0a.66.66,0,0,0,.19.32h-.14c.29.12.16.2.09.29l.16,0c.1,0-.18-.09,0-.09h.07c.05,0-.19,0-.09,0h.1s0-.08-.13-.14c.16,0,0,0,.17,0a.6.6,0,0,0-.15,0c.1-.13,0-.28,0-.41-.31-.09.07-.13,0-.21h0c-.08,0-.11-.07-.06-.09l-.13,0c.3-.12.14-.31.3-.42s.37-.08.14-.46l0,0c0-.08.1,0,.08-.11l0,0c-.1-.27.19-.13.11-.42a1.09,1.09,0,0,0,.38-.32l0,.06c.07-.18.31.09.39,0,.16.1.16-.43.35-.27s.12-.39.26-.09.34.12.47-.19c.17.15.27-.31.46,0,.1-.23.13.29.16.27l0-.07c-.05.22.13-.23,0,.08h0c0,.08,0,0,0-.07s.08-.19,0-.08l0-.09s0,.11-.06.16l0-.11-.08.18s0,0-.06.14L22.34,4s0,0,0-.09l.16-.43-.06.16.08-.2a2.64,2.64,0,0,0,.17-.33v0c-.07.17,0,.06,0,0l0-.08c.06-.16-.14.3,0,0-.05,0-.11,0-.19,0s-.06,0-.08.17c0-.23,0-.29-.07-.29s0,0,0,0c0-.29-.07.26-.11-.09,0,.25-.1-.08-.1.22a1.25,1.25,0,0,1,0-.15c-.07,0-.12-.08-.17-.09,0,.22-.1-.09-.09.21,0-.06-.09-.18-.11-.06v0s-.09,0-.09.24a.82.82,0,0,0-.09-.31c0,.14-.07.1-.1.23,0-.13,0,.06-.06-.13-.06.39-.22.28-.41,0h0l0,.48a.31.31,0,0,1,0,0S21,3.25,21,3.29a.35.35,0,0,1,0-.06c0,.09-.08-.14-.07,0v0c0-.06,0-.16,0-.14-.23,0-.34.37-.55.4l0-.06v.12l0-.06c-.09-.08-.07.11-.13.11a.71.71,0,0,0-.05-.12c0,.17-.16-.17,0,.16L20,3.56a.26.26,0,0,1-.26.21c.11.32-.14.14-.05.4l0-.05c.06.25-.19.14-.24.27s0,.09,0,.14l-.06,0c.2.24-.34,0-.1.25l-.09-.06c.14.1-.08,0,.18.16l-.08,0c.32.22-.21,0,0,.19l-.06,0s.07.07,0,.06l0,0c-.28,0,0,.13,0,.18l-.12,0c.14.07,0,.09,0,.14l-.06,0,.08,0-.12,0C18.88,5.31,19,5.38,19,5.43Z" transform="translate(0 -0.26)"/><path d="M19.05,5.95h0Z" transform="translate(0 -0.26)"/><path d="M22.73,3.08v0Z" transform="translate(0 -0.26)"/><polygon points="20.25 4.94 20.25 4.94 20.25 4.94 20.25 4.94"/><path d="M20.22,5.29l0,.07.05-.16Z" transform="translate(0 -0.26)"/><path d="M20.23,5.26l0,.11Z" transform="translate(0 -0.26)"/><path d="M20.1,5.2h0Z" transform="translate(0 -0.26)"/><path d="M19.61,5.21l-.11,0c.2,0,0,.06.1.08h0c0,.09.18.1.29.1l-.05,0,.09,0-.05,0c-.15.11.12,0,0,.05L20,5.4a.23.23,0,0,0,.21-.1l-.08.11c.19-.23.1-.14.1-.09l0-.1h0l0,0,0-.06,0,0c.06-.06-.07,0-.08,0-.29.13,0-.06-.06,0h0c-.08,0-.12,0-.08,0l-.13,0c.25-.13.06-.15.18-.22s.3,0-.05-.22l.05,0s.06,0,0-.06l0,0c-.18-.2.09-.07-.08-.3a.33.33,0,0,0,.15-.24l0,.05c0-.15.23.09.23,0,.13.09,0-.39.12-.26s-.05-.37.13-.1.19.22.22.16l.27-.63-.37.2c-.09,0-.12.23-.06.38-.07-.06-.06,0,0,.07s0,.06-.14,0c.21.09-.29,0-.24.1h.08c-.24,0,.33,0,0,.06h0c-.18,0,.42,0,.21,0l.09,0-.13,0,.11,0c-.35.09.08,0-.31.12a1.35,1.35,0,0,1-.23.07s0,.06.15,0l.45-.18-.12,0,.16-.06,0,0h0l.1,0h0l0,0h0l0,0h0v0h0l-.23-.79s0,0,0-.07c.09.37,0,.28-.23.06h0l.18.44,0,0s-.09-.13-.09-.09l0-.06c0,.08-.09-.13,0,0l0,0,0,.07c0-.06-.07-.14-.06-.13-.14,0-.09.35-.22.38l0-.05,0,.1,0-.05C19.95,3.8,20,4,20,4l-.08-.1c.09.15-.17-.16,0,.14l-.08-.1c0,.14,0,.17-.12.18.19.27-.06.11.1.32l0,0c.13.19-.1.1-.1.19s0,.07,0,.1l-.07,0c.26.16-.3,0,0,.17l-.11,0c.16.06-.07,0,.22.09h-.09c.37.11-.19,0,.05.11h-.07c.05,0,.09,0,0,0h0c-.28,0,0,.08,0,.11h-.13c.15,0,0,.05.08.08h-.1S19.59,5.18,19.61,5.21Z" transform="translate(0 -0.26)"/><path d="M19.84,5.43h0Z" transform="translate(0 -0.26)"/><path d="M20.79,4.21h0Z" transform="translate(0 -0.26)"/><polygon points="32.87 6.05 32.9 6.07 32.82 6 32.87 6.05"/><path d="M32.7,6.14l-.05,0,.22.2C33,6.4,32.61,6.08,32.7,6.14Z" transform="translate(0 -0.26)"/><path d="M32.73,6.16c.06,0,0-.05-.09-.08S32.61,6.06,32.73,6.16Z" transform="translate(0 -0.26)"/><path d="M33,5.67h0Z" transform="translate(0 -0.26)"/><path d="M32.65,5.32l-.1,0c.17.11,0,0,0,.1l0,0c-.06,0,.07.17.1.28l0,0,.08.07-.05,0c-.16-.09.07.1,0,0l.12.09a.49.49,0,0,0,.08.27l-.11-.08c.21.22.08.19,0,.19l.13.1c.09.05-.13-.14,0-.06l.06,0s-.15-.12-.06-.07l.08.06s.06,0-.07-.14c.13.1,0,0,.15.08A1,1,0,0,0,32.84,6c.12,0,0-.17.09-.23-.24-.21.1,0,0-.14l0,0c-.06-.05-.08-.09,0-.09l-.11-.08c.3,0,.17-.17.31-.25s.36-.33-.07-.44h.06c-.07,0,0-.09,0-.12h0c-.27,0,0-.23-.32-.17a.22.22,0,0,0-.25-.16l0,0h0c-.11,0,0-.25-.16-.2-.06-.17-.25.31-.28.12s-.13.34-.15,0c-.07-.49-.2-.17-.25.12-.1-.16-.1.28-.24,0,0,.23-.13-.26-.17-.18l0,.08c-.08-.22.05.33,0,0v0c-.06-.17.1.41,0,.21l0,.08s0-.1,0-.13,0,.15,0,.11c-.11-.34,0,.08-.12-.31,0,0-.06-.15-.07-.23s0,0,0,.15.1.33.15.46l0-.13.05.16s.07.2.1.27h0c0-.15,0-.07,0,0l0,.07c0,.15-.07-.29,0,0,0-.07,0-.07,0-.08s0,0,0-.18c.06.21.08.27.09.26v0c.07.28,0-.26,0,.08,0-.24,0,.07,0-.21l0,.15s.05.09.07.1c0-.22,0,.09,0-.21,0,.06,0,.19,0,.06v0s0,0,0-.23a2.72,2.72,0,0,0,0,.32c0-.13,0-.1,0-.22,0,.13,0-.06,0,.14,0-.37.12-.24.13,0h0l.06-.47v0s0,.16,0,.12v.06c0-.08,0,.16,0,0v.05l0-.07a1,1,0,0,1,0,.14c0,.06.14-.25.19-.18l0,.05.07-.09,0,.05c0,.09,0,0,.06,0h0l-.08.1c.12-.14-.14.19.1-.1l-.09.1c.1-.08.12,0,.09,0,.29-.18.05,0,.3-.08l-.06,0c.23-.05,0,.1.07.13s.06,0,.06,0h-.08c.31,0-.28.07.06.11h-.11c.17,0-.06,0,.23,0h-.09c.38.08-.18,0,.06.1l-.07,0c.05,0,.09,0,0,0h0c-.27,0,0,.06,0,.09l-.12,0c.14.06,0,0,.05.08l-.06,0,.08,0-.11,0S32.64,5.29,32.65,5.32Z" transform="translate(0 -0.26)"/><path d="M32.63,5.62h0Z" transform="translate(0 -0.26)"/><path d="M31.49,4.86v0Z" transform="translate(0 -0.26)"/><polygon points="18.49 140.24 18.46 140.25 18.56 140.26 18.49 140.24"/><path d="M18.73,140.58h.07l-.3,0C18.33,140.56,18.84,140.56,18.73,140.58Z" transform="translate(0 -0.26)"/><path d="M18.7,140.59c-.07,0,.07,0,.12,0C18.71,140.61,18.85,140.58,18.7,140.59Z" transform="translate(0 -0.26)"/><path d="M19.35,140.65h0Z" transform="translate(0 -0.26)"/><path d="M18.78,140.4l-.11,0c.21,0,0,.16.15.21h0c0,.21.25.33.39.5h-.06s.11,0,.1,0h-.06c-.16.1.15.08,0,.15a.37.37,0,0,0,.15,0l.06.09-.44.07a.92.92,0,0,0-.2-.38h.14c-.3-.13-.18-.28-.14-.42a1.07,1.07,0,0,1-.16,0c-.1,0,.19.08.05.12h-.08s.19,0,.09,0a.56.56,0,0,1-.1,0c0,.06,0,.13.15.19-.16,0,0,.07-.16.09a.42.42,0,0,0,.16,0,.54.54,0,0,0,0,.33l.92-.15a1.19,1.19,0,0,1-.16-.3c-.33,0,0-.24-.15-.33h0c-.09,0-.14-.06-.12-.12H19.1c.18-.36-.09-.59-.06-.91s.13-.69-.36-.9h.06c-.09-.08,0-.19-.08-.26h0c-.31-.15-.08-.46-.4-.6a2.3,2.3,0,0,0-.27-.79h.06c-.18-.19.1-.47,0-.66.09-.25-.45-.38-.31-.65s-.41-.25-.12-.45c.42-.36.07-.56-.26-.78.13-.28-.35-.45,0-.75-.24-.08.24-.29.15-.4l-.08,0c.23-.08-.34-.05,0-.13h0c.17-.05-.42,0-.22,0h-.09s.1,0,.13,0-.16,0-.11,0c.36-.06-.09-.06.31-.12,0,0,.15,0,.24,0s0-.06-.16,0A2.21,2.21,0,0,0,17,133h.13l-.16,0s-.2.08-.28.12h0c.16,0,.07,0,.05.06l-.07,0c-.15,0,.31,0,0,0a.4.4,0,0,1,.11.25c.1,0,0,.07.19,0-.22.06-.26.13-.25.16h0c-.28.09.27,0-.07.12.25,0-.06.09.23.07l-.15,0c0,.08-.07.19-.07.26.22,0-.07.16.23.16-.06.05-.17.14,0,.18h0c0,.06.06.14.25.15a.56.56,0,0,0-.3.13c.14,0,.12.12.25.16-.13,0,.07,0-.12.08.4.12.32.37.08.63h.42s-.14.1-.09.13h-.06c.09,0-.14.1,0,.11h0c-.06,0-.16,0-.14,0,0,.33.4.58.42.9h-.06l.12,0H17.6c-.09.1.11.14.1.23a.48.48,0,0,0-.12,0c.18,0-.2.14.16.09l-.12,0a.49.49,0,0,1,.17.46c.35.06.1.27.38.35h-.06c.26.12.08.37.17.54s.08.11.11.19l-.08,0c.33,0-.2.34.17.38l-.11,0c.17,0,0,.1.24,0l-.08,0c.4,0-.13.21.15.25h-.07c.06,0,.11,0,.06.08h0c-.24.17.08.19.1.29l-.13,0c.16,0,0,.13.13.17h0l-.12,0C18.62,140.28,18.75,140.33,18.78,140.4Z" transform="translate(0 -0.26)"/><path d="M19.16,141.16h0Z" transform="translate(0 -0.26)"/><path d="M16.69,133.2h0S16.69,133.2,16.69,133.2Z" transform="translate(0 -0.26)"/><polygon points="20.14 133.29 20.1 133.31 20.21 133.34 20.14 133.29"/><path d="M20.38,133.77l.07,0-.31-.12C20,133.71,20.49,133.72,20.38,133.77Z" transform="translate(0 -0.26)"/><path d="M20.36,133.81c-.07.06.08.07.12.08C20.37,133.88,20.51,133.79,20.36,133.81Z" transform="translate(0 -0.26)"/><path d="M20.35,138.54v0S20.34,138.54,20.35,138.54Z" transform="translate(0 -0.26)"/><path d="M20.66,139.84l.11,0c-.16-.26.08-.5,0-.75l0,0a6.77,6.77,0,0,0-.06-1.85l.06,0s-.11-.07-.1-.1a.07.07,0,0,1,.06,0c.19-.12-.1-.39,0-.47a.14.14,0,0,0-.15,0,6.14,6.14,0,0,0-.21-1.49.19.19,0,0,1,.14,0,1.78,1.78,0,0,1-.19-1.28c-.08,0-.08,0-.16,0-.09.14.21.24.07.37h-.08c0,.09.19,0,.1.11s-.1,0-.1,0c0,.19,0,.39.17.57-.16,0,0,.21-.16.28.07,0,.05.1.16.12-.08.67.06,1.36,0,2.06.3.35-.11.71,0,1.1h0a.6.6,0,0,1,0,.46l.12.14a9,9,0,0,0-.47,1.95l.68,0a5.76,5.76,0,0,1,0-.75,6.83,6.83,0,0,0-.25-3s0,0,.06,0c-.07-.29,0-.56,0-.84h0c-.27-.69,0-1.43-.22-2.1l0-.34h-.22c.07.7.11,1.48.14,2.23h-.06c.09.7-.32,1.32-.33,2-.25.66.1,1.49-.24,2.15-.26.24-.13.62-.11.95l0,.52-.17-.53a.54.54,0,0,1,0-.49,2.91,2.91,0,0,0-.24-2.52c.13-.79-.35-1.56,0-2.33-.24-.35.24-.77.16-1.16l-.08,0c.23-.15-.35-.31,0-.41h0c.17-.08-.43-.17-.22-.22h-.09c0-.09.1,0,.13-.08s-.16,0-.11-.06c.36,0-.09-.23.32-.24,0,.05.15-.08.24,0s0-.19-.16-.17-.34-.07-.48,0l.13,0a.71.71,0,0,1-.16,0c0,.12-.2.14-.28.23h0c.16.06.07.14.05.19l-.07,0c-.15,0,.31.14,0,.1a3.51,3.51,0,0,1,.11.82c.1,0,0,.21.19.15a.36.36,0,0,0-.25.36s0,0,0,0c-.28.16.27.17-.07.32.25,0-.07.26.23.33a.34.34,0,0,1-.15,0c0,.25-.07.54-.07.75.23.17-.08.45.23.59-.06.13-.17.35,0,.53l0,0a.78.78,0,0,0,.25.59c-.28.08-.22.16-.31.26.14.13.11.41.25.61-.13,0,.06.17-.13.19a1.82,1.82,0,0,1,.18,1.56l-.9,3.41,1.94-3.35a3.41,3.41,0,0,1,.22-.33h0c-.09-.1-.29-.24-.41-.35s0,0,0,0,.2-.18.19-.3l.06,0c-.06-.12.2-.19.08-.34h.05l-.05-.09c.06,0,.16,0,.13.08a27.33,27.33,0,0,0,.28-3l.06,0-.09-.21.06,0c.14-.24,0-.52,0-.76,0,0,.09,0,.13,0-.17-.19.24-.29-.12-.39a.21.21,0,0,1,.13,0,6.67,6.67,0,0,1-.09-1.55.8.8,0,0,1-.18-.34l-.43,0c0,.32-.07.65.11,1H20c.22.57,0,1.16,0,1.74a4.29,4.29,0,0,0,.07.65H20c.32.4-.25.87.11,1.29l-.11,0c.17.06,0,.26.24.22l-.08.08c.4.27-.15.54.12.88l-.07,0c.06.09.11.2.05.27s0,0-.05,0c-.25.32.08.62.09.93l-.13,0a.23.23,0,0,1,.07.11l.26.78-.05-.77c0-.16.1-.34.08-.51l.06,0-.07-.11.12,0A6.34,6.34,0,0,0,20.66,139.84Z" transform="translate(0 -0.26)"/><path d="M20.79,137.24h0S20.79,137.24,20.79,137.24Z" transform="translate(0 -0.26)"/><path d="M18.46,134.17l0,0S18.46,134.16,18.46,134.17Z" transform="translate(0 -0.26)"/><path class="cls-1" d="M22.5,133.16" transform="translate(0 -0.26)"/><polygon points="22.59 142.08 22.63 142.06 22.52 142.07 22.59 142.08"/><path d="M22.35,142.31l-.07,0,.3,0C22.74,142.26,22.24,142.35,22.35,142.31Z" transform="translate(0 -0.26)"/><path d="M22.38,142.29c.06,0-.07,0-.12,0C22.37,142.27,22.23,142.33,22.38,142.29Z" transform="translate(0 -0.26)"/><path d="M22.08,140.83h0Z" transform="translate(0 -0.26)"/><path d="M21.57,140.49h-.11c.2.06,0,.16.1.23h0c0,.2.19.37.3.55h-.06s.11,0,.1,0H21.8c-.18.07.13.1,0,.15a.38.38,0,0,0,.15,0,1,1,0,0,0,.3.43l-.14,0c.32.08.23.23.2.37a1.12,1.12,0,0,1,.16,0c.09-.06-.2,0-.07-.11h.07s-.19,0-.1,0a.59.59,0,0,1,.1,0c0-.05,0-.13-.18-.15.16,0,0-.06.14-.11a.44.44,0,0,0-.16,0c.05-.22-.14-.41-.16-.63-.33-.06,0-.23-.09-.34h0c-.08,0-.13-.08-.09-.13l-.14,0c.25-.31,0-.58.13-.88s.28-.62-.14-.93h.06c-.06-.09.05-.18,0-.26h0c-.26-.22,0-.45-.23-.67a2.39,2.39,0,0,0,0-.82h.06c-.11-.23.24-.4.17-.63.17-.2-.3-.51-.07-.7s-.3-.38,0-.45c.53-.17.27-.48.06-.81.22-.2-.14-.56.27-.7-.19-.17.33-.15.31-.29l-.08,0c.24,0-.29-.2.06-.12h0c.18,0-.38-.18-.18-.13l-.08,0s.1,0,.14,0-.15-.05-.1-.05c.34.11-.05-.09.33,0,0,0,.16,0,.23.09s0,0-.13-.1a2.23,2.23,0,0,0-.46-.14l.12,0-.16,0s-.21,0-.3,0h0c.15.07,0,.06,0,.07l-.07,0c-.15,0,.27.13,0,0a.41.41,0,0,1,0,.27c.09,0,0,.06.16.1-.22,0-.29,0-.29,0l0,0c-.29,0,.24.13-.11.08.24.07-.1.06.18.16l-.15,0c0,.08-.14.14-.17.21.19.11-.13.12.15.24-.07,0-.21.06-.11.15h0c0,.07,0,.15.17.24a.56.56,0,0,0-.33,0c.12.07.06.15.17.25-.13,0,0,.07-.15,0,.33.26.15.46-.16.61h0l.46.16h0s-.16,0-.13.09l-.06,0c.08,0-.16,0,0,.11h-.05l.07,0c-.06,0-.16,0-.13,0-.11.31.17.68.09,1l-.06,0,.1.07h-.06c-.12.07.05.17,0,.24a.48.48,0,0,0-.13,0c.17.07-.23.07.12.13h-.13a.49.49,0,0,1,0,.49c.32.15,0,.29.27.44h-.07c.22.19,0,.37,0,.56s0,.13.05.21h-.08c.31.13-.27.28.07.41h-.11c.17,0-.06.08.23.07l-.09,0c.39.08-.18.17.08.28h-.07c.06,0,.1.06,0,.09h0c-.27.11,0,.2,0,.3h-.13c.15,0,0,.14.09.19h-.06l.09,0h-.12C21.43,140.34,21.55,140.41,21.57,140.49Z" transform="translate(0 -0.26)"/><path d="M21.8,141.29h0Z" transform="translate(0 -0.26)"/><path d="M21.9,133.08h0Z" transform="translate(0 -0.26)"/><polygon points="34.17 140.23 34.21 140.23 34.1 140.22 34.17 140.23"/><path d="M33.94,140.44h-.07l.3,0C34.33,140.46,33.83,140.45,33.94,140.44Z" transform="translate(0 -0.26)"/><path d="M34,140.43c.07,0-.07,0-.12,0C34,140.41,33.82,140.43,34,140.43Z" transform="translate(0 -0.26)"/><path d="M33.9,139.33h0Z" transform="translate(0 -0.26)"/><path d="M33.43,139h-.11c.2.05,0,.11.08.17h0c0,.14.14.28.23.42h-.06l.1,0h-.06c-.18,0,.12.09,0,.11h.15a.72.72,0,0,0,.23.35h-.14c.3.1.18.2.13.3h.16c.1,0-.19-.06,0-.09h.08s-.19,0-.09,0h.1s0-.09-.15-.13c.16,0,0,0,.16-.06a.55.55,0,0,0-.16,0c.09-.16-.07-.32-.06-.48-.32-.08.06-.17,0-.26h0c-.08,0-.12-.07-.08-.11l-.13,0c.28-.21.08-.42.2-.64s.31-.45-.11-.69h.06c-.06-.07.05-.13,0-.19h0c-.26-.16,0-.33-.25-.48a1.15,1.15,0,0,0-.08-.59h.06c-.13-.16.2-.31.1-.47.14-.16-.36-.33-.17-.5s-.35-.23,0-.33c.48-.2.17-.38-.12-.58.17-.18-.27-.36.08-.53-.22-.08.28-.17.21-.27h-.08c.24,0-.33-.07,0-.09h0c.18,0-.42,0-.21-.05h-.09s.1,0,.14,0-.16,0-.11,0c.36,0-.08-.05.33-.05a1.56,1.56,0,0,1,.24,0s0,0-.15,0a3.1,3.1,0,0,0-.48,0h0s-.21,0-.29.05h0c.16,0,.06,0,0,0h-.07c-.15,0,.3,0,0,0A.22.22,0,0,1,33,134c.1,0,0,0,.19,0-.22,0-.28.06-.27.08h0c-.29,0,.27,0-.09.07.25,0-.08.06.21.08H32.9c0,.06-.1.12-.11.17.22,0-.1.1.2.14-.06,0-.19.08-.07.12h0s0,.11.22.14a.75.75,0,0,0-.32.05c.13,0,.09.09.22.14-.13,0,.06,0-.14,0,.37.13.24.3,0,.44h0l.48.06h0s-.15.05-.12.08h-.06c.09,0-.15.05,0,.08H33l.07,0c-.06,0-.16,0-.14,0-.06.22.27.46.22.69H33.1l.11,0h-.06c-.11.06.07.12,0,.17h-.13c.17,0-.23.07.14.09h-.13a.26.26,0,0,1,.05.35c.33.1,0,.2.29.3h-.07c.23.13,0,.27,0,.4s.05.09.05.15h-.08c.31.09-.28.2.06.29h-.11c.17,0-.06.06.23.05l-.09,0c.39.07-.18.12.07.2h-.07c.05,0,.1,0,0,.06h0c-.28.07,0,.14,0,.21h-.13c.15,0,0,.1.08.14h-.06l.09,0h-.12C33.31,138.93,33.41,139,33.43,139Z" transform="translate(0 -0.26)"/><path d="M33.57,139.64h0Z" transform="translate(0 -0.26)"/><path d="M32.94,133.74h0Z" transform="translate(0 -0.26)"/><polygon points="34.73 140.21 34.77 140.21 34.66 140.2 34.73 140.21"/><path d="M34.5,140.42h-.07l.3,0C34.89,140.42,34.38,140.43,34.5,140.42Z" transform="translate(0 -0.26)"/><path d="M34.53,140.4c.07,0-.07,0-.12,0C34.52,140.38,34.38,140.41,34.53,140.4Z" transform="translate(0 -0.26)"/><path d="M34.43,139.1h0Z" transform="translate(0 -0.26)"/><path d="M34,138.75h-.11c.2.07,0,.14.08.21h0c0,.17.15.33.23.5h-.06s.11,0,.1,0H34.1c-.18,0,.12.1,0,.13h.15a.87.87,0,0,0,.24.41h-.14c.3.11.19.23.14.35a1.27,1.27,0,0,1,.16,0c.1,0-.19-.06-.05-.1h.08s-.19,0-.09,0h.1c0-.05,0-.11-.15-.15.16,0,0-.06.16-.08a.48.48,0,0,0-.16,0c.08-.19-.08-.37-.07-.57-.32-.09.06-.2,0-.3h0c-.08,0-.12-.08-.08-.13l-.13,0c.28-.25.08-.5.2-.76s.32-.53-.09-.82h.06c-.06-.08.06-.15,0-.23h0c-.25-.2.06-.39-.22-.59a1.68,1.68,0,0,0,0-.72h.06c-.12-.2.23-.35.15-.55.16-.18-.32-.43-.11-.61s-.32-.32,0-.4c.51-.17.23-.43,0-.71.2-.19-.21-.47.17-.62-.21-.13.31-.16.26-.28h-.08c.24,0-.31-.14,0-.11h0c.18,0-.41-.12-.2-.09l-.09,0s.1,0,.14,0-.16,0-.11,0c.36.06-.07-.07.33,0,0,0,.16,0,.24,0s0,0-.14-.07a2.58,2.58,0,0,0-.48-.08l.13,0-.17,0s-.21,0-.3,0h0c.15,0,.06.05,0,.06H34c-.15,0,.29.09,0,0a.31.31,0,0,1,0,.23c.1,0,0,.06.18.07-.22,0-.29,0-.28.05h0c-.29,0,.26.09-.1.07.24,0-.09.06.2.12l-.15,0c0,.07-.12.13-.14.19.21.08-.12.11.18.19-.07,0-.2.07-.09.13h0c0,.06,0,.13.2.2a.64.64,0,0,0-.33,0c.13.06.08.13.19.2-.13,0,.05.05-.14,0,.35.21.19.39-.1.53h0l.47.12h0s-.16,0-.13.08h-.06c.08,0-.16,0,0,.1h-.05l.07,0c-.06,0-.16,0-.14,0-.09.27.21.58.14.85l-.06,0,.1.06h-.06c-.11.06.06.15,0,.21h-.13c.17.06-.23.06.13.11h-.13a.37.37,0,0,1,0,.42c.32.14,0,.25.27.38h-.07c.22.17,0,.32,0,.48s0,.11,0,.18h-.08c.3.12-.29.23.05.36h-.11c.17,0-.06.07.23.07l-.09,0c.39.09-.18.14.07.24H34c.05,0,.1.06,0,.08h0c-.28.08,0,.17,0,.26h-.13c.15,0,0,.12.08.17h-.06l.09,0h-.12C33.83,138.62,33.94,138.69,34,138.75Z" transform="translate(0 -0.26)"/><path d="M34.1,139.47h0Z" transform="translate(0 -0.26)"/><path d="M34,132.34h0Z" transform="translate(0 -0.26)"/><polygon points="34.5 141.75 34.46 141.76 34.56 141.77 34.5 141.75"/><path d="M34.73,142.09h.07l-.3,0C34.34,142.07,34.84,142.07,34.73,142.09Z" transform="translate(0 -0.26)"/><path d="M34.7,142.11c-.07,0,.07,0,.12,0C34.71,142.13,34.85,142.1,34.7,142.11Z" transform="translate(0 -0.26)"/><path d="M35.56,141.16h0Z" transform="translate(0 -0.26)"/><path d="M35.09,140.73H35c.2.08,0,.17.08.26h0c0,.21.14.41.23.62h-.06s.11,0,.1,0h-.06c-.18,0,.12.13,0,.16a.35.35,0,0,0,.15,0,1.16,1.16,0,0,0,.24.5h-.14a.38.38,0,0,1,.17.13l-.91,0c-.06-.1,0-.21,0-.31a1,1,0,0,1-.16,0c-.1.05.19.08.05.13h-.08s.19,0,.09,0a.54.54,0,0,1-.1,0s0,.1,0,.14l1.14,0a.27.27,0,0,0-.11-.05c.16,0,0-.07.16-.1a.4.4,0,0,0-.16,0c.08-.23-.08-.46-.07-.7-.32-.11.06-.24,0-.37h0c-.08,0-.11-.11-.07-.16l-.13,0c.28-.31.09-.62.22-.93s.34-.65-.06-1h.06c-.06-.1.06-.19,0-.29h0c-.24-.25.07-.48-.18-.73a2.66,2.66,0,0,0,0-.88h.06c-.1-.25.26-.43.19-.67.18-.21-.28-.54-.05-.75s-.29-.4.05-.49c.53-.2.27-.52.05-.87.22-.23-.15-.58.25-.76-.19-.17.33-.19.3-.33h-.08c.24,0-.29-.19.05-.13h0c.18,0-.39-.16-.18-.12L36,133s.1,0,.14,0-.15,0-.1,0c.35.08-.06-.09.34,0,0,0,.16,0,.23.07s0-.06-.13-.09a2.09,2.09,0,0,0-.47-.11l.13,0-.16,0s-.22,0-.3,0h0c.15.06.05.06,0,.07h-.07c-.15,0,.28.12,0,0a.45.45,0,0,1,0,.29c.09,0,0,.07.17.09-.22,0-.29,0-.29.06h0c-.29,0,.25.12-.11.09.24.06-.1.07.18.16l-.15,0c0,.08-.13.16-.16.23.2.11-.13.13.15.25-.07,0-.21.08-.1.16h0c0,.07,0,.16.18.25a.54.54,0,0,0-.33,0c.12.07.07.16.17.25-.13,0,0,.07-.15,0,.33.27.15.49-.16.65h0l.45.17h0s-.16,0-.14.09l-.06,0c.08.05-.17,0,0,.12h-.05l.07,0c-.06,0-.16,0-.13,0-.11.33.16.72.07,1.05l-.06,0,.1.08H35.1c-.12.07,0,.18,0,.26a.45.45,0,0,0-.13,0c.17.08-.24.07.12.14l-.13,0a.56.56,0,0,1,0,.52c.31.18,0,.31.24.48h-.06c.21.21,0,.39,0,.59s0,.14,0,.22h-.08c.3.16-.3.28,0,.44l-.11,0c.17,0-.06.09.23.09l-.09,0c.38.12-.19.17.06.3h-.07c.05,0,.09.07,0,.09h0c-.28.09,0,.21,0,.32l-.13,0c.15.06,0,.15.07.22H35l.08,0H35C35,140.56,35.08,140.64,35.09,140.73Z" transform="translate(0 -0.26)"/><path d="M35.23,141.62h0Z" transform="translate(0 -0.26)"/><path d="M35.65,132.81h0Z" transform="translate(0 -0.26)"/><polygon points="36.38 141.5 36.42 141.5 36.31 141.47 36.38 141.5"/><path d="M36.16,141.65h-.07l.29.08C36.55,141.73,36,141.65,36.16,141.65Z" transform="translate(0 -0.26)"/><path d="M36.19,141.65c.07,0-.07,0-.11,0C36.18,141.62,36,141.63,36.19,141.65Z" transform="translate(0 -0.26)"/><path d="M36.32,140.18h0Z" transform="translate(0 -0.26)"/><path d="M35.9,139.74l-.11,0c.19.1,0,.15.05.24h0c-.07.18.09.38.15.58H35.9s.11,0,.1,0h-.06c-.19,0,.1.13,0,.14a.39.39,0,0,0,.15,0,1,1,0,0,0,.16.49h-.14c.28.17.14.29.08.41a1.13,1.13,0,0,1,.16,0c.1,0-.18-.1,0-.12h.07c.05,0-.19,0-.09,0a.6.6,0,0,1,.1,0c0-.06.05-.12-.12-.2.16,0,0-.06.17-.06a.43.43,0,0,0-.15-.06c.11-.2,0-.43,0-.64-.3-.14.09-.21,0-.34h0c-.07,0-.1-.11-.06-.15l-.13-.06c.31-.24.16-.55.31-.81s.39-.56,0-.92h.06c-.05-.1.07-.16,0-.26h0c-.23-.24.09-.43-.16-.67a2,2,0,0,0,0-.8h.06c-.1-.23.25-.38.18-.6.17-.19-.3-.49-.08-.68s-.31-.36,0-.44c.51-.19.24-.48,0-.78.2-.21-.2-.51.18-.69-.21-.14.31-.19.26-.32H37c.24,0-.31-.14,0-.12h0c.18,0-.41-.11-.2-.1l-.09,0s.1,0,.14,0-.16,0-.11,0c.36,0-.07-.08.33,0,0,0,.16,0,.24,0s0-.05-.14-.07a2.33,2.33,0,0,0-.48-.06l.13,0h-.17s-.21,0-.3,0h0c.16,0,.06.05,0,.06h-.07c-.15,0,.29.08,0,0a.36.36,0,0,1,0,.26c.1,0,0,.06.18.07-.22,0-.29,0-.28.07h0c-.29,0,.26.09-.1.08.25,0-.09.07.2.13h-.15c0,.08-.12.15-.14.21.21.08-.12.12.18.21-.07,0-.2.08-.09.15h0c0,.06,0,.14.2.21a.59.59,0,0,0-.33,0c.13.06.08.14.19.22-.13,0,0,.06-.14,0,.35.23.19.43-.12.58h0l.46.14h0s-.16,0-.13.09h-.06c.08,0-.16,0,0,.1h-.05l.07,0c-.06,0-.16,0-.14,0-.1.29.19.64.1.93l-.06,0,.1.07h-.06c-.12.06.05.16,0,.23a.51.51,0,0,0-.13,0c.17.08-.24.06.12.13l-.13,0a.44.44,0,0,1,0,.46c.31.17,0,.27.23.44h-.06c.2.2-.06.35,0,.53s0,.13,0,.2H36c.29.16-.31.22,0,.4l-.11,0c.17,0-.07.07.22.1h-.09c.37.14-.2.14,0,.28l-.07,0s.09.07,0,.09l0,0c-.29.05,0,.19,0,.29l-.13,0c.14.07,0,.13.05.2h-.06l.08,0-.12,0C35.8,139.57,35.9,139.66,35.9,139.74Z" transform="translate(0 -0.26)"/><path d="M35.93,140.54h0Z" transform="translate(0 -0.26)"/><path d="M36.35,132.68h0Z" transform="translate(0 -0.26)"/><polygon points="37.8 142.03 37.84 142.03 37.74 142 37.8 142.03"/><path d="M37.59,142.17h-.07l.28.1C38,142.27,37.47,142.16,37.59,142.17Z" transform="translate(0 -0.26)"/><path d="M37.62,142.16c.07,0-.06,0-.11-.05C37.61,142.13,37.47,142.13,37.62,142.16Z" transform="translate(0 -0.26)"/><path d="M37.84,140.61h0Z" transform="translate(0 -0.26)"/><path d="M37.45,140.13l-.11,0c.18.11,0,.16,0,.25h0c-.08.19.07.41.12.62l-.06,0s.1,0,.09,0l-.06,0c-.19,0,.09.14-.05.14a.37.37,0,0,0,.15,0,1.13,1.13,0,0,0,.13.52l-.14,0c.27.19.12.31,0,.44a1.07,1.07,0,0,1,.16,0c.1,0-.17-.12,0-.13l.07,0c.05,0-.19,0-.08-.05a.56.56,0,0,1,.1,0c0-.07.06-.12-.11-.21.16,0,0-.07.18-.06-.06,0,0,0-.15-.07.13-.2,0-.46.07-.68-.29-.16.1-.22,0-.36h0c-.07-.05-.09-.12,0-.16l-.12-.07c.32-.24.19-.57.35-.85s.41-.58.06-1l.06,0c0-.11.08-.17,0-.27h0c-.22-.26.11-.46-.14-.71a2.19,2.19,0,0,0,0-.84h.06c-.1-.24.26-.4.2-.64.17-.21-.29-.52-.07-.72s-.3-.37,0-.46c.51-.21.24-.52,0-.82.2-.23-.2-.54.17-.74-.21-.14.31-.21.26-.35h-.08c.24,0-.32-.14,0-.13h0c.18,0-.41-.11-.2-.1h-.09s.1,0,.14,0-.16,0-.11,0c.36,0-.07-.08.33,0,0,0,.16,0,.24,0s0-.06-.14-.07a2.21,2.21,0,0,0-.48,0l.13,0h-.17s-.21,0-.3,0h0c.16,0,.06.05,0,.07h-.07c-.15,0,.29.08,0,0a.4.4,0,0,1,0,.27c.1,0,0,.07.18.07-.22,0-.29.06-.28.08h0c-.29,0,.26.09-.1.09.25,0-.09.07.2.13h-.15c0,.08-.12.16-.14.22.21.09-.12.13.18.22-.07,0-.2.08-.09.16h0c0,.07,0,.15.2.22a.57.57,0,0,0-.33,0c.13.06.08.14.19.23-.13,0,0,.06-.14,0,.34.24.18.45-.12.61h0l.46.15h0s-.16,0-.13.09h-.06c.08,0-.16,0,0,.11h-.05l.07,0c-.06,0-.16,0-.14,0-.11.3.18.67.08,1l-.06,0,.1.08-.06,0c-.12.06,0,.17,0,.24a.49.49,0,0,0-.13,0c.16.08-.24.06.12.14l-.13,0a.48.48,0,0,1,0,.49c.3.18,0,.29.22.46h-.06c.2.22-.07.37-.06.56s0,.14,0,.22h-.08c.28.18-.32.23,0,.42l-.11,0c.17,0-.07.07.22.11h-.09c.37.16-.2.14,0,.29l-.07,0s.08.08,0,.09l0,0c-.29,0,0,.2,0,.3l-.13,0c.14.07,0,.14,0,.21h-.06l.08,0-.12,0C37.36,140,37.45,140,37.45,140.13Z" transform="translate(0 -0.26)"/><path d="M37.44,141h0Z" transform="translate(0 -0.26)"/><path d="M38.06,132.7h0Z" transform="translate(0 -0.26)"/><polygon points="22.38 142.74 22.42 142.73 22.32 142.72 22.38 142.74"/><path d="M22.15,142.92h-.07l.3,0C22.55,143,22,142.93,22.15,142.92Z" transform="translate(0 -0.26)"/><path d="M22.18,142.91c.07,0-.07,0-.12,0C22.17,142.89,22,142.91,22.18,142.91Z" transform="translate(0 -0.26)"/><path d="M22.14,141.38h0Z" transform="translate(0 -0.26)"/><path d="M21.68,141h-.11c.19.08,0,.16.07.24h0c0,.2.13.39.21.59h-.06s.11,0,.1,0h-.06c-.18,0,.11.13,0,.15a.37.37,0,0,0,.15,0,1.08,1.08,0,0,0,.22.48H22c.3.14.18.28.13.42a1.08,1.08,0,0,1,.16,0c.1,0-.19-.08,0-.12h.08s-.19,0-.09,0a.57.57,0,0,1,.1,0c0-.06,0-.13-.14-.19.16,0,0-.07.16-.09a.42.42,0,0,0-.16,0c.09-.22-.06-.44,0-.67-.31-.11.07-.23,0-.36h0c-.08,0-.11-.1-.07-.15l-.13,0c.29-.28.1-.59.23-.88s.34-.61-.06-1h.06c-.06-.1.06-.18,0-.27h0c-.25-.24.07-.46-.2-.69a2.25,2.25,0,0,0,0-.83H22c-.11-.23.24-.41.16-.64.16-.21-.31-.5-.1-.71s-.32-.36,0-.46c.51-.22.23-.51,0-.82.2-.23-.2-.54.18-.73-.21-.15.31-.2.26-.34h-.08c.24,0-.31-.15,0-.13h0c.18,0-.41-.12-.2-.1l-.09,0s.1,0,.14,0-.16,0-.11,0c.36,0-.07-.08.33,0,0,0,.16,0,.24,0s0-.06-.14-.08a2.22,2.22,0,0,0-.48-.06l.13,0h-.17s-.21,0-.3,0h0c.15,0,.06.06,0,.07h-.07c-.15,0,.29.09,0,0a.4.4,0,0,1,0,.27c.1,0,0,.07.18.07-.22,0-.29,0-.28.08h0c-.29,0,.26.09-.1.09.25,0-.09.07.2.14h-.15c0,.08-.12.16-.14.22.21.09-.12.13.18.22-.07,0-.2.08-.09.16h0c0,.07,0,.15.2.22a.57.57,0,0,0-.33,0c.13.06.08.14.19.23-.13,0,0,.06-.14,0,.35.23.19.45-.11.62h0l.47.13h0s-.16.05-.13.09h-.06c.08,0-.16.05,0,.11h-.05l.07,0c-.06,0-.16,0-.14,0-.09.31.2.66.13,1l-.06,0,.1.07h-.06c-.12.07.06.17,0,.24a.49.49,0,0,0-.13,0c.17.07-.23.07.12.13h-.13a.48.48,0,0,1,0,.49c.32.16,0,.29.26.44h-.07c.21.2,0,.37,0,.56s0,.13,0,.21h-.08c.3.15-.29.26,0,.42l-.11,0c.17,0-.06.08.23.09l-.09,0c.38.11-.19.16.06.29h-.07c.05,0,.09.07,0,.09h0c-.28.08,0,.2,0,.3l-.13,0c.15.05,0,.14.07.2h-.06l.08,0h-.12C21.56,140.8,21.67,140.88,21.68,141Z" transform="translate(0 -0.26)"/><path d="M21.79,141.8h0Z" transform="translate(0 -0.26)"/><path d="M21.86,133.51h0Z" transform="translate(0 -0.26)"/><path d="M18.29,144.49a5,5,0,0,0,4.29.34c.39-.12.31-1.27.3-1.57,0-.11-.14-1.67-.38-1.55a7.16,7.16,0,0,1-4.2.4c-.31,0-.34,2.18,0,2.38Z" transform="translate(0 -0.26)"/><path d="M33.82,143.89l.08.18a2.87,2.87,0,0,0,.46.72,2.91,2.91,0,0,0,1.37.85,2.74,2.74,0,0,0,3-.66c.29-.4.51-3.38-.19-3.45a3.71,3.71,0,0,0-1.18.27,4.83,4.83,0,0,1-1.27.08c-.69,0-1.59-.64-2.24-.48s-.23,2.16-.09,2.49Z" transform="translate(0 -0.26)"/><path d="M17.7,143.5c-.22,0-1.66,4.47-1.87,5a8.46,8.46,0,0,0-.72,4.8c.19,1.47.78,1.88,2.12,2.33s3.4,1.45,4.67.24c1-1,1-2.8,1-4.08,0-1.66.37-3.21.42-4.87,0-.93.12-3.24-.81-3.89-.41-.29-1.09-.17-1.55-.17a24.89,24.89,0,0,0-3.35.12l.27.49,0-.21v2.35l.33-.37c.57-.34.08-2.84-.07-2.77-.66.29-.71.68-.79,1.36,0,.4-.21,2.41.38,2.55a21.26,21.26,0,0,0,2.7.39c.29,0,2,.39,2,.38q0-2.08-.19-1-.11.44-.21.89a12.29,12.29,0,0,0-.2,2c0,.89.35,1.67-.62,2.13a3.28,3.28,0,0,1-1.63.17c-1-.09-3.27-.39-3.91-1.23l.43,2.25,0-.49-.2,2c1.12-3.18,2.45-6.69,2-10.13,0-.14,0-.22-.14-.24Z" transform="translate(0 -0.26)"/><path d="M34.56,146.38c.32,2.42.28,5.55,1.53,7.72s4.08,2.18,6.29,1.44c1-.32.74-5-.13-5.39a4.79,4.79,0,0,1-2.69-2.54c-.43-1-.51-2.14-1-3.13-.91-1.74-2.17-1-2.41.62a10,10,0,0,0,1,5.87,5.59,5.59,0,0,0,4.58,3.11l-.11-4.63c-1.32.68-2.13-.39-3-1.2-1.31-1.15-2.29-2.69-3.58-3.9-.31-.29-.32,2.17-.25,2.43a40.88,40.88,0,0,0,2.54,6.56c.59,1.21.85-1.06.87-1.42.08-1.07.19-3-.51-3.94-.89-1.19-1.71-2.5-2.66-3.63v2.85c2.61.42,3,2.34,3.78,4.58.42,1.26,1.41,2.87,3,2.3.78-.28.69-4.43-.11-4.63a8,8,0,0,1-3.17-1.71,8.28,8.28,0,0,1-1-1.06,3.86,3.86,0,0,1-.49-.75q-.39-1.09-.06.85l-.22.84c1.1-2,2.25,3.32,2.42,3.91a7.13,7.13,0,0,0,3.15,3.91l0-5.3c-1.87.2-4.65.92-5.91-1-.87-1.34-.23-3.57-1.5-4.73-.32-.29-.31,1.83-.28,2Z" transform="translate(0 -0.26)"/><path d="M17.05,151.82a2,2,0,0,0,1.06,1.27,2.81,2.81,0,0,0,1.55.35c1-.16,1.1-1.24,1.14-2.06s.12-2.34-.61-3-1.66-.33-2.43-.59l.08,3.4a5.12,5.12,0,0,1,2.65-.65c.62,0,.27-2.9.11-3.23A3.53,3.53,0,0,0,19,145.54l.09,3.68a2.5,2.5,0,0,1,1.83.29l0-3.52c-1.06.47-2.45-.26-3.22.88-.64.93-.38,2.13-.82,3.11h.37q-.26,1.64,0,.9a3.49,3.49,0,0,1,.26-.57c.15-.29.31-.58.45-.88s.33-1.3.77-1.49a.83.83,0,0,1,.79.14c.06,0,.82.83.6.86s.09-1.11-.12-.07c-.07.34-.15.68-.23,1a7,7,0,0,0,0,2.34c0,.38.07,1.1.46,1.31,1.09.58,1.46-1.21,1.53-1.91a11.6,11.6,0,0,0,0-2.3c0-.14-.23-.94-.13-1l-.06.53a1.34,1.34,0,0,1,.38-.73l-.46-1.48c0,1.31,0,2.62,0,3.93l.81.48c0-1.25,0-2.5-.1-3.76,0-.72-.5-1.59-.59-.34s-.12,2.74-.12,4.11c0,.26,0,1.86.45,1.85s.36-1.71.36-1.87c0-1.47,0-3-.12-4.42,0-.1-.09-1.76-.46-1.48a3,3,0,0,0-.87,2.35,13.1,13.1,0,0,0,0,1.89,2.83,2.83,0,0,1,.09.82c.37-1.16-.32-.57-.71-.85l.29,3.57a14.6,14.6,0,0,0,.29-6c-.17-.9-.85-3.1-2.22-2.57-.6.23-.67,1-.86,1.54-.28.73-.73,1.38-1,2.13a6.75,6.75,0,0,0,.32,5c.12.21.26-.14.28-.18a5.39,5.39,0,0,0,.37-1.44c.06-.41,0-1,.28-1.32.65-.79,2.16-.12,3-.57.66-.34.51-3.23-.09-3.58a2.82,2.82,0,0,0-1.94-.46c-.64.1-.5,3.45.09,3.68a2.14,2.14,0,0,1,1.22,1.08l.11-3.23a5.18,5.18,0,0,0-2.65.71c-.57.33-.53,3.13.08,3.4.46.2,2.18.26,2.32.82L20,149.74l0,.26.22-.87a1.5,1.5,0,0,1-1.33.85c-.46,0-1.12-.13-1.52.19a1.73,1.73,0,0,0-.33,1.65Z" transform="translate(0 -0.26)"/><path class="cls-2" d="M53.08,127.74q-2.3-9.3-4-18.73l2.07-1.71a2.91,2.91,0,0,0,1.13-1.44,3.08,3.08,0,0,0-.16-1.51,74.31,74.31,0,0,1-1.94-9.64v-19c.32-.54.64-1.08.95-1.63a9,9,0,0,0,1.38-4,9.72,9.72,0,0,0-1.19-4.14L40.86,43.09c-1.27-2.77-2.81-5.8-5.61-6.78l.51,2.54H35.5l0-.11c-.32-1-1-2.1-1.9-2a14,14,0,0,1-.57-3.3l-2.28,2.72-.5.59H25a14.65,14.65,0,0,1-1.75-1.15,47.8,47.8,0,0,0-4.53-3.43,4.44,4.44,0,0,1-1.4,3.34l-.18.13a18.44,18.44,0,0,0-5.34,3.24h0a9,9,0,0,0-1.31,1.56A16.69,16.69,0,0,0,8.61,45.1C6,54.39,3.36,63.76,2.45,73.38Q1,82.49.07,91.68a5.81,5.81,0,0,0,0,1.87,5.59,5.59,0,0,0,1,1.88c1.94,2.8,4,5.5,6.21,8.1L4.79,125.83A4.73,4.73,0,0,0,4.88,128a3.94,3.94,0,0,0,1.36,1.65c5.06,4,12,4.11,18.34,4,9.29-.11,18.82-.26,27.47-3.76a1.85,1.85,0,0,0,1-.77A2,2,0,0,0,53.08,127.74Z" transform="translate(0 -0.26)"/><polygon points="29.67 35.06 29.64 35.07 29.74 35.05 29.67 35.06"/><path d="M29.9,35.29H30l-.29,0Z" transform="translate(0 -0.26)"/><path d="M29.87,35.3l.12,0Z" transform="translate(0 -0.26)"/><path d="M30,35.41h0Z" transform="translate(0 -0.26)"/><path d="M30.43,35.36l.11,0c-.2,0,0,0-.09,0h0s-.15,0-.23,0h0c.18,0-.12,0,0,0l-.15,0a1,1,0,0,0-.23,0l.14,0c-.3,0-.18,0-.13,0l-.16,0c-.1,0,.19,0,.05,0h0l-.1,0s0,0,.15,0l-.16,0,.16,0c-.08,0,.08,0,.07,0,.31,0-.06,0,0,0h0c.08,0,.11,0,.08,0l.13,0c-.27.07-.07.06-.18.1s-.29.1.12.06h-.06c.06,0,0,0,0,0h0c.26,0,0,0,.25,0,0,0,0,0,.09.05h-.06c.13,0-.19.07-.09.07-.14,0,.36,0,.18,0s.35,0,0,0c-.47.1-.16.07.13,0-.17,0,.27,0-.07.07.22,0-.27.07-.21.07h.08c-.23,0,.33,0,0,0h0l.21,0h.09l-.13,0,.11,0-.32.06-.24,0,.15,0,.48-.08-.13,0,.16,0,.29-.05h0c-.16,0-.06,0,0,0H31c.15,0-.3,0,0,0-.07,0-.06,0-.07,0l-.18,0,.26-.05h0c.28-.05-.26,0,.08,0l-.21,0,.15,0,.1,0c-.22,0,.1,0-.2,0,.06,0,.18,0,.07,0h0l-.22,0,.32-.06-.22,0,.13,0c-.37,0-.24,0,0-.06h0l-.47.07h0l.12,0h.06c-.09,0,.15,0,0,0h0l.14,0c.06,0-.27,0-.23,0h0c.11,0-.07,0,0,0l.13,0c-.17,0,.22,0-.13,0l.13,0c-.12,0-.12,0-.06,0-.32,0,0,0-.29,0h.06c-.23,0,0,0,0,0s-.05,0-.06,0h.08c-.31,0,.27-.07-.07,0l.11,0-.23,0,.09,0c-.38.06.17,0-.08,0h.07c-.05,0-.1,0,0,0h0c.27-.05,0,0,0,0l.13,0c-.15,0,0,0-.08,0h0l.12,0Z" transform="translate(0 -0.26)"/><path d="M30.28,35.32h0Z" transform="translate(0 -0.26)"/><path d="M31,35.87h0Z" transform="translate(0 -0.26)"/><polygon points="31.14 34.73 31.16 34.71 31.08 34.77 31.14 34.73"/><path d="M30.93,35.12l0,.05.23-.18C31.23,34.85,30.86,35.2,30.93,35.12Z" transform="translate(0 -0.26)"/><path d="M30.95,35.09c0-.06-.06,0-.09.07S30.85,35.2,30.95,35.09Z" transform="translate(0 -0.26)"/><path d="M30.31,34.93h0Z" transform="translate(0 -0.26)"/><path d="M30.22,35.4v.11c0-.2,0,0,.05-.08v0s.08-.14.14-.22v.06a.65.65,0,0,1,0-.1v.06c0,.18,0-.11,0,0l0-.15a2.8,2.8,0,0,0,.24-.16l-.05.13c.18-.25.23-.08.24,0s0-.07.11-.12-.16.11-.1,0l0-.06c0-.05-.12.15-.07.06a.87.87,0,0,1,.06-.08c-.05,0-.06-.08-.18.06.06-.15,0,0,0-.17a.52.52,0,0,0-.08.14c-.09-.13-.22,0-.28,0-.05.31-.07-.07-.11,0v0c0,.08,0,.11,0,.08v.13c-.06-.24-.12-.13-.14-.17v0c0-.09.06-.3-.14.08L30,35c0,.05,0-.05,0,0l0,0c-.16.21,0-.05-.22.14,0-.05-.07-.07-.17-.07l.05,0c-.14,0,.12-.18,0-.16.12-.09-.37.06-.21-.06s-.36,0-.06-.09c.47-.14.16-.09-.13-.19.17,0-.25-.18.11-.17-.2-.1.28,0,.23,0l-.07,0c.22.09-.29-.15,0,0h0c.16.07-.37-.19-.18-.1l-.08,0s.09,0,.12.05l-.1-.05c.32.16-.06-.05.3.14l.21.11-.13-.08-.42-.23.12.07-.15-.08s-.19-.09-.27-.11h0c.14.08.05,0,0,0L29,34c-.14-.06.27.15,0,0a.1.1,0,0,1,0,.11c.09,0,0,0,.17.08-.21-.07-.27-.06-.27,0h0c-.28-.06.25.1-.09,0,.24.07-.09,0,.19.1l-.15,0s-.11.05-.12.08c.21.06-.11.05.19.1-.07,0-.19,0-.07.06h0s0,.06.22.08a1.08,1.08,0,0,0-.32,0c.13,0,.1,0,.22.06-.13,0,.06,0-.13,0,.38,0,.26.09,0,.25h0l.47-.1h0s-.14.06-.1.07l-.06,0c.08,0-.14.07,0,0l0,0,.07,0-.13,0c0,.14.33.09.34.19l-.05,0,.1,0-.05,0c-.08.08.09,0,.08,0l-.1.08c.15-.09-.16.17.13-.05l-.1.08c.12,0,.15,0,.15.08.25-.21.09,0,.28-.14l0,.05c.17-.16.07.07.14.05s.05,0,.07,0l0,.07c.14-.27,0,.29.12,0l0,.11c.05-.16,0,.06.08-.22l0,.09c.11-.37,0,.18.08-.06v.07c0-.05,0-.09,0,0v0c0,.19,0,.11,0,0s0-.06,0-.06v.13c0-.15,0,0,.05-.08v.1S30.2,35.42,30.22,35.4Z" transform="translate(0 -0.26)"/><path d="M30.41,35.27h0S30.4,35.27,30.41,35.27Z" transform="translate(0 -0.26)"/><path d="M29,33.94h0Z" transform="translate(0 -0.26)"/><polygon points="22.38 33.8 22.42 33.8 22.32 33.8 22.38 33.8"/><path d="M22.15,34.06h0Z" transform="translate(0 -0.26)"/><path d="M22.18,34.06h0Z" transform="translate(0 -0.26)"/><path d="M22.11,33.92h0Z" transform="translate(0 -0.26)"/><path d="M21.64,33.89h-.11c.2,0,0,0,.08,0h0s.14,0,.23.05h0c-.18,0,.12,0,0,0h.15a.91.91,0,0,0,.23,0H22c.3,0,.18,0,.13,0h.16c.1,0-.19,0,0,0h.08s0,0-.15,0h0c.09,0-.07,0-.06-.06-.32,0,.06,0,0,0h0c-.08,0-.12,0-.08,0H21.9c.28,0,.08-.05.2-.08s.31-.06-.11-.08h.06c-.06,0,.05,0,0,0h0c-.26,0,0,0-.25-.06,0,0,0,0-.08-.07h.06c-.13,0,.2,0,.1-.06.14,0-.36,0-.17-.06s-.35,0,0,0c.48,0,.17,0-.12-.07.17,0-.27,0,.08-.07-.22,0,.28,0,.21,0H21.8c.24,0-.33,0,0,0h-.63c.16,0,.06,0,0,0h-.07c-.15,0,.3,0,0,0,.07,0,.06,0,.07,0h-.12c-.29,0,.27,0-.09,0,.25,0-.08,0,.21,0h-.15l-.11,0c.22,0-.1,0,.2,0-.06,0-.19,0-.07,0h0a.76.76,0,0,0,.22,0H21l.22,0h-.14c.37,0,.24,0,0,.05h.23c.09,0-.15,0,0,0h-.12c-.06,0,.27.06.22.08h0c-.11,0,.07,0,0,0h-.13c.17,0-.23,0,.14,0h-.13c.12,0,.11,0,.05,0,.33,0,0,0,.29,0h-.07c.23,0,0,0,0,0s.05,0,.05,0h-.08c.31,0-.28,0,.06,0h0c.39,0-.18,0,.07,0h-.07c.05,0,.1,0,0,0h0c-.28,0,0,0,0,0h-.13c.15,0,0,0,.08,0h-.1Z" transform="translate(0 -0.26)"/><path d="M21.78,34h0Z" transform="translate(0 -0.26)"/><path d="M21.15,33.24h0Z" transform="translate(0 -0.26)"/><polygon points="31.74 35.04 31.77 35.03 31.67 35.06 31.74 35.04"/><path d="M31.51,35.36l-.07,0,.28-.08C31.89,35.24,31.41,35.4,31.51,35.36Z" transform="translate(0 -0.26)"/><path d="M31.54,35.35l-.11,0Z" transform="translate(0 -0.26)"/><path d="M31.37,35.07h0Z" transform="translate(0 -0.26)"/><path d="M30.9,35.15l-.1,0c.19-.06,0,0,.09,0h0c0,.05.16,0,.25,0l-.05,0,.1,0-.06,0c-.17.07.12,0,0,0l.15,0a.51.51,0,0,0,.25,0l-.13,0c.29-.07.19,0,.15,0l.16-.05c.09,0-.19,0-.05,0l.07,0s-.18.06-.09,0l.1,0s0,0-.15,0c.15-.06,0,0,.15-.07l-.15,0c.07-.07-.1-.06-.1-.11-.31.09,0-.07-.07-.05h0c-.08,0-.12,0-.08,0l-.13,0c.24-.15,0-.14.12-.24s.24-.24-.18-.14l.06,0c-.07,0,0-.05,0,0h0c-.26.06,0-.1-.28,0,0-.06,0-.1-.14-.12l.06,0c-.14,0,.15-.16,0-.16.11-.1-.37.07-.21-.06s-.35.09-.07-.07.1-.18-.18-.09c.13-.12-.28,0,0-.17-.21.08.22-.17.15-.17l-.07,0c.2-.12-.3.14,0,0h0c.15-.09-.37.19-.19.09l-.08,0,.12-.07-.1,0c.32-.17-.08,0,.28-.17l.21-.11s0,0-.14.06l-.42.23.12-.06-.14.08-.25.15h0c.14-.07.06,0,0,0l-.06,0c-.14.08.27-.14,0,0,.07,0,.07,0,.08,0a.91.91,0,0,0,.17-.08c-.19.11-.24.15-.23.15l0,0c-.25.14.24-.11-.07.06.22-.11-.06.05.2-.08l-.13.07s-.07.07-.07.09c.2-.09-.08.07.2-.06-.05,0-.16.1,0,.06l0,0s0,0,.21-.07a2.72,2.72,0,0,0-.28.16c.12-.05.1,0,.21-.06-.12.06.06,0-.12.07.35-.13.25,0,0,.12h0l.44-.19,0,0s-.13.08-.1.07l-.06,0c.08,0-.13.08,0,0l0,0,.07,0-.13.06c0,.08.3,0,.28.07l-.06,0,.1,0-.06,0c-.09.06.08,0,.06,0l-.12.05c.16-.06-.2.11.13,0l-.12.05c.12,0,.13,0,.09.06.31-.11.05,0,.3,0l-.06,0c.22-.06,0,.07.07.09s.06,0,.07,0l-.08,0c.3-.09-.24.15.09.05l-.1,0c.16-.06,0,0,.22-.07l-.08,0c.37-.13-.15.1.09,0l-.07,0c.05,0,.1,0,0,0l0,0c-.25.12,0,0,0,0l-.12,0c.15,0,0,0,.09,0l-.06,0,.08,0-.11,0S30.88,35.14,30.9,35.15Z" transform="translate(0 -0.26)"/><path d="M31.09,35.26h0Z" transform="translate(0 -0.26)"/><path d="M29.86,34h0Z" transform="translate(0 -0.26)"/><polygon points="35.63 35.72 35.65 35.68 35.6 35.78 35.63 35.72"/><path d="M35.52,36.18l0,.06.13-.27C35.69,35.82,35.48,36.29,35.52,36.18Z" transform="translate(0 -0.26)"/><path d="M35.53,36.15c0-.07,0,.06-.05.1S35.47,36.29,35.53,36.15Z" transform="translate(0 -0.26)"/><path d="M35.14,36.06h0Z" transform="translate(0 -0.26)"/><path d="M34.86,36.45l0,.1c.1-.17,0,0,.09-.05l0,0c0,.06.15-.09.23-.15l0,.05,0-.09,0,.06c-.06.17.08-.09,0,0l.06-.14a.46.46,0,0,0,.2-.16l-.05.13c.15-.26.14-.14.15-.08l.07-.15c0-.09-.1.17,0,0l0-.07s-.08.17,0,.08l0-.09s0,0-.1.11c.06-.15,0,0,0-.16a1.49,1.49,0,0,0-.07.14c0-.1-.13,0-.18,0-.15.28,0-.08-.1,0v0c0,.07-.07.1-.07.05l-.06.12c0-.28-.1-.14-.13-.27s0-.35-.27,0l0-.05s0-.06-.07,0v0c-.16.22-.09-.08-.26.16,0-.05-.13-.06-.23,0l0-.06c-.1.1,0-.23-.11-.16,0-.15-.25.28-.23.08s-.22.29-.12,0c.13-.47-.06-.21-.24,0,0-.18-.23.2-.14-.15-.12.19.06-.28,0-.23l0,.07c.08-.22-.16.29,0,0h0c.07-.17-.18.38-.1.18l0,.08s0-.09,0-.13-.07.15,0,.1c.14-.33,0,.06.11-.31,0,0,.06-.15.1-.22s0,0-.07.13-.14.31-.19.44l.05-.12-.06.15s-.07.2-.1.27h0c.07-.14,0-.05,0,0l0,.07c-.06.14.13-.27,0,0,0-.05.07,0,.09,0s0,0,.09-.16c-.08.21-.09.26-.08.26l0,0c-.1.27.12-.24,0,.09.1-.23,0,.08.11-.18l-.06.14s0,.1,0,.12c.1-.19,0,.1.13-.17,0,.06-.05.18,0,.08l0,0s0,0,.13-.18a2,2,0,0,0-.11.3c.06-.12.07-.07.13-.18-.05.12,0,0,0,.13.19-.32.19-.18.13.1h0l.21-.43,0,0s0,.15,0,.12l0,.06c0-.08,0,.15,0,0l0,0,0-.06-.06.13c0,.09.26-.18.31-.1l0,.05.06-.09,0,.06c0,.11.07,0,.07,0l-.05.12c.08-.15-.07.22.08-.11l-.05.12c.09-.09.12-.07.13,0,.16-.29.08,0,.22-.22l0,.06c.13-.19.08.05.14,0s.05,0,.07,0l0,.07c.16-.27,0,.28.12,0l0,.1c.07-.15,0,.06.11-.21l0,.08c.18-.35,0,.18.1,0l0,.06s.05-.08,0,0l0,0c-.09.26.06,0,.08,0l-.05.12c.07-.13,0,0,.08-.05l0,.06,0-.08,0,.11S34.84,36.46,34.86,36.45Z" transform="translate(0 -0.26)"/><path d="M35.11,36.41h0Z" transform="translate(0 -0.26)"/><path d="M32.94,36.14v0Z" transform="translate(0 -0.26)"/><ellipse class="cls-3" cx="20.64" cy="20.55" rx="1.16" ry="1.48"/><ellipse class="cls-3" cx="31.66" cy="20.21" rx="1.16" ry="1.48"/><line class="cls-4" x1="31.66" y1="18.73" x2="31.66" y2="21.69"/><line class="cls-4" x1="20.64" y1="19.07" x2="20.64" y2="22.03"/><ellipse class="cls-5" cx="31.66" cy="20.21" rx="1.01" ry="1.14"/><ellipse class="cls-5" cx="20.61" cy="20.5" rx="1.01" ry="1.14"/><rect class="cls-3" x="15.7" y="39.57" width="10.16" height="1.33"/></g></g></svg>