<svg xmlns="http://www.w3.org/2000/svg" xmlns:xlink="http://www.w3.org/1999/xlink" viewBox="0 0 80.26 81.05"><defs><style>.cls-1{fill:url(#linear-gradient);}.cls-2{fill:url(#linear-gradient-2);}.cls-3{fill:url(#linear-gradient-3);}.cls-4{fill:none;stroke:#706865;stroke-miterlimit:10;}</style><linearGradient id="linear-gradient" x1="1265.45" y1="42.85" x2="1245.62" y2="56.61" gradientTransform="matrix(-1, 0, 0, 1, 1335.07, 0)" gradientUnits="userSpaceOnUse"><stop offset="0" stop-color="#fff"/><stop offset="1"/></linearGradient><linearGradient id="linear-gradient-2" x1="70.32" y1="20.72" x2="-46.47" y2="101.76" gradientTransform="matrix(1, 0, 0, 1, 0, 0)" xlink:href="#linear-gradient"/><linearGradient id="linear-gradient-3" x1="11.67" y1="41.17" x2="-10.57" y2="56.6" gradientTransform="matrix(1, 0, 0, 1, 0, 0)" xlink:href="#linear-gradient"/></defs><title>back</title><g id="Layer_2" data-name="Layer 2"><g id="Layer_1-2" data-name="Layer 1"><path class="cls-1" d="M71.45,39.45s10.88,6.71,8.45,9.91a21.6,21.6,0,0,1-7.18-.53c-3.7-1-2.55-1.17-2.55-1.17Z"/><path class="cls-2" d="M26.72.13c-4.31,5-36.14,46.31-.31,80.72a.72.72,0,0,0,1.22-.52l-.79-8.71s9,5,27,.33l2,8.52a.72.72,0,0,0,1.13.36c4.76-3.71,28.28-24.94,3.76-78.31a.38.38,0,0,0-.65-.08l-7.28,9s-13.5-3.75-22.37-.37L27.36.28A.38.38,0,0,0,26.72.13Z"/><path class="cls-3" d="M9.51,37.2S-2.24,45.07.38,48.82a21.5,21.5,0,0,0,7.75-.62c4-1.12,2.75-1.37,2.75-1.37Z"/><path class="cls-4" d="M40.76,60s-1.5,5-3.5,5.33-2.67-3,0-2.67,3,3.83,3,3.83"/></g></g></svg>