<svg xmlns="http://www.w3.org/2000/svg" viewBox="0 0 24.08 98.07"><defs><style>.cls-1{fill:#0a2117;}</style></defs><title>figureR</title><g id="Layer_2" data-name="Layer 2"><g id="Layer_1-2" data-name="Layer 1"><polygon class="cls-1" points="16.39 0.18 16.37 0.14 16.24 0.21 16.39 0.18"/><path class="cls-1" d="M15.74.24s0,.05,0,.07a3.75,3.75,0,0,1,.42-.2C16.06-.09,15.82.37,15.74.24Z" transform="translate(-0.02)"/><path class="cls-1" d="M15.64.19c-.13-.09-.2,0-.24.08S15.65.35,15.64.19Z" transform="translate(-0.02)"/><path class="cls-1" d="M5.22,3.92l0,0S5.22,3.9,5.22,3.92Z" transform="translate(-0.02)"/><path class="cls-1" d="M3.77,6.45l.08.08c.07-.57.6-.94.88-1.41v.05A14.2,14.2,0,0,1,7.87,2.5s0,.05,0,.07.08-.16.15-.19,0,.06,0,.08c.34,0,.75-.49,1-.43C9,2,9,1.9,9,1.86,10,1.39,11.13,1,12.2.58c.06,0,.08.06.08.12a4.66,4.66,0,0,1,3-.5c0-.07-.1-.09,0-.16-.36-.13-.65.16-1,0l0-.08c-.23,0,0,.19-.27.12s0-.1,0-.1A3.11,3.11,0,0,0,12.76.4c-.14-.14-.47.11-.67,0-.1.09-.22.1-.23.22a16.62,16.62,0,0,0-4.5,1.79c-.51.64-1.48.83-2.11,1.53a0,0,0,0,1,0,0,4.81,4.81,0,0,1-.72.83c0,.11-.07.2-.1.31A6.48,6.48,0,0,0,2.72,7.8,11.7,11.7,0,0,0,2.21,11a10.35,10.35,0,0,0,2,6.63s0,0-.07,0a17.32,17.32,0,0,0,1,1.67l0,0c.56.59,1.06,1.25,1.64,1.84a5.33,5.33,0,0,0,2,1.37,13.05,13.05,0,0,0,5.66,1.57v.06c.79,0,1.55.09,2.33.07A4.8,4.8,0,0,0,19,23.67,4.18,4.18,0,0,0,20.85,22,24.5,24.5,0,0,0,22,19.81a2.78,2.78,0,0,0,.42-1.59,4.68,4.68,0,0,1,.19-1.59c.59-1.92.14-3.83-.3-5.71,0-1.81-.75-3.44-1.12-5.11-.53-.63-.54-1.66-1.21-2.35l0,.08c0-.42-.73-.32-.62-.7h0c0-.26-.58,0-.51-.19l-.08,0c-.18-.11,0-.09-.06-.22s-.12.11-.18,0c.19-.31-.45-.23-.24-.57.1.06-.07-.23.2-.16,0-.08-.37-.26-.43-.09s-.31.21-.2.44l.1-.09c0,.15,0,.09,0,.18.22.15.14.34.24.51h0c.2-.06.28.14.34.21l0,.08c-.06.15.42,0,.19.11a5.11,5.11,0,0,1,1.2,1.25c.13,0,.25.39.34.17a1.14,1.14,0,0,0,.17.8s0,0-.05,0c-.11.41.42.22.23.64.25-.06.15.53.48.58a.17.17,0,0,1-.13.09,10.9,10.9,0,0,1,.37,1.56c.31.34.1,1,.45,1.25a2.63,2.63,0,0,0,.09,1.15l0,0a3.58,3.58,0,0,0,.34,1.32c-.28.16-.21.35-.29.55.15.3.15.92.29,1.38-.13.08.07.38-.12.41a6.06,6.06,0,0,1-.31,4.19v0c.07.19.25.44.33.65,0,0-.05,0,0,0,0,.25-.28.42-.34.66,0,0,0,0,0-.06,0,.25-.31.38-.29.69h-.05v.19c-.05,0-.14-.08-.08-.15a7.65,7.65,0,0,1-1.88,2.45,5,5,0,0,1-3,1.07l.08-.07-.42.13a.08.08,0,0,1,0-.06c-.54-.09-1.11.05-1.65,0,0,0,.09-.08,0-.13-.42.13-.6-.3-.85,0a.1.1,0,0,1,0-.12,9,9,0,0,1-3.24-.77c-1,0-1.78-.79-2.67-1.19l0,0a8.57,8.57,0,0,1-2.54-2.94c-.26-.48-.52-.75-.78-1.24l.07,0c-.71-.69-.57-1.85-1.17-2.65l.12,0c-.2-.09-.1-.57-.37-.44l0-.19c-.54-.55-.1-1.2-.44-2l.07,0a1.14,1.14,0,0,1-.09-.62s0,0,.05.06c.24-.67-.07-1.4.05-2.11l.12.1C2.73,9.23,3,8.64,3,8.2l.05,0V8L3.2,8A9.16,9.16,0,0,1,3.77,6.45Z" transform="translate(-0.02)"/><path class="cls-1" d="M8,2.46H8S8,2.48,8,2.46Z" transform="translate(-0.02)"/><path class="cls-1" d="M18.21,2.75l0-.06S18.19,2.74,18.21,2.75Z" transform="translate(-0.02)"/><polygon class="cls-1" points="14.65 33.98 14.69 33.98 14.59 33.97 14.65 33.98"/><path class="cls-1" d="M14.44,33.9h-.07l.29.05C14.84,33.94,14.33,33.91,14.44,33.9Z" transform="translate(-0.02)"/><path class="cls-1" d="M14.47,33.89c.07,0-.07,0-.12,0C14.46,33.87,14.32,33.89,14.47,33.89Z" transform="translate(-0.02)"/><path class="cls-1" d="M14.49,32.43h0Z" transform="translate(-0.02)"/><path class="cls-1" d="M14,32h-.11c.19.08,0,.15.07.23h0c-.05.19.12.37.19.56H14.1s.11,0,.1,0h-.06c-.19,0,.11.12,0,.14a.39.39,0,0,0,.15,0,1,1,0,0,0,.2.47h-.14c.29.14.16.27.11.4a1.14,1.14,0,0,1,.16,0c.1,0-.19-.09,0-.12h.08c.05,0-.19,0-.09,0h.1c0-.06,0-.12-.14-.18.16,0,0-.06.17-.08a.43.43,0,0,0-.15,0c.1-.2,0-.42,0-.63-.31-.11.07-.22,0-.34h0c-.08,0-.11-.1-.07-.14l-.13,0c.29-.26.11-.55.25-.83s.34-.58-.06-.91h.06c-.06-.09.06-.17,0-.26h0c-.25-.22.06-.43-.21-.65a2,2,0,0,0,0-.79h.06c-.12-.22.22-.4.14-.61.16-.2-.33-.46-.13-.67s-.33-.33,0-.44c.5-.22.2-.49-.07-.77.19-.23-.24-.49.12-.7-.22-.13.29-.21.23-.33h-.08c.24,0-.32-.12,0-.12h0c.18,0-.42-.09-.2-.08h-.09s.1,0,.14,0-.16,0-.11,0c.36,0-.07-.07.33,0,0,0,.16,0,.24,0S15,25,14.8,25a2.35,2.35,0,0,0-.48,0l.13,0h-.17s-.21,0-.29,0h0c.16,0,.06,0,0,.06H14c-.15,0,.3.07,0,0a.36.36,0,0,1,.05.25c.1,0,0,.06.18.06-.22,0-.28.06-.27.09h0c-.29,0,.26.07-.09.09.25,0-.08.07.21.12h-.15c0,.08-.1.15-.12.22.21.07-.11.13.19.2-.07,0-.19.09-.08.15h0c0,.06,0,.14.21.2a.59.59,0,0,0-.33,0c.13.05.09.13.2.2-.13,0,.05.06-.14,0,.36.2.22.41-.07.58h0l.47.11h0s-.16.06-.12.09h-.06c.08,0-.16.06,0,.1h-.05l.07,0c-.06,0-.16,0-.14,0-.08.29.23.62.17.92h-.06l.1.07H14c-.11.07.06.16,0,.23a.52.52,0,0,0-.13,0c.17.06-.23.07.13.12h-.13a.43.43,0,0,1,0,.46c.32.15,0,.27.27.42H14.1c.22.18,0,.35,0,.53s0,.13,0,.2h-.08c.3.14-.29.24,0,.39H14c.17,0-.06.07.23.08l-.09,0c.38.11-.19.15.06.27h-.07c.05,0,.09.07,0,.08h0c-.28.08,0,.19,0,.28l-.13,0c.15.05,0,.13.07.19H14l.08,0h-.12C13.93,31.88,14,32,14,32Z" transform="translate(-0.02)"/><path class="cls-1" d="M14.13,32.83h0Z" transform="translate(-0.02)"/><path class="cls-1" d="M14,25h0Z" transform="translate(-0.02)"/><polygon class="cls-1" points="15.15 52.93 15.16 52.89 15.07 52.95 15.15 52.93"/><path class="cls-1" d="M14.85,53l0,.06.28-.17C15.14,52.71,14.82,53.1,14.85,53Z" transform="translate(-0.02)"/><path class="cls-1" d="M14.83,52.93c0-.09-.1,0-.14,0S14.76,53.06,14.83,52.93Z" transform="translate(-0.02)"/><path class="cls-1" d="M11.08,50.28h0Z" transform="translate(-0.02)"/><path class="cls-1" d="M9.84,50,9.76,50c.3,0,.38.28.63.35l0,0a8.16,8.16,0,0,0,1.55.85l-.05,0s.11-.05.13,0a.07.07,0,0,1-.05,0c0,.22.37.12.35.28,0,0,.1,0,.11-.11a7.42,7.42,0,0,0,1.29.66.19.19,0,0,1-.06.13c.5,0,.77.34,1.08.63.06-.06,0-.09.09-.14s-.31,0-.32-.17l.06-.05c0-.09-.12.15-.14,0s.06-.07.05-.09c-.17-.08-.29-.26-.53-.21.06-.16-.16-.12-.13-.29-.08,0-.11,0-.18.06a17.88,17.88,0,0,0-1.65-1.13c-.44.07-.52-.46-.89-.59l0,0a.58.58,0,0,1-.4-.2l-.18,0a14.62,14.62,0,0,0-2-1.72,5.63,5.63,0,0,0-2.39-1.6s0,0,.05,0c-.27-.12-.41-.36-.66-.46l0,0a2.59,2.59,0,0,1-.89-.51,2,2,0,0,0-.82-.43l-.19-.15c-.06,0,0,0,0-.07L3.73,45l.42-.3a10.38,10.38,0,0,0,.93-.83l0,0c.42-.52,1.12-.7,1.52-1.25.59-.38.71-1.25,1.3-1.63.51-.12.36-1,.85-1.08.89-.34,1.12-1.17,1.36-2,.58-.51.64-1.38,1.33-1.78,0-.41.63-.45.79-.8l-.07,0c.27,0-.11-.44.23-.32v0c.19,0-.26-.37-.06-.29l-.07-.06c0-.09.09,0,.16,0s-.13-.1-.06-.11c.31.19.05-.22.4,0,0,0,.17,0,.18.16s.12-.14,0-.22-.25-.25-.41-.25l.1.09-.16-.06c-.08.09-.25,0-.36,0h0c.1.14,0,.15-.07.18l-.07,0c-.14-.06.18.28,0,.1a3.07,3.07,0,0,1-.37.68c.06.09-.12.16.07.22a.36.36,0,0,0-.41.13s0,0,0,0c-.32,0,.13.29-.24.2.19.16-.2.16,0,.38a.36.36,0,0,1-.13-.07c-.14.2-.36.36-.49.52.08.27-.32.29-.16.58-.12.06-.34.15-.34.36l0,0a.73.73,0,0,0-.15.59c-.27-.12-.27,0-.39,0,0,.18-.15.37-.18.6-.12-.06-.05.16-.21.05a1.73,1.73,0,0,1-1.16,1.39v0c0,.13.16.34.21.49,0,0,0,0,0,0s-.25.06-.29.16a.09.09,0,0,1,0-.05c0,.13-.25.05-.22.24l0,0v.1s-.12-.11-.07-.13A26.41,26.41,0,0,1,5.47,43.1V43l-.06.2a.11.11,0,0,1,0-.06c-.24.08-.31.36-.51.49,0,0,0-.09-.08-.1,0,.24-.35,0-.19.33a.22.22,0,0,1-.08-.1,3.14,3.14,0,0,1-.5.5,9.13,9.13,0,0,1-.9.58.49.49,0,0,1-.13.27,3.1,3.1,0,0,1,.37.24,1.76,1.76,0,0,0,.73.39l0,0c.59.14.89.67,1.37,1a4.28,4.28,0,0,0,.53.32l0,.07c.5,0,.5.71,1,.67l-.09.07c.15-.1.16.19.32-.06V48c.46-.15.3.44.73.44l-.06,0c.11,0,.22,0,.23.13s0,0-.05,0c.07.39.5.33.73.51l-.1.08c.21,0,.34.23.53.29l0,0h.13l-.07.1C9.38,49.78,9.63,49.83,9.84,50Z" transform="translate(-0.02)"/><path class="cls-1" d="M11.93,51.31h0S11.92,51.32,11.93,51.31Z" transform="translate(-0.02)"/><path class="cls-1" d="M12.09,34.37h0S12.1,34.37,12.09,34.37Z" transform="translate(-0.02)"/><polygon class="cls-1" points="15.97 70.12 16.01 70.1 15.9 70.06 15.97 70.12"/><path class="cls-1" d="M15.75,69.84h-.07L16,70C16.15,69.94,15.64,69.89,15.75,69.84Z" transform="translate(-0.02)"/><path class="cls-1" d="M15.78,69.8c.07-.06-.07-.09-.12-.1C15.77,69.71,15.63,69.81,15.78,69.8Z" transform="translate(-0.02)"/><path class="cls-1" d="M15.61,64.27v0A0,0,0,0,0,15.61,64.27Z" transform="translate(-0.02)"/><path class="cls-1" d="M15.1,62.84H15c.21.26,0,.57.11.85l0,0a11.75,11.75,0,0,0,.28,2.1l-.06,0s.11.07.1.11-.05,0-.06,0c-.18.15.12.44,0,.54a.13.13,0,0,0,.15,0,10.83,10.83,0,0,0,.26,1.73.16.16,0,0,1-.14,0,2.25,2.25,0,0,1,.15,1.5c.08,0,.08-.05.16,0,.1-.16-.2-.29-.06-.44l.08,0c0-.11-.19,0-.09-.13s.1,0,.1,0c0-.22,0-.46-.16-.67.16-.05,0-.24.16-.33-.07-.06,0-.12-.16-.14.07-.79-.1-1.59-.11-2.4-.33-.37,0-.83-.07-1.28h0a.83.83,0,0,1-.09-.53l-.14-.14a20.25,20.25,0,0,0,.1-3.19A8,8,0,0,0,15.26,57s0,0,.06,0c-.08-.34,0-.65-.06-1h0c-.29-.78,0-1.66-.35-2.41a26.13,26.13,0,0,0-.23-3h.06c-.18-.78.12-1.56,0-2.35.1-.82-.45-1.64-.32-2.47.28-.52-.42-1.15-.14-1.64A3.76,3.76,0,0,0,14,41.27c.11-.91-.4-1.78-.11-2.67-.25-.39.21-.89.11-1.34l-.08,0c.22-.18-.36-.34,0-.47l0,0c.17-.1-.43-.17-.23-.24h-.09c0-.1.1,0,.13-.1s-.16,0-.12-.07c.36,0-.1-.25.3-.29,0,.06.15-.1.24,0A.14.14,0,0,0,14,36c-.18,0-.35-.06-.48.06h.13a.64.64,0,0,1-.16.05c0,.14-.2.18-.27.28h0c.16.06.08.16.06.21l-.07,0c-.15,0,.31.14,0,.11a4.51,4.51,0,0,1,.14.93c.1,0,0,.24.2.16a.43.43,0,0,0-.24.43s0,0,0,0c-.27.19.28.18-.06.37.25,0-.06.3.24.37a.3.3,0,0,1-.15,0c0,.29,0,.61,0,.86.23.19-.06.51.25.67-.05.15-.16.4,0,.6l0,0a1,1,0,0,0,.27.67c-.28.09-.22.19-.3.29.14.15.13.46.26.7-.13,0,.07.19-.12.22a2.6,2.6,0,0,1,.1,2.21h0c.11.09.35.18.49.26,0,0,0,0,0,0s-.14.26-.09.39a.08.08,0,0,1-.06,0c.09.12-.14.26,0,.4H14l.08.09c-.06,0-.16,0-.14,0,0,1.12.4,2.26.42,3.41l-.06,0,.12.22a.1.1,0,0,1-.06,0c-.09.29.1.57.09.85,0,0-.09,0-.13,0,.18.2-.21.34.16.42a.18.18,0,0,1-.13,0,5.64,5.64,0,0,1,.14,1.73c.35.46.08,1,.36,1.5h-.07a7.12,7.12,0,0,1,.11,2,6.11,6.11,0,0,0,.09.74h-.08c.33.46-.24,1,.12,1.47l-.11,0c.17.07,0,.3.24.26l-.09.09c.4.32-.16.61.11,1l-.07,0c.06.11.1.23,0,.31s0,0,0,0c-.26.35.05.72.05,1.07l-.13,0c.16.17,0,.49.1.72H15l.09.11H15C15,62.28,15.08,62.55,15.1,62.84Z" transform="translate(-0.02)"/><path class="cls-1" d="M15.31,65.82h0S15.31,65.82,15.31,65.82Z" transform="translate(-0.02)"/><path class="cls-1" d="M13.18,36.4l0,0S13.19,36.39,13.18,36.4Z" transform="translate(-0.02)"/><polygon class="cls-1" points="11.08 93.33 11.12 93.31 11.01 93.3 11.08 93.33"/><path class="cls-1" d="M10.84,93.18l-.07,0,.31.05C11.24,93.18,10.74,93.24,10.84,93.18Z" transform="translate(-0.02)"/><path class="cls-1" d="M10.87,93.15c.06-.06-.08,0-.13,0C10.85,93.09,10.72,93.18,10.87,93.15Z" transform="translate(-0.02)"/><path class="cls-1" d="M10.33,89.34h0S10.34,89.34,10.33,89.34Z" transform="translate(-0.02)"/><path class="cls-1" d="M9.82,88.34H9.71c.2.19,0,.41.1.61h0a5.8,5.8,0,0,0,.33,1.47H10s.11,0,.11.07a.08.08,0,0,1-.06,0c-.17.12.15.3,0,.38a.16.16,0,0,0,.16,0A4.92,4.92,0,0,0,10.62,92a.22.22,0,0,1-.13,0c.35.29.29.66.31,1,.08,0,.08-.05.16,0s-.22-.17-.1-.29h.08c0-.08-.19,0-.11-.07s.1,0,.1,0,0-.32-.22-.44c.16-.06,0-.17.12-.25-.07,0-.06-.07-.17-.07a15.9,15.9,0,0,0-.25-1.65c-.33-.24,0-.58-.11-.89h0a.43.43,0,0,1-.1-.37l-.14-.1a15.22,15.22,0,0,0,.19-2.23,4.6,4.6,0,0,0,.05-2.42s0,0,.06,0c0-.24.11-.45.07-.68h0c-.2-.59.21-1.14,0-1.72.14-.64.28-1.37.37-2.07l.06,0c0-.57.47-1,.55-1.56.31-.49,0-1.24.41-1.71.42-.22,0-.91.39-1.1C13,75,13,74.26,13,73.52c.42-.5.36-1.26,1-1.63-.06-.37.55-.39.67-.69l-.07,0c.26,0-.14-.4.19-.27v0c.18,0-.28-.35-.08-.27l-.07-.06c0-.08.09,0,.15,0s-.13-.09-.06-.11c.31.19,0-.2.37,0,0,0,.16,0,.19.16s.1-.11-.05-.2-.25-.24-.41-.25l.1.09-.15-.07c-.07.08-.24,0-.34,0h0c.11.13,0,.14,0,.16l-.07,0c-.14-.06.19.26,0,.09a2.36,2.36,0,0,1-.3.6c.07.08-.1.14.09.2a.31.31,0,0,0-.38.11s0,0,0,0c-.31,0,.16.26-.2.19.21.14-.17.14,0,.35a.41.41,0,0,1-.14-.06c-.11.18-.3.34-.39.49.12.23-.27.27-.06.53-.1.07-.29.17-.25.35l0,0a.58.58,0,0,0,0,.54c-.28-.08-.26,0-.38,0,.07.16-.07.35,0,.56-.13,0,0,.15-.18.08a1.49,1.49,0,0,1-.65,1.46h0c.07.1.27.26.37.37s0,0,0,0-.21.11-.21.21l-.05,0c0,.11-.21.12-.11.26h0l0,.09c-.06,0-.15-.06-.12-.08-.33.74-.29,1.63-.54,2.41l-.05,0,.06.18-.06,0c-.16.17,0,.42-.12.6,0,0-.08-.05-.12,0,.13.18-.28.17.06.33a.25.25,0,0,1-.12,0,2.92,2.92,0,0,1-.22,1.22c.25.4-.1.72.09,1.11h-.06c.14.49-.16.93-.17,1.41a3.09,3.09,0,0,0,0,.53H9.91c.27.36-.34.67,0,1l-.11,0c.17.07-.08.21.22.21l-.09.06c.37.26-.21.42,0,.72l-.07,0c.05.08.09.17,0,.22l0,0c-.28.23,0,.51,0,.76l-.13,0c.15.12,0,.35.08.51H9.73l.09.08H9.69A5.55,5.55,0,0,0,9.82,88.34Z" transform="translate(-0.02)"/><path class="cls-1" d="M10.07,90.44h0S10.07,90.44,10.07,90.44Z" transform="translate(-0.02)"/><path class="cls-1" d="M14.4,70.24h0S14.41,70.24,14.4,70.24Z" transform="translate(-0.02)"/><polygon class="cls-1" points="16.5 91.71 16.46 91.71 16.54 91.8 16.5 91.71"/><path class="cls-1" d="M16.62,92.09h.07l-.22-.28C16.29,91.85,16.75,92.08,16.62,92.09Z" transform="translate(-0.02)"/><path class="cls-1" d="M16.58,92.14c-.09,0,0,.12.08.15S16.73,92.17,16.58,92.14Z" transform="translate(-0.02)"/><path class="cls-1" d="M20,96.29h0Z" transform="translate(-0.02)"/><path class="cls-1" d="M21.63,96.49l.06-.09c-.34.06-.55-.26-.86-.3l0,0a13.11,13.11,0,0,0-2.12-.72l0,0s-.12.07-.15,0,0,0,0,0c-.07-.23-.48-.09-.51-.26,0,0-.1.06-.1.12l-.86-.31-.58-.2s-.13,0-.15-.07l0-.16-.08-.33s.07-.06.14-.06a2,2,0,0,1,.07-1.72c-.07,0-.1,0-.16,0-.15.16.1.38-.07.51l-.07,0c-.07.12.18.06.06.17s-.09,0-.1,0c0,.27-.1.54.08.8-.17.05,0,.26-.15.49.07.1.07.21.18.21v.27c0,.07.14.09.21.13L17,95l.59.24c.4.15.8.3,1.19.48.5-.12.77.42,1.25.52v0a.92.92,0,0,1,.55.17l.2-.06a8.4,8.4,0,0,0,1.85,1l1.47.66L23,96.87c-.29-.32-.58-.64-.86-1a6.29,6.29,0,0,0-3-2.26s0,0,.05,0c-.34-.15-.56-.42-.9-.54l0,0c-.44-.11-.83-.29-.9-.6a5.29,5.29,0,0,0-.27-1.2,30.82,30.82,0,0,0-.37-3.13h.06c-.21-.82,0-1.66-.13-2.48.06-.87-.52-1.73-.41-2.61.26-.56-.47-1.2-.19-1.73a4.23,4.23,0,0,0-.4-3c.08-1-.44-1.87-.18-2.83-.26-.42.19-.94.08-1.42l-.08,0c.22-.2-.37-.36,0-.5l0,0c.17-.11-.44-.18-.23-.25h-.09c0-.11.1,0,.13-.11s-.16,0-.12-.07c.36,0-.1-.27.3-.31,0,.06.15-.11.24,0a.14.14,0,0,0-.17-.2c-.18,0-.35-.06-.48.07h.13a.61.61,0,0,1-.16.06c0,.15-.19.19-.26.3h0c.17.06.08.17.06.23l-.07,0c-.15,0,.32.14,0,.12a5.06,5.06,0,0,1,.16,1c.1,0,0,.26.2.17a.46.46,0,0,0-.23.45s0,0,0,0c-.27.21.28.19,0,.39.25,0-.05.32.25.38a.28.28,0,0,1-.15,0c0,.31,0,.65,0,.91.24.2,0,.54.27.71a.75.75,0,0,0,0,.64l0,0a1.07,1.07,0,0,0,.29.71c-.28.1-.21.2-.29.32.15.15.14.49.28.73-.13.05.08.2-.12.23a2.93,2.93,0,0,1,.18,2.34h0c.11.09.36.18.5.27,0,0,0,0,0,0,0,.13-.13.28-.08.42a.08.08,0,0,1-.06,0c.1.12-.13.28,0,.42h0l.08.09c-.06,0-.16,0-.14,0,0,1.19.49,2.38.55,3.6l-.06,0,.13.23a.1.1,0,0,1-.06,0c-.08.31.13.6.13.9,0,0-.1,0-.13,0,.19.2-.19.37.18.44a.17.17,0,0,1-.13,0,6.33,6.33,0,0,1,.22,1.82c.37.48.13,1.07.44,1.57H17a2.19,2.19,0,0,0,.49,1,4.87,4.87,0,0,0,.89.61c.24.17.44.21.69.37l0,.07c.59,0,.68.82,1.29.87l-.1.06c.17-.08.2.24.37,0v.13c.52-.07.37.55.85.65l-.07,0c.12,0,.25.1.26.2s0,0-.06,0c.06.45.56.51.81.8l-.12.06c.16,0,.26.18.37.32l.12-.17a.83.83,0,0,0-.25-.1l0,0-.15,0,0-.11C22.22,96.63,21.91,96.61,21.63,96.49Z" transform="translate(-0.02)"/><path class="cls-1" d="M18.69,95.31h0S18.7,95.3,18.69,95.31Z" transform="translate(-0.02)"/><path class="cls-1" d="M14.88,73.08l0,0S14.89,73.07,14.88,73.08Z" transform="translate(-0.02)"/><polygon class="cls-1" points="9.15 92.4 9.11 92.4 9.21 92.45 9.15 92.4"/><path class="cls-1" d="M9.35,92.59l.07,0-.26-.16C9,92.42,9.46,92.6,9.35,92.59Z" transform="translate(-0.02)"/><path class="cls-1" d="M9.31,92.6c-.07,0,.05.06.1.08S9.46,92.64,9.31,92.6Z" transform="translate(-0.02)"/><path class="cls-1" d="M8.63,94.8h0S8.62,94.8,8.63,94.8Z" transform="translate(-0.02)"/><path class="cls-1" d="M8.89,95.51l.11,0c-.17-.12.07-.2,0-.33l0,0a2.23,2.23,0,0,0,.07-.9l.05,0s-.09-.06-.08-.08l.06,0c.19,0-.05-.21.1-.2A.25.25,0,0,0,9.11,94a2.1,2.1,0,0,0,0-.76l.13,0c-.22-.29,0-.45.08-.63-.07,0-.09,0-.16-.05s.14.18,0,.19l-.07,0c-.06,0,.18.07.07.08s-.09,0-.1,0-.1.17,0,.31c-.16,0,0,.09-.2.08.05,0,0,.06.13.11-.19.28-.15.65-.27,1,.25.25-.17.31-.13.52h0a.18.18,0,0,1,0,.24l.11.1a.84.84,0,0,0-.29.81c.08.33.38.5.67.67.45.27.86.64,1.46.35,0,0,0,0,0,.06.16,0,.26.11.41.07v0c.38-.19.71.15,1.06-.11a3.24,3.24,0,0,0,1.28-.07l.08.06c.09-.07.32,0,.6,0l.42,0c.12,0,.28,0,.16-.08l0,0a3.73,3.73,0,0,0-.81-.44c-.31-.14-.5-.22-.49-.33s-.12-.18-.3-.22-.3,0-.27-.21c0-.63-.48-.65-1-.73-.15-.38-.73-.34-.74-.85-.28,0,0-.45-.22-.55l-.05.06c.13-.21-.35.11-.12-.16h0c.11-.15-.37.22-.23.06l-.07.05s.07-.07.07-.12-.12.1-.1,0c.26-.24-.13,0,.17-.3,0,0,.09-.13.19-.15s0-.08-.17,0a1.49,1.49,0,0,0-.36.33l.11-.08-.11.12c0,.06-.11.19-.14.28h0c.14-.08.09,0,.09,0l0,.06c-.11.11.27-.15.06,0a.88.88,0,0,1,.32.25c.09-.05.06.08.19-.07-.14.18-.11.29-.08.31l0,0c-.16.25.25-.12,0,.17.19-.16,0,.15.27,0l-.1.11c.08.09.12.25.18.34.22-.09.09.22.35.06,0,.09,0,.25.14.23l0,0a.31.31,0,0,0,.37,0c-.18.23-.1.22-.13.32.14-.05.21.07.37,0-.08.11.1,0,0,.16a.5.5,0,0,1,.5.14c.08.1,0,.18-.12.25h0a3,3,0,0,1,.6-.12h-.06c.08,0-.15.07-.09.08h-.09c.15,0-.2,0,0,0H12.5s.17.07.46.2l.16.07a0,0,0,0,1,0,0s-.05,0-.13,0l-.11-.06.16.11-.11-.06c-.25-.1,0,.08-.12.06l-.18-.13c.19.18-.33-.23.09.14l-.15-.13c0,.13-.17.12-.28.05,0,.16-.15.16-.25.16a.34.34,0,0,0-.32.09v-.06c-.29.2-.54-.09-.82-.1-.11,0-.2,0-.31,0l0-.08c-.27.25-.32-.37-.6-.1l0-.1c-.08.15-.1-.09-.18.19v-.1c-.26.33-.18-.25-.42-.07l0-.06c-.06,0-.13.05-.13,0l0,0c0-.31-.25-.06-.4-.16L9.11,96c-.17.08-.14-.1-.23-.14l.06,0h-.1l.13,0C9,95.7,8.87,95.62,8.89,95.51Z" transform="translate(-0.02)"/><path class="cls-1" d="M9.16,94.3h0Z" transform="translate(-0.02)"/><path class="cls-1" d="M10,93.79v0S10,93.78,10,93.79Z" transform="translate(-0.02)"/><polygon class="cls-1" points="18.86 50.76 18.9 50.77 18.81 50.71 18.86 50.76"/><path class="cls-1" d="M18.73,50.53l-.07,0,.24.2C19.06,50.74,18.61,50.51,18.73,50.53Z" transform="translate(-0.02)"/><path class="cls-1" d="M18.76,50.52c.08,0,0-.07-.08-.1S18.62,50.46,18.76,50.52Z" transform="translate(-0.02)"/><path class="cls-1" d="M19.95,47.6h0S20,47.61,19.95,47.6Z" transform="translate(-0.02)"/><path class="cls-1" d="M19.84,46.66l-.1-.05c.12.22-.13.3-.12.48l0,0a4,4,0,0,0-.27,1.19l0,0s.08.08.07.1a.09.09,0,0,1-.05,0c-.2,0,0,.28-.14.27,0,0,.07.07.13.08a3.66,3.66,0,0,0-.18,1,.27.27,0,0,1-.13,0c.16.37-.06.59-.22.83.07,0,.09,0,.15.06s-.11-.23.05-.25l.07,0c.07,0-.17-.09-.06-.11s.09,0,.1,0,.14-.23,0-.41c.16,0,.06-.12.22-.11,0-.06,0-.08-.11-.13a8.42,8.42,0,0,0,.49-1.28c-.21-.32.24-.41.25-.69h0a.3.3,0,0,1,.05-.31l-.09-.13c.49-.44.55-1.08.9-1.59.17-.3.37-.57.51-.86a1.81,1.81,0,0,0,.16-.46,1.07,1.07,0,0,0,0-.68s0,0,.06,0a1.29,1.29,0,0,0-.29-.66l0,0c-.47-.23-.49-.81-1-1a8.94,8.94,0,0,0-1-1.37l.05,0c-.36-.3-.32-.85-.65-1.17-.13-.46-.82-.59-.92-1.09.1-.41-.66-.36-.54-.76.1-.73-.46-1-1-1.31-.14-.52-.79-.71-.77-1.32-.32-.07,0-.57-.24-.75l-.06.05c.15-.21-.39,0-.13-.24h0c.12-.14-.41.13-.25,0l-.08,0c-.05,0,.08-.06.08-.12s-.14.08-.12,0c.3-.2-.15-.08.19-.31,0,0,.1-.13.21-.11s0-.11-.19,0a1.1,1.1,0,0,0-.4.28l.12-.06-.13.11c0,.08-.13.19-.16.28h0c.15-.05.11,0,.1.08l-.05.05c-.12.1.3-.09.07,0a1.5,1.5,0,0,1,.35.41c.1,0,.07.12.21,0-.16.16-.13.3-.1.34s0,0,0,0c-.19.24.29,0,0,.22.22-.12,0,.18.3.07l-.12.09c.09.14.11.34.18.46.25,0,.08.3.38.22,0,.11,0,.29.13.32h0a.43.43,0,0,0,.4.21c-.22.19-.14.21-.18.31.16,0,.23.17.4.22-.1.09.11.06,0,.17.52.11.67.58.66,1.07h0c.12,0,.35-.09.49-.12,0,0,0,0,0,0s0,.2,0,.25l-.06,0c.11,0,0,.21.12.19l0,0h.09c-.05,0-.14.09-.13.05.3.57.94.94,1.26,1.51H18.6l.16,0-.06,0c0,.19.24.24.31.38s-.09,0-.11.07c.21,0-.09.28.25.13A.32.32,0,0,1,19,41a1.86,1.86,0,0,1,.59.79c.42,0,.34.47.72.56l-.06,0c.39.18.41.64.65.93,0,.13.16.18.17.34H21c.28.29-.43.38-.21.76l-.09-.06c.14.11-.12.13.15.23h-.1c.28.33-.3.25-.16.56l-.06,0c0,.08,0,.16,0,.18s0,0,0,0c-.33.07-.14.39-.23.57l-.11-.07c.1.15-.1.26-.09.41l-.05,0,.05.09-.11,0A3.69,3.69,0,0,0,19.84,46.66Z" transform="translate(-0.02)"/><path class="cls-1" d="M19.29,48.28h0Z" transform="translate(-0.02)"/><path class="cls-1" d="M14.31,34.06v0S14.31,34.05,14.31,34.06Z" transform="translate(-0.02)"/><path class="cls-1" d="M16.46,10.84q.06,1.76.26,3.51c0,.28,1,.18,1-.11q-.2-1.75-.26-3.51c0-.27-1-.19-1,.11Z" transform="translate(-0.02)"/><path class="cls-1" d="M21.73,19.24H20.57c-.43,0-.88.42-.2.42h1.17c.43,0,.88-.42.2-.42Z" transform="translate(-0.02)"/><path class="cls-1" d="M19.38,3.61a3.93,3.93,0,0,1,3,3.56L23,7a6.13,6.13,0,0,1-4.15-2.41l-.92.15.36.63.75-.17a6.24,6.24,0,0,1-4.14-2.85c-.16-.25-1.11-.13-1,.1a6.94,6.94,0,0,0,4.6,3.1c.13,0,.75.09.75-.17a.8.8,0,0,0-.49-.84c-.13-.08-1.12-.11-.92.15a7.11,7.11,0,0,0,4.85,2.7c.09,0,.66,0,.63-.19a4.4,4.4,0,0,0-3.49-3.91c-.3-.07-1.13.19-.51.34Z" transform="translate(-0.02)"/><path class="cls-1" d="M13.78,2.77a9.19,9.19,0,0,0-3,4c-.27.74-.53,5.83-1.75,5.48-.12,0-1-.08-.83.23.62,1.18,1.63,2.92,1.55,4.28-.12,2.13-1.89,1.94-3.5,1.77-1.9-.2-2.29-.28-3.34-1.7A8.56,8.56,0,0,1,1.59,8.53a11.16,11.16,0,0,1,5.63-5.9,17.12,17.12,0,0,1,5.3-1.44C14,1,18.23.38,19.19,1.7c.17.24,1.12.08,1-.15-.93-1.29-3-1-4.46-.95a24.75,24.75,0,0,0-6.79.87C4.65,2.71.66,5.95.07,10.58c-.47,3.73,2.11,8.86,6.3,8.87,1.13,0,3.34-.18,4.13-1.13,1.17-1.38-.67-4.68-1.34-6l-.83.23A2.09,2.09,0,0,0,11,11.7c.57-1,.22-2.67.46-3.78a8.83,8.83,0,0,1,3.22-5c.28-.23-.66-.34-.87-.17Z" transform="translate(-0.02)"/><path class="cls-1" d="M13.75,25.86A36.09,36.09,0,0,1,2.12,40.69c-1.26,1-2.8,2.75-1.18,4.17a3.59,3.59,0,0,0,1.92.69c2.22.29,4.51,0,6.38,1.72.15.13.73.35.86.11a7.1,7.1,0,0,0,.79-4.51c0-.27-1-.48-1-.17a6.94,6.94,0,0,1-.79,4.39l.86.11a8.06,8.06,0,0,0-4.78-2.07c-.47,0-1,0-1.45,0-2.06-.27-3-1.88-1.65-3.33,1-1,2.29-1.75,3.34-2.66a34.71,34.71,0,0,0,9.24-13c.1-.24-.84-.56-1-.28Z" transform="translate(-0.02)"/><path class="cls-1" d="M15,26.76a24.28,24.28,0,0,0,1.93,4.06,14.69,14.69,0,0,1,1.27,4.92,30.2,30.2,0,0,0,.78,4,26.73,26.73,0,0,0,.85,2.56c.12.3,1.2,2.48.41,2.43s-.23.4.2.42A2.59,2.59,0,0,0,21.78,45a.11.11,0,0,0,.07-.14,35.89,35.89,0,0,1-2.92-10.53c-.44-2.77-2.22-4.83-3-7.47-.08-.27-1.05-.34-1-.05Z" transform="translate(-0.02)"/><path class="cls-1" d="M16.2,28.64a234.72,234.72,0,0,0,.68,29q.62,7.22,1.7,14.4c.19,1.26.52,2.55.61,3.82.15,2.09-1.26,2.5-3,2.82a27.53,27.53,0,0,1-10-.12l.54.39q2.41-14,3.44-28.22c0-.32-.93-.55-.94-.33q-1,14.19-3.44,28.22c0,.22.39.36.54.39a30.68,30.68,0,0,0,6.8.56c1.77-.07,4.57-.07,6.13-1.06,1.75-1.11.7-3.66.45-5.3q-.66-4.3-1.17-8.62A233.2,233.2,0,0,1,17.14,29c0-.33-.94-.55-.94-.33Z" transform="translate(-0.02)"/></g></g></svg>