<svg xmlns="http://www.w3.org/2000/svg" viewBox="0 0 30.87 92.66"><defs><style>.cls-1{fill:#0a2117;}</style></defs><title>figureB</title><g id="Layer_2" data-name="Layer 2"><g id="Layer_1-2" data-name="Layer 1"><polygon class="cls-1" points="14.54 2.25 14.56 2.3 14.65 2.21 14.54 2.25"/><path class="cls-1" d="M16,2.43s0-.05,0-.07l-.35.22C15.7,2.77,15.92,2.29,16,2.43Z" transform="translate(-0.9 -0.28)"/><path class="cls-1" d="M16,2.48c.09.1.17,0,.21-.07S16.06,2.32,16,2.48Z" transform="translate(-0.9 -0.28)"/><path class="cls-1" d="M24.47,7.16l0,0S24.46,7.16,24.47,7.16Z" transform="translate(-0.9 -0.28)"/><path class="cls-1" d="M25.67,9.44l.11,0c-.24-.48-.14-1.07-.4-1.55l0,0A5.23,5.23,0,0,0,22.85,5.1l.07,0c-.07,0-.17,0-.22,0s0,0,.07,0c-.13-.31-.74-.34-.82-.55a.1.1,0,0,0-.14.1,13.39,13.39,0,0,0-2.9-1.19s0-.09,0-.15a10.4,10.4,0,0,1-2.6-.74c-.05.07.07.1,0,.16.25.17.56,0,.77.17L17,2.88c.17.1.09-.17.25,0s0,.09,0,.1a3.76,3.76,0,0,0,1.18.26c0,.19.4.16.48.37.12,0,.21,0,.29,0a25.07,25.07,0,0,1,3.77,2c.74.16,1.07,1,1.55,1.56l0,0a1.6,1.6,0,0,1,.47.78l.21.2a14.4,14.4,0,0,1-.36,5.65c-.5,2.17-1.13,3.95-1.56,6.05,0,0,0,0,0-.06a13.48,13.48,0,0,1-.75,1.57l0,0a7,7,0,0,1-2.88,3.11c-1.59.7-3.55.06-5.3-.28l0-.06a13.65,13.65,0,0,1-3.9-1.68c-1.13-.86-2.61-1.65-3.27-3.06-.24-.91-1.34-1.75-1.32-2.71-.07-1.84-.56-3.42-.69-5.27.3-1.61.36-3.38,1.37-4.72.14-.79,1-1.29,1.42-2l-.08,0c.36-.1.14-.75.54-.67V4c.24,0-.08-.56.15-.49l0-.08c.11-.17.09,0,.21,0s-.1-.12,0-.17c.28.23.28-.4.58-.12-.07.07.22,0,.12.22.08,0,.28-.25.14-.36s-.12-.36-.36-.32l.06.13c-.14,0-.08,0-.17-.07-.2.17-.36.06-.55.15h0c0,.21-.18.26-.26.33l-.08,0c-.16-.05,0,.43-.12.2-.31.45-.69,1-1,1.46,0,.13-.25.39,0,.38-.27,0-.56.37-.62.53,0,0,0,0,0-.05-.41.16.06.46-.4.58.2.15-.3.48-.1.76a.18.18,0,0,1-.15,0c-.21.51-.52,1.05-.65,1.51.09.44-.34.92-.12,1.32A2.05,2.05,0,0,0,4.67,11l0,0a2.58,2.58,0,0,0,.13,1.32c-.29.12-.23.32-.33.52.13.3.13.91.29,1.35-.12.08.11.37-.08.41A30.66,30.66,0,0,1,5.86,18.6h0a5.24,5.24,0,0,0,.68.27s0,0-.05,0c.15.19.1.49.27.68,0,0,0,0-.08,0,.19.15.14.49.42.63l0,0,.16.1c-.05,0-.13.09-.17,0a8.23,8.23,0,0,0,2.38,2.24,16.68,16.68,0,0,0,3,1.4l-.1,0,.43,0a.08.08,0,0,1-.06,0,7.2,7.2,0,0,0,1.54.42s-.1.07,0,.12c.41-.07.54.37.81.07a.11.11,0,0,1,0,.12,26.24,26.24,0,0,0,3.26.43c.46-.19.93-.3,1.39-.48a2.67,2.67,0,0,0,1.19-.81l0,.05a13.24,13.24,0,0,0,2.28-2.9,9.07,9.07,0,0,0,.53-1.27l.08,0c0-.9.9-1.62.81-2.6l.09.09c-.13-.18.2-.51-.1-.53l.13-.13c-.23-.68.43-1,.34-1.83l.06.06a1,1,0,0,1,.08-.57s0,0,0,.07c.39-.56.22-1.3.34-1.95l.12.09c-.1-.34.12-.9.09-1.33l.06,0L25.65,11h.12A7.76,7.76,0,0,0,25.67,9.44Z" transform="translate(-0.9 -0.28)"/><path class="cls-1" d="M22.76,5h0S22.78,5,22.76,5Z" transform="translate(-0.9 -0.28)"/><path class="cls-1" d="M8.4,2.9l.07,0S8.41,2.89,8.4,2.9Z" transform="translate(-0.9 -0.28)"/><polygon class="cls-1" points="14.25 70.8 14.29 70.78 14.18 70.73 14.25 70.8"/><path class="cls-1" d="M14.92,70.72l-.07,0,.3.21C15.32,70.85,14.81,70.78,14.92,70.72Z" transform="translate(-0.9 -0.28)"/><path class="cls-1" d="M15,70.66c.07-.08-.07-.12-.12-.14C14.94,70.55,14.8,70.68,15,70.66Z" transform="translate(-0.9 -0.28)"/><path class="cls-1" d="M14.89,63.39v0A0,0,0,0,0,14.89,63.39Z" transform="translate(-0.9 -0.28)"/><path class="cls-1" d="M14.41,61.49l-.11,0c.2.35,0,.75.08,1.13l0,0a20.11,20.11,0,0,0,.23,2.77l-.06,0s.11.1.1.15-.05,0-.06,0c-.18.2.12.58,0,.71a.11.11,0,0,0,.15,0,18.32,18.32,0,0,0,.22,2.28s-.08,0-.14,0a3.82,3.82,0,0,1,.13,2c.08,0,.08-.07.16,0,.1-.21-.19-.39,0-.58l.08,0c0-.14-.19,0-.09-.17s.1,0,.1,0a1.77,1.77,0,0,0-.15-.88c.16-.07,0-.32.16-.43-.06-.08,0-.15-.16-.18.09-1-.07-2.1-.06-3.16-.32-.5.06-1.09,0-1.68h0a1.4,1.4,0,0,1-.08-.7l-.13-.19a36.33,36.33,0,0,0,.2-4.19,13.92,13.92,0,0,0-.11-4.54s0,0,.06,0c-.06-.45.05-.86,0-1.28h0c-.26-1,0-2.18-.25-3.19,0-1.23,0-2.62-.08-3.92h.06c-.13-1,.2-2,.1-3.08.14-1.07-.36-2.2-.17-3.27.31-.67-.35-1.54,0-2.17a6.45,6.45,0,0,0-.11-3.82c.17-1.19-.27-2.37.08-3.52-.22-.54.28-1.14.21-1.75l-.08,0c.24-.22-.33-.48,0-.62l0,0c.18-.11-.42-.27-.21-.34l-.09,0c0-.14.1,0,.14-.12s-.16,0-.11-.1c.36,0-.08-.34.33-.35,0,.08.16-.12.24.05,0,0,0-.28-.15-.26s-.34-.11-.48,0l.13,0c-.13,0-.07,0-.17.05,0,.19-.21.21-.29.34h0c.16.09.06.22,0,.29l-.07,0c-.15,0,.3.21,0,.15a7.8,7.8,0,0,1,.07,1.23c.1.06,0,.32.19.23A.6.6,0,0,0,14,29s0,0,0,0c-.29.23.27.27-.09.48.25,0-.08.38.21.5a.23.23,0,0,1-.15,0c0,.38-.1.8-.11,1.12.22.28-.1.67.2.9a1.12,1.12,0,0,0-.07.79l0,0a1.57,1.57,0,0,0,.22.91c-.29.09-.23.22-.32.36.13.21.09.62.21.94-.13,0,.06.26-.14.28a4.46,4.46,0,0,1,0,2.91h0c.11.12.34.26.48.39,0,0,0,0,0,0,0,.17-.15.33-.12.5,0,0,0,0-.06,0,.09.16-.15.33,0,.52H14l.07.12c-.06,0-.16,0-.14-.07-.06,1.48.27,3,.22,4.52L14.1,44l.11.29a.09.09,0,0,1-.06,0c-.11.37.07.76,0,1.13,0,0-.09-.06-.13,0,.17.27-.23.43.13.57a.14.14,0,0,1-.13,0,9.75,9.75,0,0,1,.05,2.28c.33.63,0,1.34.29,2h-.07a12.6,12.6,0,0,1,0,2.63c0,.37.05.61.05,1h-.08c.31.62-.28,1.3.06,1.94l-.11,0c.17.1-.06.39.23.35l-.09.11c.39.44-.18.8.07,1.33l-.07,0a.52.52,0,0,1,0,.41s0,0,0,0c-.28.45,0,.94,0,1.41l-.13-.05c.15.23,0,.65.08.95l-.06,0,.09.15H14.3C14.29,60.75,14.4,61.11,14.41,61.49Z" transform="translate(-0.9 -0.28)"/><path class="cls-1" d="M14.55,65.42h0S14.55,65.41,14.55,65.42Z" transform="translate(-0.9 -0.28)"/><path class="cls-1" d="M13.95,26.59l0,0S14,26.57,13.95,26.59Z" transform="translate(-0.9 -0.28)"/><polygon class="cls-1" points="9.26 87.69 9.27 87.65 9.15 87.69 9.26 87.69"/><path class="cls-1" d="M9.73,88s0,0,0,.07a1.22,1.22,0,0,1,.33-.14C10,87.67,9.72,88.07,9.73,88Z" transform="translate(-0.9 -0.28)"/><path class="cls-1" d="M9.69,87.91c-.05-.1-.13,0-.16.07S9.65,88.05,9.69,87.91Z" transform="translate(-0.9 -0.28)"/><path class="cls-1" d="M9.43,91.58h0S9.43,91.59,9.43,91.58Z" transform="translate(-0.9 -0.28)"/><path class="cls-1" d="M9.83,90.67l-.09-.12c.12.37,0,.37,0,.58l0-.06a2.06,2.06,0,0,0-.53-.27,2.18,2.18,0,0,1-.64-.4l.06,0s-.12,0-.13,0a.07.07,0,0,1,.06,0c.08-.19-.28-.22-.19-.36a.15.15,0,0,0-.15,0,1.55,1.55,0,0,1-.21-.72,2.05,2.05,0,0,1,.17-.81s.08,0,.12.07A.92.92,0,0,1,9.5,87.9c0-.07,0-.1,0-.16-.23-.15-.39.16-.57.06v-.08c-.14,0,0,.19-.12.13s0-.1,0-.09c-.24.12-.5.22-.53.5-.16-.08-.17.17-.34.15,0,.09,0,.13.05.21a1.31,1.31,0,0,0-.24.56,1.4,1.4,0,0,0,.06.63,2.77,2.77,0,0,0,.57.93c.22,0,.34.15.5.33a1.5,1.5,0,0,0,.56.46.11.11,0,0,1,0,0,.61.61,0,0,1,.45.19c0-.06.05,0,0-.19a4.38,4.38,0,0,0,.43-1.34,8.42,8.42,0,0,1,.27-1.17A4.53,4.53,0,0,0,11,86.59s0,0,.06,0c0-.26.16-.45.15-.69h0c-.12-.63.32-1.17.18-1.78A17.52,17.52,0,0,0,11.92,82L12,82c0-.6.51-1,.57-1.62.31-.52,0-1.27.38-1.79.41-.26-.08-.93.34-1.16.68-.53.61-1.28.58-2,.39-.56.2-1.34.75-1.81-.1-.36.48-.5.55-.83l-.08,0c.26,0-.21-.37.15-.31v0c.19,0-.34-.29-.12-.25l-.08,0c0-.08.1,0,.15,0s-.15-.07-.08-.09c.34.12,0-.21.38-.06,0,0,.17,0,.21.12s.08-.14-.09-.19-.29-.18-.45-.16l.12.06-.16,0c-.05.09-.24,0-.34.07h0c.13.11,0,.14,0,.17h-.07c-.15,0,.24.22,0,.09a2.47,2.47,0,0,1-.19.66c.08.07-.07.16.13.19a.32.32,0,0,0-.36.18s0,0,0,0c-.31,0,.2.23-.18.22.23.11-.15.17.1.34l-.14,0c-.08.2-.25.39-.32.55.15.22-.22.32,0,.54-.1.08-.28.21-.22.39l0,0a.6.6,0,0,0,0,.55c-.29,0-.26,0-.37.08.09.15,0,.36,0,.57-.13,0,0,.16-.18.1A1.5,1.5,0,0,1,12.43,78h0c.08.1.28.24.39.35s0,0,0,0-.2.13-.2.23l-.05,0c.05.11-.2.13-.09.28h-.05l0,.09c-.06,0-.15-.05-.12-.08-.31.77-.24,1.68-.52,2.48l0,0,.06.19-.06,0c-.16.17,0,.43-.13.62,0,0-.08-.06-.12,0,.13.19-.28.17,0,.34a.25.25,0,0,1-.12,0,3.19,3.19,0,0,1-.28,1.25c.22.42-.16.73,0,1.15l-.06,0c.1.51-.25.94-.32,1.43a3,3,0,0,0-.07.54H10.6c.23.4-.43.65-.17,1.07l-.1,0c.16.09-.1.2.19.24l-.1,0c.33.32-.27.4-.08.74l-.06,0c0,.09.06.19,0,.23s0,0,0,0c-.32.19-.07.52-.13.78L10,89.5c.12.15-.06.36,0,.53l-.06,0,.07.1-.12,0C9.78,90.23,9.85,90.45,9.83,90.67Z" transform="translate(-0.9 -0.28)"/><path class="cls-1" d="M8.5,90.36h0S8.5,90.36,8.5,90.36Z" transform="translate(-0.9 -0.28)"/><path class="cls-1" d="M14.73,71.89l0,0S14.74,71.89,14.73,71.89Z" transform="translate(-0.9 -0.28)"/><polygon class="cls-1" points="21.76 91.36 21.8 91.35 21.7 91.3 21.76 91.36"/><path class="cls-1" d="M22.47,91.34H22.4l.28.19C22.85,91.49,22.35,91.38,22.47,91.34Z" transform="translate(-0.9 -0.28)"/><path class="cls-1" d="M22.5,91.3c.08-.05-.06-.1-.1-.12S22.35,91.3,22.5,91.3Z" transform="translate(-0.9 -0.28)"/><path class="cls-1" d="M20.48,86h0Z" transform="translate(-0.9 -0.28)"/><path class="cls-1" d="M19.77,86.8l.12.09a.58.58,0,0,1-.12-.44v-.07s.05,0,.08,0a.26.26,0,0,0,.14,0l0,.05a4,4,0,0,1,.78.28,2.65,2.65,0,0,1,.81.64h-.06c.05,0,.13,0,.14,0s0,0-.07,0c-.07.21.32.33.23.49a.13.13,0,0,0,.16,0,8.62,8.62,0,0,1,.55,1.72s-.07,0-.14,0a2,2,0,0,1,0,1.52c.08,0,.09,0,.16,0,.12-.15-.16-.31,0-.45l.07,0c.06-.1-.19,0-.08-.14s.09,0,.1,0c0-.23.07-.48-.11-.7.16-.05,0-.25.16-.34-.07-.06-.05-.12-.16-.14A3.8,3.8,0,0,0,21.75,87a1,1,0,0,1-.53-.43,1.4,1.4,0,0,0-.74-.53.05.05,0,0,1,0,0,2.27,2.27,0,0,1-.66-.1l-.1.12c-.13,0-.31-.1-.34,0a5.81,5.81,0,0,0,0,.91l.05.51.06.36c.09.48.22.95.33,1.43a5,5,0,0,0,1.55,3l1,.77-.41-1-.05-.12s0,0,.06,0c-.09-.33,0-.65-.08-1h0c-.33-.76-.12-1.64-.51-2.35a15.67,15.67,0,0,0-.6-2.86h.06c-.3-.73-.16-1.54-.47-2.26-.08-.82-.82-1.46-.91-2.28.12-.58-.73-1-.61-1.5a3.36,3.36,0,0,0-1.27-2.54c-.24-.87-1.05-1.43-1.15-2.35-.39-.26-.14-.89-.38-1.26l-.06,0c.15-.24-.45-.2-.16-.43h0c.13-.14-.46,0-.29-.16l-.09,0c-.06-.09.09,0,.09-.13s-.15,0-.13,0c.33-.13-.16-.22.22-.35,0,.05.12-.13.24,0s0-.2-.2-.13-.35,0-.45.17l.13,0a.66.66,0,0,1-.15.09c0,.14-.15.22-.19.35h0c.17,0,.12.14.12.2l-.06,0c-.13.09.34,0,.08.1a7.13,7.13,0,0,1,.44.85c.11,0,.1.23.24.08a.42.42,0,0,0-.06.48s0,0,0,0c-.18.29.33.06.09.36.23-.09.07.29.37.24a.3.3,0,0,1-.12.09c.13.26.2.57.31.79.29.08.15.48.49.49,0,.16,0,.42.2.55h0c.12.19.26.44.49.5-.23.19-.14.25-.18.38.19.08.28.37.48.53-.11.09.13.15,0,.24a2.31,2.31,0,0,1,.77,2h0c.13,0,.39.06.55.1,0,0,0,0,0,0s-.06.28,0,.39H19c.12.08-.06.28.12.37l0,0,.1.06c-.06,0-.15,0-.15,0,.29,1,.93,2,1.16,3.13l-.07,0,.16.18h-.07c0,.29.2.53.23.8,0,0-.1,0-.13,0,.22.16-.16.36.22.38a.19.19,0,0,1-.13,0,4.72,4.72,0,0,1,.36,1.64c.39.41.19,1,.5,1.42h-.07a5.86,5.86,0,0,1,.22,1.94,5.88,5.88,0,0,0,.1.72h-.08l0,0,.22-.08c-.48-.23-.26-.93-.76-1.18l.11,0c-.19,0-.08-.28-.33-.13l0-.12c-.5-.13-.08-.61-.46-.88h.07c-.09-.08-.17-.18-.14-.28s0,0,.06,0c.15-.4-.24-.65-.32-1h.14c-.19-.13-.12-.46-.23-.66H20l-.1-.09.12,0a1.67,1.67,0,0,0-.11-.37A1.81,1.81,0,0,1,19.77,86.8Z" transform="translate(-0.9 -0.28)"/><path class="cls-1" d="M21.62,87.42h0S21.61,87.42,21.62,87.42Z" transform="translate(-0.9 -0.28)"/><path class="cls-1" d="M15,72.91v0S15,72.89,15,72.91Z" transform="translate(-0.9 -0.28)"/><polygon class="cls-1" points="30.86 57.15 30.87 57.11 30.78 57.17 30.86 57.15"/><path class="cls-1" d="M31.43,57.47s0,0,0,.06l.29-.16C31.73,57.2,31.4,57.59,31.43,57.47Z" transform="translate(-0.9 -0.28)"/><path class="cls-1" d="M31.41,57.42c0-.09-.11,0-.14,0S31.34,57.56,31.41,57.42Z" transform="translate(-0.9 -0.28)"/><path class="cls-1" d="M27.32,54.34h0Z" transform="translate(-0.9 -0.28)"/><path class="cls-1" d="M26,53.77l-.09.07c.32,0,.39.38.64.5l0,0a10,10,0,0,0,1.64,1.13l-.06,0s.12,0,.14,0a.06.06,0,0,1-.06,0c0,.23.4.17.38.33,0,0,.11,0,.12-.1a8.28,8.28,0,0,0,1.41.81s0,.08-.06.13a2,2,0,0,1,1.22.69c.06-.05,0-.1.09-.14s-.33,0-.36-.19l.06-.05c-.05-.1-.12.15-.15,0s.06-.07.05-.09c-.19-.09-.33-.27-.59-.24.06-.16-.18-.13-.15-.3-.08,0-.12,0-.2.05-.52-.52-1.22-.84-1.78-1.33-.47,0-.54-.55-.93-.74l0,0a.73.73,0,0,1-.43-.27h-.19c-.52-.88-1.38-1.42-2-2.24a8.57,8.57,0,0,0-2.18-2.36s0,0,.06,0c-.24-.21-.33-.51-.56-.71l0,0c-.67-.42-.87-1.27-1.52-1.7-.47-.73-1-1.57-1.55-2.32l.06,0c-.46-.59-.55-1.36-.95-2-.2-.74-1-1.24-1.14-2,.11-.56-.77-.87-.62-1.42a3.66,3.66,0,0,0-1-2.54c-.1-.85-.73-1.56-.59-2.45-.32-.33.09-.86-.06-1.26l-.07,0c.2-.2-.39-.27-.07-.44h0c.16-.11-.45-.11-.25-.2h-.09c0-.09.1,0,.12-.11s-.16,0-.12-.05c.35-.08-.12-.23.27-.3,0,.05.14-.11.25,0s0-.2-.18-.16-.35,0-.47.1h.13a.67.67,0,0,1-.16.07c0,.13-.18.18-.24.29h0c.17,0,.09.14.08.2l-.07,0c-.15.06.33.09.06.1a4.1,4.1,0,0,1,.24.86c.11,0,0,.23.21.12a.4.4,0,0,0-.18.44s0,0,0,0c-.24.22.31.13,0,.36.25,0,0,.29.3.3a.31.31,0,0,1-.14.05c.06.27.05.59.1.82.26.14,0,.5.37.58,0,.15-.07.41.1.56h0c.08.21.18.47.41.56-.25.15-.17.23-.23.35.17.1.22.4.42.57-.11.08.12.16-.06.23a2.56,2.56,0,0,1,.72,2h0c.13,0,.39,0,.55.07,0,0,0,0,0,0s0,.28,0,.38h-.07c.12.07,0,.28.14.35l0,0,.1.05c-.06,0-.15.06-.15,0,.39,1,1.15,1.86,1.64,2.82h-.07l.2.13h-.06c0,.29.33.45.43.69,0,0-.1,0-.11.06.24.08,0,.39.32.29a.19.19,0,0,1-.11.06,5.09,5.09,0,0,1,.91,1.37c.51.21.57.78,1,1l-.05,0c.52.37.71,1,1.13,1.5a5.4,5.4,0,0,0,.47.52l-.06.06c.51.16.38.89.94,1l-.1,0c.18-.06.13.25.34,0V51c.49,0,.23.56.68.66l-.07,0c.11,0,.22.1.23.19s0,0-.06,0c0,.42.48.47.7.72l-.12.06c.22,0,.32.33.53.43l-.05,0h.14l-.08.09C25.54,53.49,25.81,53.59,26,53.77Z" transform="translate(-0.9 -0.28)"/><path class="cls-1" d="M28.19,55.54h0S28.19,55.54,28.19,55.54Z" transform="translate(-0.9 -0.28)"/><path class="cls-1" d="M13.84,32.29l0,0S13.85,32.27,13.84,32.29Z" transform="translate(-0.9 -0.28)"/><polygon class="cls-1" points="0.24 54.44 0.28 54.43 0.18 54.38 0.24 54.44"/><path class="cls-1" d="M1,54.45H.9l.25.2C1.33,54.62.85,54.46,1,54.45Z" transform="translate(-0.9 -0.28)"/><path class="cls-1" d="M1,54.42c.08,0,0-.09-.09-.11S.86,54.39,1,54.42Z" transform="translate(-0.9 -0.28)"/><path class="cls-1" d="M2.66,50.23a.07.07,0,0,0,0,0S2.66,50.23,2.66,50.23Z" transform="translate(-0.9 -0.28)"/><path class="cls-1" d="M2.85,49l-.09-.07c.05.29-.25.41-.3.66l0,0a6,6,0,0,0-.63,1.66l0,0s.07.1,0,.13a.07.07,0,0,1,0,0c-.22,0-.06.38-.22.4,0,0,.07.09.13.09a5.31,5.31,0,0,0-.33,1.4.2.2,0,0,1-.14,0c.16.48-.09.83-.23,1.21.07,0,.09,0,.16,0,.13-.1-.12-.28,0-.36l.07,0c.07-.07-.18-.07-.06-.13s.09,0,.1,0c0-.18.15-.34,0-.56.17,0,.06-.19.24-.2,0-.07,0-.1-.11-.16.3-.57.41-1.23.73-1.82-.15-.43.37-.58.45-1l0,0a.57.57,0,0,1,.15-.42l-.05-.17a22.73,22.73,0,0,0,1.58-2.14,5.85,5.85,0,0,0,1.55-2.44s0,0,0,.05c.11-.27.35-.42.45-.68l0,0c.16-.7.81-1.14.92-1.83a13.82,13.82,0,0,0,1.22-2.18l.05,0c.21-.64.81-1,1-1.68.44-.54.31-1.41.77-1.95.46-.26.08-1,.54-1.27a2.58,2.58,0,0,0,.8-2.3c.43-.65.26-1.5.82-2.08-.1-.4.48-.61.54-1H13c.27-.07-.23-.39.13-.37v0c.19,0-.36-.28-.14-.26l-.08,0c0-.09.1,0,.15,0s-.15-.05-.09-.09c.35.09,0-.23.38-.13,0,0,.17,0,.22.1s.07-.17-.1-.2S13.18,29,13,29l.12.05H13c0,.11-.24.07-.34.13h0c.14.1,0,.15,0,.19h-.08c-.16,0,.25.21,0,.1a2.77,2.77,0,0,1-.16.76c.09.07-.07.19.13.19a.36.36,0,0,0-.36.24s0,0,0,0c-.32,0,.2.24-.17.26.23.1-.15.2.1.37a.36.36,0,0,1-.15,0c-.08.23-.25.45-.33.64.15.24-.23.36,0,.6-.1.1-.29.24-.24.44l0,0a.73.73,0,0,0,0,.61c-.29,0-.27,0-.38.09.08.17-.06.4,0,.63-.13,0,0,.17-.19.11A1.79,1.79,0,0,1,10,36h0c.07.11.24.29.33.42s0,0,0,0-.23.13-.24.24a.09.09,0,0,1,0,0c0,.13-.23.13-.14.3l0,0,0,.1c-.06,0-.14-.07-.11-.1-.46.81-.6,1.82-1.1,2.64l0-.06v.22a.11.11,0,0,1,0,0c-.21.15-.17.46-.31.64,0,0-.06-.08-.11-.07.07.24-.33.13-.06.38A.22.22,0,0,1,8,40.53a3.63,3.63,0,0,1-.69,1.26c.07.52-.43.73-.43,1.22l-.05,0c-.11.58-.63.92-.91,1.4a4.33,4.33,0,0,0-.31.54l-.07,0c0,.5-.7.52-.65,1.05l-.07-.09c.1.15-.19.17.06.32H4.72c.16.45-.44.32-.42.74l0-.06c0,.11,0,.22-.12.24s0,0,0,0c-.39.08-.31.52-.49.76l-.09-.1c0,.2-.21.35-.26.55l0,0,0,.13-.11-.06A5.88,5.88,0,0,0,2.85,49Z" transform="translate(-0.9 -0.28)"/><path class="cls-1" d="M1.77,51.21h0S1.77,51.2,1.77,51.21Z" transform="translate(-0.9 -0.28)"/><path class="cls-1" d="M12.6,29.23l0,0S12.61,29.22,12.6,29.23Z" transform="translate(-0.9 -0.28)"/><path class="cls-1" d="M13.14.29C9.25.22,5.51.62,3.42,4.34c-1.86,3.3-3.38,9.11-1,12.48a6,6,0,0,0,3,2.19c1.61.5,2.71-.33,4.24-.24,1.31.08,2.42.95,3.82,1A5.73,5.73,0,0,0,18,17.81l-.74-.06a10.42,10.42,0,0,0,7.5,1.46c3.25-.67,3-2.86,2.73-5.71S27,6.88,24.59,5C22,3,18,2,15,.69c-.4-.17-1,0-.35.31l5.83,2.52c2.87,1.25,4.6,2.27,5.32,5.42.48,2.1,1.14,5,.83,7.06-.2,1.34-.37,2.07-1.84,2.59a8.4,8.4,0,0,1-7-1c-.14-.08-.6-.22-.74-.06A4.6,4.6,0,0,1,14.94,19a27.25,27.25,0,0,1-4.37-.63c-.78-.12-.69-.36-1.53-.28-.17,0-.32.12-.49.14a7.24,7.24,0,0,0-.89.37L3.78,17.35c-1.37-1.16-1.58-3.56-1.5-5.17A18.26,18.26,0,0,1,4.39,4.58C6.34,1.1,9.88.68,13.54.74c.64,0-.1-.45-.41-.46Z" transform="translate(-0.9 -0.28)"/><path class="cls-1" d="M11.48,28.51A105.25,105.25,0,0,0,5.48,39Q4.18,41.59,3,44.26A17.71,17.71,0,0,0,1.31,49a.13.13,0,0,0,.08.09c1.44.93,3.54,1.22,5.17,1.7.24.07,1.17-.2.68-.34-.94-.28-2.94-.47-3.69-1.09-1.49-1.23-.73-2.17-.22-3.41q1.26-3.11,2.73-6.13a105,105,0,0,1,6.4-11.28c.14-.21-.8-.28-1,0Z" transform="translate(-0.9 -0.28)"/><path class="cls-1" d="M7.88,50.82c.5,0-.34-.48-.59-.48-.5,0,.34.48.59.48Z" transform="translate(-0.9 -0.28)"/><path class="cls-1" d="M6.31,50.37A139.62,139.62,0,0,1,7.86,80c0,.18.4.2.5.21a101.85,101.85,0,0,0,13.12-.47c2.71-.28,3.12-1.19,2.23-3.81q-4.54-13.47-8-27.28c-.08-.31-1.06-.23-1,0q2.19,8.75,4.81,17.39,1.25,4.11,2.61,8.2c.2.6.41,1.2.6,1.8.56,1.7,1,1.75-.5,2.68s-3.41.88-5.2,1-3.31.15-5,.17a7.58,7.58,0,0,1-2.32,0c-.93-.35-.76-.62-.8-1.74-.11-3,.16-6.09.09-9.12A138.88,138.88,0,0,0,7.31,50.38c0-.31-1-.26-1,0Z" transform="translate(-0.9 -0.28)"/><path class="cls-1" d="M15.53,53.53c.3,2.53,2.68,3.82,5.06,3.88,3.34.08,6.57-2.95,8.15-5.66,1-1.69-.41-3-1.35-4.47-1.38-2.12-2.82-4.2-4.19-6.33-2.85-4.43-5.34-9-6.39-14.25-.06-.28-.72-.34-.92-.2a8.7,8.7,0,0,1-4.79,1.79c-.64,0,.17.42.47.4a9.28,9.28,0,0,0,5.16-1.89l-.92-.2c1.26,6.24,4.56,11.6,8,16.83.86,1.29,1.72,2.57,2.57,3.86a13.19,13.19,0,0,1,1.36,2.12,3.2,3.2,0,0,1-.67,3.05A13.63,13.63,0,0,1,23.53,56c-2.36,1.5-6.62.89-7-2.33,0-.31-1-.34-1-.1Z" transform="translate(-0.9 -0.28)"/></g></g></svg>