<svg xmlns="http://www.w3.org/2000/svg" viewBox="0 0 23.36 96.81"><defs><style>.cls-1{fill:#0a2117;}</style></defs><title>figureL</title><g id="Layer_2" data-name="Layer 2"><g id="Layer_1-2" data-name="Layer 1"><polygon class="cls-1" points="7.42 0.88 7.46 0.9 7.49 0.78 7.42 0.88"/><path class="cls-1" d="M9.1,1s0,0,0-.06a2.92,2.92,0,0,0-.2.35C9,1.43,9,.91,9.1,1Z" transform="translate(-1.29 -0.48)"/><path class="cls-1" d="M9.19,1c.12.05.14-.09.17-.14C9.33,1,9.14.88,9.19,1Z" transform="translate(-1.29 -0.48)"/><path class="cls-1" d="M18.92,4.42l0,0Z" transform="translate(-1.29 -0.48)"/><path class="cls-1" d="M21,6.28l.11,0c-.42-.38-.62-1-1.05-1.36h.06a8.81,8.81,0,0,0-3.43-2.34l.07,0c-.08,0-.18,0-.24,0s0,0,.07,0c-.18-.31-.84-.27-1-.47-.09,0-.15,0-.13.11a14.06,14.06,0,0,0-3.28-.83s0-.09,0-.15c-1,.06-1.91-.26-2.82-.22,0,.08.1.08,0,.16.27.07.51-.22.78-.06l0,.07c.19.06.05-.19.25-.07s0,.09,0,.1a5.31,5.31,0,0,0,1.27.07c.06.18.46.11.57.31.13,0,.23,0,.3-.09A23.36,23.36,0,0,1,16.92,3c.8.08,1.33.88,2,1.36l0,0a2.24,2.24,0,0,1,.77.66l.29.13a9.45,9.45,0,0,1,1.71,5.72c-.15,2.33-1,4.18-1.68,6.39,0,0,0,0,0-.07a18,18,0,0,1-1,1.62l0,0a10.5,10.5,0,0,1-3.16,3.42A17,17,0,0,1,10.28,24v-.06a7.63,7.63,0,0,1-4.44-.67A10.4,10.4,0,0,1,3.95,21.8,4.61,4.61,0,0,1,2.7,19.71c-.07-1-.93-2.18-.67-3.17a21.7,21.7,0,0,0,.06-5.74c.33-1.73.24-3.65,1.29-5.13.14-.86,1-1.4,1.55-2.11l-.08,0c.37-.09.24-.77.64-.66v0c.24,0,0-.58.23-.49l0-.09c.15-.15.08.06.23,0s-.08-.14.05-.18c.23.27.38-.37.62,0-.09.06.23,0,.07.24.08,0,.35-.19.24-.32s0-.38-.28-.39l0,.14c-.13-.08-.08,0-.16-.1-.26.13-.39,0-.61.06h0c0,.21-.23.26-.34.32L5.45,2c-.16-.07-.06.45-.16.19A15.13,15.13,0,0,0,4,3.72c0,.13-.29.41-.05.4-.28,0-.58.41-.66.58,0,0,0,0,0-.06-.42.19,0,.49-.42.64.2.15-.32.53-.11.81a.16.16,0,0,1-.15,0A16.41,16.41,0,0,0,2,7.74c.11.46-.32,1-.07,1.42a2.34,2.34,0,0,0-.23,1.19l0,0a3.1,3.1,0,0,0,.1,1.4c-.3.12-.25.32-.36.52.11.32,0,.95.14,1.43-.14.07,0,.4-.15.41a25,25,0,0,1,.26,4.52l0,0a4.76,4.76,0,0,0,.61.47s0,0-.05,0c.1.24,0,.54.13.78,0,0,0,0-.07,0,.17.2,0,.55.31.76l0,0,.15.14c-.06,0-.15.06-.17,0a6.24,6.24,0,0,0,2.36,2.7,7.55,7.55,0,0,0,3.45,1l-.09.05.46-.09a.08.08,0,0,1,0,.06,6.3,6.3,0,0,0,1.73-.13s-.08.1,0,.13c.39-.22.7.14.85-.25a.1.1,0,0,1,0,.13c1.12-.3,2.26-.55,3.38-.92.77-.64,1.88-.91,2.5-1.76l0,.05a22,22,0,0,0,2.55-3,10.29,10.29,0,0,0,.69-1.31l.08,0c.15-1,1.1-1.68,1.07-2.73l.09.1c-.12-.2.22-.55-.08-.58l.13-.14c-.22-.72.46-1.13.3-2l.06.06a1.15,1.15,0,0,1,0-.62s0,0,0,.07A3.79,3.79,0,0,0,22,9.38l.14.06c-.18-.32-.17-1-.37-1.39h.07l-.15-.2.12,0A6.55,6.55,0,0,0,21,6.28Z" transform="translate(-1.29 -0.48)"/><path class="cls-1" d="M16.62,2.49h0S16.64,2.49,16.62,2.49Z" transform="translate(-1.29 -0.48)"/><path class="cls-1" d="M5.79,1.75l.08,0S5.82,1.74,5.79,1.75Z" transform="translate(-1.29 -0.48)"/><polygon class="cls-1" points="10.05 33.36 10.08 33.35 9.98 33.35 10.05 33.36"/><path class="cls-1" d="M11.11,33.77H11l.3,0C11.5,33.78,11,33.79,11.11,33.77Z" transform="translate(-1.29 -0.48)"/><path class="cls-1" d="M11.14,33.76c.07,0-.07,0-.12,0C11.12,33.74,11,33.77,11.14,33.76Z" transform="translate(-1.29 -0.48)"/><path class="cls-1" d="M11,32.3h0Z" transform="translate(-1.29 -0.48)"/><path class="cls-1" d="M10.49,31.95h-.11c.2.06,0,.15.1.22h0c0,.19.16.36.26.54h-.06s.11,0,.1,0h-.06c-.18,0,.12.11,0,.14h.15a1,1,0,0,0,.25.45h-.14c.31.12.19.26.15.39a1.13,1.13,0,0,1,.16,0c.1,0-.2-.07-.06-.11h.08s-.19,0-.09,0h.1c0-.06,0-.12-.16-.17.16,0,0-.06.16-.09a.44.44,0,0,0-.16,0c.07-.21-.1-.42-.1-.63-.32-.08,0-.22-.07-.34h0c-.08,0-.12-.09-.08-.14l-.14,0c.26-.29,0-.56.15-.85s.27-.62-.16-.9h.06c-.07-.09,0-.17,0-.26h0c-.27-.2,0-.44-.28-.62a2,2,0,0,0-.13-.78h.06c-.14-.2.18-.42.06-.62.13-.22-.39-.42-.21-.64s-.37-.28-.06-.43c.47-.29.14-.52-.16-.76.16-.25-.3-.45,0-.71-.23-.09.26-.25.19-.37h-.08c.23-.06-.34-.07,0-.13h0c.18,0-.42,0-.21-.05H10s.1,0,.13,0-.16,0-.11,0c.36,0-.08-.06.32-.09,0,0,.16,0,.24,0s0-.06-.15,0a2.35,2.35,0,0,0-.48,0h.13l-.16,0s-.21.06-.29.09h0c.16,0,.07,0,0,.05H9.59c-.15,0,.3,0,0,0a.35.35,0,0,1,.08.24c.1,0,0,.07.19,0-.22,0-.27.1-.26.13h0c-.28.07.27,0-.08.1.25,0-.07.08.22.09l-.15,0c0,.08-.09.17-.09.23.22,0-.09.14.21.17-.06,0-.18.12-.06.16h0c0,.06,0,.14.23.17a.6.6,0,0,0-.32.09c.14,0,.1.12.23.17-.13,0,.06,0-.13.06.38.15.26.38,0,.58h0l.48,0h0s-.15.08-.11.11H9.86c.09,0-.15.08,0,.1H9.81l.07,0c-.06,0-.16,0-.14,0,0,.3.3.58.27.89H10l.11.05H10c-.1.08.08.15.06.22a.51.51,0,0,0-.13,0c.18,0-.22.1.14.11H10a.43.43,0,0,1,.08.45c.33.11,0,.27.31.38h-.07c.24.16,0,.35.06.52s.06.12.07.19h-.08c.32.11-.26.27.09.39H10.3c.17,0-.06.08.24.06l-.09,0c.39.07-.17.17.09.26h-.07c.06,0,.1.06,0,.08h0c-.27.1,0,.19,0,.28h-.13c.15,0,0,.13.09.19h-.06l.09,0h-.12C10.36,31.8,10.47,31.87,10.49,31.95Z" transform="translate(-1.29 -0.48)"/><path class="cls-1" d="M10.67,32.73h0Z" transform="translate(-1.29 -0.48)"/><path class="cls-1" d="M9.58,25h0Z" transform="translate(-1.29 -0.48)"/><polygon class="cls-1" points="8.97 53.46 9 53.48 8.97 53.38 8.97 53.46"/><path class="cls-1" d="M10.32,53.61l0-.05.06.32C10.48,54,10.23,53.54,10.32,53.61Z" transform="translate(-1.29 -0.48)"/><path class="cls-1" d="M10.37,53.61c.08,0,0-.1,0-.15S10.28,53.49,10.37,53.61Z" transform="translate(-1.29 -0.48)"/><path class="cls-1" d="M14.06,50.84v0S14.06,50.85,14.06,50.84Z" transform="translate(-1.29 -0.48)"/><path class="cls-1" d="M14.75,49.75l-.05-.1c-.07.29-.39.28-.53.49v0a8.24,8.24,0,0,0-1.28,1.22s0,0,0-.06,0,.13,0,.14a.07.07,0,0,1,0-.06c-.21-.08-.23.31-.38.24s0,.11.06.14a7.62,7.62,0,0,0-1,1s-.06,0-.1-.1c-.16.48-.57.64-.94.84,0,.07.08,0,.09.13.16,0,.09-.3.27-.26l0,.07c.1,0-.09-.17,0-.14s0,.08.06.08.33-.2.37-.45c.13.11.17-.11.31,0,0-.08.05-.1,0-.2a18.07,18.07,0,0,0,1.58-1.23c.07-.44.6-.36.84-.67l0,0a.59.59,0,0,1,.32-.32l0-.18a14.67,14.67,0,0,0,2.26-1.41,5.65,5.65,0,0,0,2.26-1.78s0,0,0,.06c.19-.22.47-.28.64-.49l0,0a2.56,2.56,0,0,1,.75-.69,2.69,2.69,0,0,0,.8-.75l.29-.2c.09,0,0-.07,0-.1l-.14-.1-.6-.4-1.05-.72,0,0c-.6-.32-.84-1-1.37-1.38-.37-.56-1.22-.75-1.53-1.39,0-.52-.9-.52-.9-1-.13-.93-.84-1.37-1.55-1.86-.29-.71-1.09-1.08-1.2-1.88-.38-.16-.17-.76-.44-1l-.06.05c.12-.24-.45-.07-.2-.34h0c.11-.16-.44.09-.29-.06l-.08,0c-.07-.06.08-.06.07-.14s-.14.08-.13,0c.29-.21-.18-.14.15-.37,0,0,.09-.15.22-.11s-.08-.16-.22-.06-.32.13-.39.28l.12-.06a.75.75,0,0,1-.12.12c0,.11-.1.23-.12.34h0c.16,0,.13.08.14.13l-.05.06c-.11.11.33-.05.08.06a3.23,3.23,0,0,1,.49.61c.1,0,.11.18.24,0a.36.36,0,0,0,0,.43s0,0,0,0c-.16.28.32,0,.1.3.22-.12.07.25.36.15a.35.35,0,0,1-.11.1c.13.2.21.48.32.65.28,0,.16.41.49.36,0,.14,0,.38.23.45h0a.72.72,0,0,0,.52.34c-.2.22-.1.25-.13.38.19,0,.31.27.53.35-.09.1.15.1,0,.22A2,2,0,0,1,15.87,41h0c.13,0,.37-.09.52-.12,0,0,0,0,0,0s0,.26.12.32l-.06,0c.13,0,0,.26.22.25l0,0h.11s-.12.1-.13.06a22,22,0,0,0,2.2,1.91l-.07,0,.21,0-.06,0c.11.25.42.26.58.44,0,0-.09,0-.08.1.24,0,.07.36.37.13a.22.22,0,0,1-.08.1,3.43,3.43,0,0,1,.64.37,1.22,1.22,0,0,1,.28.25,1,1,0,0,1,.37.08.48.48,0,0,1-.14.13.6.6,0,0,0-.29.36l0-.05c-.28.49-.9.64-1.32,1-.2.12-.28.27-.47.41l-.05-.06c-.13.48-.83.26-1,.77l0-.11c.05.17-.24.1,0,.32l-.11,0c0,.47-.51.15-.64.56l0-.07c0,.1-.1.19-.19.18s0,0,0-.06c-.39-.06-.47.37-.71.54l0-.12c0,.21-.32.25-.44.42l0-.06,0,.13-.07-.1C15.06,49.37,14.94,49.59,14.75,49.75Z" transform="translate(-1.29 -0.48)"/><path class="cls-1" d="M12.82,51.33h0S12.82,51.32,12.82,51.33Z" transform="translate(-1.29 -0.48)"/><path class="cls-1" d="M11.64,34.9a.16.16,0,0,1,0,0S11.64,34.89,11.64,34.9Z" transform="translate(-1.29 -0.48)"/><polygon class="cls-1" points="8.73 69.56 8.77 69.55 8.66 69.5 8.73 69.56"/><path class="cls-1" d="M9.79,69.76H9.73l.29.17C10.19,69.87,9.68,69.81,9.79,69.76Z" transform="translate(-1.29 -0.48)"/><path class="cls-1" d="M9.83,69.71c.07-.06-.07-.09-.12-.1C9.82,69.63,9.67,69.73,9.83,69.71Z" transform="translate(-1.29 -0.48)"/><path class="cls-1" d="M9.86,64.2v0A0,0,0,0,0,9.86,64.2Z" transform="translate(-1.29 -0.48)"/><path class="cls-1" d="M9.42,62.74l-.11,0c.19.27,0,.57.06.86l0,0a11.68,11.68,0,0,0,.18,2.11l-.06,0s.11.08.1.11-.05,0-.06,0c-.19.15.11.45,0,.54a.13.13,0,0,0,.15,0A10.58,10.58,0,0,0,9.8,68a.16.16,0,0,1-.14,0,2.24,2.24,0,0,1,.11,1.5c.08,0,.08,0,.16,0,.1-.16-.19-.3,0-.44l.08,0c.05-.11-.19,0-.09-.13s.1,0,.1,0c0-.23,0-.46-.14-.67.16,0,0-.24.17-.32-.06-.06,0-.12-.15-.14.1-.79,0-1.59,0-2.4-.31-.38.08-.83,0-1.28h0a.83.83,0,0,1-.06-.53l-.13-.15A21.89,21.89,0,0,0,10,60.33a8.21,8.21,0,0,0,0-3.45s0,0,.06,0c-.05-.34.08-.65,0-1h0c-.23-.81.11-1.65-.14-2.43a29,29,0,0,0,.06-3h.06c-.09-.8.28-1.54.23-2.33.19-.8-.27-1.69,0-2.49.34-.49-.28-1.19.07-1.65a3.82,3.82,0,0,0,.08-2.9c.23-.89-.14-1.82.28-2.66-.19-.43.34-.85.32-1.31h-.08c.25-.15-.3-.39.06-.47v0c.19-.07-.4-.24-.19-.27l-.09,0c0-.11.1,0,.14-.08s-.16,0-.1-.08c.36,0-.06-.26.35-.24,0,.06.16-.08.24.06a.14.14,0,0,0-.13-.21c-.18,0-.33-.11-.48,0l.13,0a.64.64,0,0,1-.17,0c0,.14-.22.14-.31.24h0c.15.08.05.17,0,.22l-.08,0c-.16,0,.29.18,0,.12a4.53,4.53,0,0,1,0,.94c.1.05,0,.24.17.19a.43.43,0,0,0-.3.38s0,0,0,0c-.3.15.25.22-.11.36.25,0-.1.29.18.4a.3.3,0,0,1-.15,0c0,.29-.14.6-.17.84.2.22-.14.5.15.7-.07.14-.22.38-.11.59l0,0a1,1,0,0,0,.17.7c-.29,0-.24.15-.34.25.12.17.06.48.17.73-.13,0,0,.2-.15.2A2.65,2.65,0,0,1,9.63,45h0c.1.1.33.22.46.32s0,0,0,0c0,.13-.17.24-.14.38a.08.08,0,0,1-.06,0c.08.13-.17.24,0,.4H9.74l.07.1c-.06,0-.16,0-.14-.06-.13,1.12.13,2.29,0,3.44l-.06,0,.1.23a.1.1,0,0,1-.06,0c-.12.28,0,.58,0,.86,0,0-.09,0-.13,0,.16.21-.24.32.11.44a.18.18,0,0,1-.13,0,5.66,5.66,0,0,1,0,1.74c.3.49,0,1,.22,1.53H9.66a7.47,7.47,0,0,1-.05,2,6.1,6.1,0,0,0,0,.75H9.55c.29.48-.31,1,0,1.48l-.11,0c.17.08-.07.29.22.28l-.09.08c.38.35-.2.6,0,1l-.07,0c.05.11.09.24,0,.32s0,0,0,0c-.29.33,0,.72,0,1.08l-.13,0c.15.18,0,.49.06.72l-.06,0,.08.12H9.33C9.32,62.17,9.42,62.45,9.42,62.74Z" transform="translate(-1.29 -0.48)"/><path class="cls-1" d="M9.49,65.73h0S9.48,65.72,9.49,65.73Z" transform="translate(-1.29 -0.48)"/><path class="cls-1" d="M10.36,36.22l0,0S10.37,36.21,10.36,36.22Z" transform="translate(-1.29 -0.48)"/><polygon class="cls-1" points="13.59 93.02 13.63 93.02 13.53 92.97 13.59 93.02"/><path class="cls-1" d="M14.69,93.25h-.07l.27.17C15.07,93.4,14.58,93.27,14.69,93.25Z" transform="translate(-1.29 -0.48)"/><path class="cls-1" d="M14.73,93.23c.08,0-.06-.08-.1-.09S14.58,93.21,14.73,93.23Z" transform="translate(-1.29 -0.48)"/><path class="cls-1" d="M15.14,89.29h0S15.15,89.29,15.14,89.29Z" transform="translate(-1.29 -0.48)"/><path class="cls-1" d="M14.71,88.25H14.6c.19.19,0,.4.07.61l0,0a6.14,6.14,0,0,0,.13,1.5l-.06,0s.11.06.09.09a.08.08,0,0,1-.06,0c-.19.09.08.32-.07.38a.16.16,0,0,0,.15,0A6.21,6.21,0,0,0,14.88,92a.22.22,0,0,1-.14,0c.24.39.06.74-.05,1.08.07,0,.09,0,.16,0s-.15-.24,0-.32l.07,0c.06-.07-.18,0-.08-.11s.09,0,.1,0c0-.16.09-.32-.06-.5.17,0,0-.17.2-.21-.06-.05,0-.09-.14-.12a10.93,10.93,0,0,0,.13-1.72c-.3-.3.1-.59,0-.92h0a.44.44,0,0,1,0-.38L15,88.79a8.17,8.17,0,0,0,.2-2.27,3.7,3.7,0,0,0-.28-2.45s0,0,.06,0c-.09-.23,0-.47-.1-.69h0c-.32-.53-.14-1.18-.51-1.67a9.81,9.81,0,0,0-.53-2h.06c-.28-.5-.08-1.12-.36-1.63,0-.6-.7-1-.73-1.61.16-.45-.61-.65-.45-1.07.17-.82-.38-1.33-1-1.81-.12-.66-.82-1-.82-1.7-.33-.14-.07-.67-.3-.92l-.06.05c.14-.22-.42,0-.16-.29h0c.12-.15-.43.1-.27,0l-.08,0c-.06,0,.08-.06.08-.13s-.14.08-.12,0c.3-.2-.16-.11.17-.34,0,0,.1-.14.22-.11s-.06-.14-.2,0-.32.14-.39.28l.12-.06a.88.88,0,0,1-.12.12c0,.09-.12.21-.15.31h0c.16,0,.12.06.12.11l-.05.05c-.12.1.31-.07.07,0a2.21,2.21,0,0,1,.4.52c.1,0,.08.15.22,0a.31.31,0,0,0-.08.38s0,0,0,0c-.19.25.3,0,0,.26.22-.11,0,.22.31.13a.42.42,0,0,1-.12.09c.09.18.12.41.2.57.26,0,.09.35.4.32,0,.12,0,.33.12.4h0a.56.56,0,0,0,.41.33c-.24.17-.15.21-.21.31.17,0,.23.25.4.36-.11.08.11.1-.07.19A1.27,1.27,0,0,1,12,76.23h0c.12,0,.37,0,.52,0,0,0,0,0,0,0s-.08.22,0,.29h-.06c.11.05-.08.22.09.26l0,0,.09,0c-.06,0-.15.05-.14,0,.2.75.78,1.41.94,2.21h-.07l.15.12h-.06c-.05.22.18.37.2.57,0,0-.1,0-.12,0,.21.1-.16.28.21.26a.26.26,0,0,1-.12,0,2.78,2.78,0,0,1,.32,1.17c.39.26.16.69.47,1h-.06c.31.41.13.93.23,1.39a3.09,3.09,0,0,0,.12.51h-.08c.35.3-.22.72.15,1l-.11,0c.18,0,0,.21.25.17l-.08.07c.4.21-.14.44.11.71l-.07,0c.06.07.1.16,0,.22l0,0c-.27.25,0,.5,0,.76l-.13,0c.16.12,0,.35.08.51h-.06l.08.08h-.12A5.54,5.54,0,0,0,14.71,88.25Z" transform="translate(-1.29 -0.48)"/><path class="cls-1" d="M14.73,90.36h0S14.72,90.36,14.73,90.36Z" transform="translate(-1.29 -0.48)"/><path class="cls-1" d="M9.32,70.77v0S9.32,70.76,9.32,70.77Z" transform="translate(-1.29 -0.48)"/><polygon class="cls-1" points="5.62 91.63 5.59 91.66 5.7 91.66 5.62 91.63"/><path class="cls-1" d="M7.22,92.27l.06,0-.33,0C6.81,92.31,7.31,92.19,7.22,92.27Z" transform="translate(-1.29 -0.48)"/><path class="cls-1" d="M7.2,92.33c0,.08.09.06.14.06C7.23,92.4,7.34,92.27,7.2,92.33Z" transform="translate(-1.29 -0.48)"/><path class="cls-1" d="M4.3,95.47l0,0A0,0,0,0,0,4.3,95.47Z" transform="translate(-1.29 -0.48)"/><path class="cls-1" d="M3.11,96.53l0,.11c.18-.3.55-.25.79-.45v0A13.1,13.1,0,0,0,5.86,95.1s0,0,0,.06,0-.13.07-.14,0,.05,0,.07c.22.1.38-.3.53-.21a.12.12,0,0,0,0-.16l.8-.45a1.18,1.18,0,0,0,.26-.18c.07,0,0-.17,0-.23a.31.31,0,0,1,.14,0,3.58,3.58,0,0,1-.3-1.42c-.08,0-.07.07-.16,0-.05.17.25.23.14.39H7.2c0,.11.19,0,.11.11s-.1,0-.1,0c.06.21,0,.42.2.62-.16.06,0,.25-.16.2.06,0,0,0,.15.08s-.09,0-.18.11l-.57.29c-.37.2-.75.41-1.14.58-.23.45-.82.31-1.21.6v0a.92.92,0,0,1-.48.3L3.73,96a8.4,8.4,0,0,0-2,.73l.4.54A7.06,7.06,0,0,1,3,96.35,16.82,16.82,0,0,0,5.75,94s0,0,0,.06c.26-.25.6-.32.85-.55v0c.25-.32.8-.49,1-1.06a2.74,2.74,0,0,0,0-1.32A30.83,30.83,0,0,0,7.86,88h.06c-.06-.85.35-1.62.33-2.46.22-.84-.2-1.79.07-2.64.36-.51-.24-1.27.13-1.74a4.23,4.23,0,0,0,.16-3.07c.26-.93-.09-1.92.34-2.81-.18-.46.36-.89.34-1.38H9.22c.25-.15-.29-.42.07-.49v0c.19-.08-.4-.25-.18-.29l-.09,0c0-.11.1,0,.14-.09S9,73,9.07,73c.36,0-.05-.28.35-.25,0,.06.17-.08.24.06a.14.14,0,0,0-.13-.22c-.18,0-.33-.12-.48,0l.13,0a.61.61,0,0,1-.17,0c0,.15-.23.15-.31.25h0c.15.09,0,.18,0,.23l-.08,0c-.16,0,.29.2,0,.13a5.06,5.06,0,0,1,0,1c.1.06,0,.26.17.2a.46.46,0,0,0-.31.4s0,0,0,0c-.3.15.25.24-.12.38.24,0-.11.3.17.42a.28.28,0,0,1-.15,0c0,.3-.15.63-.19.89.2.24-.15.53.13.74a.75.75,0,0,0-.13.62l0,0a1.07,1.07,0,0,0,.15.75c-.29,0-.25.16-.35.26.12.18,0,.51.15.77-.14,0,0,.21-.16.21a2.93,2.93,0,0,1-.25,2.33h0c.1.11.32.24.45.35s0,0,0,0c0,.14-.18.25-.16.39s0,0-.06,0c.07.14-.18.25,0,.42H7.79l.06.1c-.06,0-.16,0-.13-.07-.17,1.18,0,2.43-.11,3.64l-.06-.05.09.25a.1.1,0,0,1-.06,0c-.14.29,0,.62,0,.91,0,0-.09-.05-.13,0,.15.23-.26.33.09.47a.18.18,0,0,1-.13,0,6.33,6.33,0,0,1-.11,1.83c.28.54-.07,1.07.14,1.62H7.34a.77.77,0,0,1-.28.9c-.28.18-.64.29-.93.51a4.82,4.82,0,0,0-.64.47l-.05-.06c-.24.53-1,.38-1.23,1l0-.11c0,.18-.29.15-.07.36H4c0,.52-.61.28-.76.76l0-.07c0,.12-.11.24-.22.25s0,0,0-.06c-.45.06-.52.56-.78.83l-.07-.12c0,.16-.15.28-.28.41l-.36.35.48-.19A.83.83,0,0,0,2.18,97V97l.08-.13.05.11C2.61,96.89,2.84,96.68,3.11,96.53Z" transform="translate(-1.29 -0.48)"/><path class="cls-1" d="M5.93,95.09h0S5.92,95.1,5.93,95.09Z" transform="translate(-1.29 -0.48)"/><path class="cls-1" d="M8.66,72.89l0,0S8.67,72.87,8.66,72.89Z" transform="translate(-1.29 -0.48)"/><polygon class="cls-1" points="12.95 92.27 12.91 92.29 13.02 92.27 12.95 92.27"/><path class="cls-1" d="M14.5,92.78l.06,0-.3,0C14.11,92.86,14.6,92.72,14.5,92.78Z" transform="translate(-1.29 -0.48)"/><path class="cls-1" d="M14.47,92.81c-.06,0,.08,0,.12,0C14.49,92.83,14.61,92.75,14.47,92.81Z" transform="translate(-1.29 -0.48)"/><path class="cls-1" d="M15.29,95h0Z" transform="translate(-1.29 -0.48)"/><path class="cls-1" d="M15.93,95.4H16c-.23-.1-.08-.26-.2-.35h0c-.06-.3-.32-.5-.5-.76h.06s-.11,0-.11,0h.06c.15-.12-.17-.14,0-.22a.25.25,0,0,0-.15,0,2.11,2.11,0,0,0-.45-.61.36.36,0,0,1,.13-.05c-.35-.1-.3-.34-.33-.55-.08,0-.07,0-.16.05s.22.05.11.16l-.07,0c0,.06.18-.05.11,0s-.09,0-.1,0,0,.19.23.22c-.15.07,0,.1-.11.18.07,0,.06,0,.17,0,0,.34.28.61.38.93.35,0,.05.35.22.49h0a.18.18,0,0,1,.14.19h.15a4,4,0,0,0-.05.46.23.23,0,0,1-.26.18c-.48.11-.93,0-1.29.53,0,0,0,0,0-.06s-.27,0-.38.1v0c-.27.32-.66.07-.94.37a10.2,10.2,0,0,0-1.2.09l.09-.06c-.52.1-.26-.21-.46-.21l.1,0c.15-.08,0-.09,0-.16s0-.19.27-.28.23-.1.24-.23.06-.28.25-.23c.63.1.72-.41.82-.9.39-.14.35-.71.85-.73,0-.28.45-.07.54-.26l-.06,0c.22.11-.14-.34.15-.13v0c.16.09-.25-.34-.08-.22l-.06-.06s.08.06.13.06-.12-.11-.06-.1c.27.24,0-.13.32.13,0,0,.14.08.17.17s.08-.05-.06-.16a1.5,1.5,0,0,0-.37-.31l.09.09-.14-.1c-.05,0-.2-.09-.29-.11h0c.1.13,0,.09,0,.09l-.06,0c-.12-.09.18.25,0,.06a.78.78,0,0,1-.21.33c.06.08-.08.07.09.18-.18-.13-.29-.1-.31-.06s0,0,0,0c-.26-.15.14.24-.16,0,.17.18-.14,0,0,.26l-.11-.1c-.09.08-.24.11-.32.17.09.22-.22.07-.06.34-.09,0-.25,0-.22.12l0,0a.31.31,0,0,0-.05.36c-.22-.19-.21-.12-.3-.16,0,.14-.08.2-.07.36-.1-.09,0,.1-.15,0a.45.45,0,0,1-.19.46,3.79,3.79,0,0,1-.85.36h0a1.3,1.3,0,0,0,.41.28s-.07,0-.06,0-.33.06-.35.12l-.08,0c.07.06-.38.1-.23.17h-.09l.07,0c-.11,0-.27,0-.2,0a3,3,0,0,0-.85.8l.19,0H10a3.11,3.11,0,0,1,.46,0l-.12,0,.3-.07-.11,0c0,.11.43,0,.54,0a.84.84,0,0,0-.16.11c.32-.14,0,.22.41-.1a.84.84,0,0,1-.14.12,3.39,3.39,0,0,1,1.12,0,.52.52,0,0,1,.38-.19.33.33,0,0,0,.31-.15v.06c.24-.26.56-.06.83-.16.12,0,.18-.09.29-.12l0,.08c.11-.34.48.16.58-.23l0,.11c0-.17.14,0,0-.26l.06.07c0-.41.3.08.37-.21v.07c0-.07.06-.13.11-.08a.26.26,0,0,1,0,.05c.23.2.31-.15.41-.22l.08.1c0-.14.18-.17.15-.31l.05,0L16,95.78l.12,0C16.11,95.67,16,95.51,15.93,95.4Z" transform="translate(-1.29 -0.48)"/><path class="cls-1" d="M15.39,94.25h0Z" transform="translate(-1.29 -0.48)"/><path class="cls-1" d="M13.85,92.94h0S13.86,92.94,13.85,92.94Z" transform="translate(-1.29 -0.48)"/><polygon class="cls-1" points="5.73 49.66 5.76 49.64 5.66 49.66 5.73 49.66"/><path class="cls-1" d="M6.75,50.09l-.06,0,.31,0C7.14,50,6.66,50.16,6.75,50.09Z" transform="translate(-1.29 -0.48)"/><path class="cls-1" d="M6.77,50.05c0-.06-.08,0-.13,0C6.74,50,6.63,50.12,6.77,50.05Z" transform="translate(-1.29 -0.48)"/><path class="cls-1" d="M5.46,47.19h0Z" transform="translate(-1.29 -0.48)"/><path class="cls-1" d="M4.7,46.63l-.11,0c.24.06.13.3.27.41h0a4,4,0,0,0,.68,1H5.45s.12,0,.12,0a.09.09,0,0,1-.06,0c-.13.15.21.19.1.29a.19.19,0,0,0,.15,0,3.66,3.66,0,0,0,.6.81.27.27,0,0,1-.12.07c.38.14.39.45.46.73.08,0,.06-.06.15-.07s-.24-.08-.14-.21l.07,0c0-.07-.18.06-.12,0s.09,0,.09,0-.07-.25-.29-.29c.14-.09,0-.13.08-.23-.07,0-.07,0-.18,0a8.42,8.42,0,0,0-.6-1.23c-.38-.07-.13-.46-.33-.65h0a.3.3,0,0,1-.19-.25l-.16,0c0-.66-.4-1.14-.54-1.74-.1-.33-.16-.66-.27-1a1.81,1.81,0,0,0-.23-.43c-.1-.16-.18-.15-.29-.26h.06c-.05-.12.1-.14.15-.34l0,0c0-.52.55-.77.55-1.29a8.94,8.94,0,0,0,.86-1.46l.05,0c.14-.45.65-.63.82-1.06.37-.31.22-1,.64-1.27.42-.07.07-.75.49-.8.71-.2.75-.82.81-1.44.43-.33.34-1,.9-1.23-.06-.32.5-.26.59-.51l-.07,0c.25.05-.16-.36.16-.21v0c.18.06-.29-.33-.09-.24l-.07-.06c0-.06.09,0,.14,0s-.13-.09-.07-.1c.31.19,0-.17.36.05,0,0,.16,0,.19.15s.09-.09-.06-.18a1.1,1.1,0,0,0-.41-.25l.1.08-.15-.07c-.06.06-.23,0-.32,0h0c.11.12,0,.11,0,.13l-.07,0c-.14-.07.2.24,0,.08a1.5,1.5,0,0,1-.24.48c.07.08-.08.11.1.19-.21-.08-.33,0-.35,0s0,0,0,0c-.29-.08.16.24-.19.13.2.15-.16.1.06.3l-.13-.07c-.1.13-.27.24-.36.35.12.22-.24.19,0,.44-.1,0-.28.08-.24.25l0,0a.43.43,0,0,0,0,.45c-.26-.13-.25,0-.35,0,.06.15-.07.28,0,.46-.12-.06,0,.12-.18,0,.1.52-.27.85-.73,1h0c.06.1.22.28.31.4s0,0,0,0-.21,0-.22.12l0,0c0,.11-.21,0-.13.19l0,0,0,.08c-.05,0-.13-.09-.1-.1-.4.5-.49,1.23-.89,1.75l0-.05,0,.17,0,0c-.18.08-.12.32-.23.43s-.06-.07-.11-.07c.08.19-.29,0,0,.28a.32.32,0,0,1-.1-.07,1.86,1.86,0,0,1-.5.85c.12.41-.29.5-.23.88l-.05,0c0,.43-.43.62-.6,1a.62.62,0,0,0-.09.46H3.37c.32.25-.06.68.35.82l-.11,0c.17,0,0,.18.27,0l-.06.08c.43,0,0,.39.3.5H4.05c.07,0,.14.08.1.15H4.1c-.18.29.19.36.26.55l-.13,0c.18,0,.12.25.24.34l-.06,0,.1,0-.11.05C4.46,46.38,4.62,46.48,4.7,46.63Z" transform="translate(-1.29 -0.48)"/><path class="cls-1" d="M5.5,48.13h0S5.49,48.13,5.5,48.13Z" transform="translate(-1.29 -0.48)"/><path class="cls-1" d="M9.42,33.34h0S9.43,33.34,9.42,33.34Z" transform="translate(-1.29 -0.48)"/><path class="cls-1" d="M7.22,10.75Q7.17,12.51,7,14.26c0,.23,1,.21,1-.11q.2-1.75.26-3.51c0-.25-1-.2-1,.11Z" transform="translate(-1.29 -0.48)"/><path class="cls-1" d="M2.94,19.57H4.11c.43,0,.88-.42.2-.42H3.14c-.43,0-.88.42-.2.42Z" transform="translate(-1.29 -0.48)"/><path class="cls-1" d="M4.78,3.17A4.4,4.4,0,0,0,1.3,7.07c0,.21.54.21.63.2A7.1,7.1,0,0,0,6.77,4.58C7,4.32,6,4.35,5.86,4.42a.8.8,0,0,0-.49.83c0,.26.61.21.75.18a6.92,6.92,0,0,0,4.6-3.09c.15-.23-.8-.36-1-.12A6.27,6.27,0,0,1,5.62,5.08l.75.18.35-.63-.91-.16A6.15,6.15,0,0,1,1.66,6.88l.63.2a3.93,3.93,0,0,1,3-3.56c.63-.15-.2-.42-.5-.35Z" transform="translate(-1.29 -0.48)"/><path class="cls-1" d="M10,2.88a8.91,8.91,0,0,1,3.21,5c.26,1.14-.11,2.72.46,3.75a2,2,0,0,0,2.55.88l-.74-.2c-.65,1.24-2.51,4.61-1.34,6,.71.83,2.76,1,3.73,1.09,4.4.21,7.2-5,6.7-8.91-.6-4.75-4.77-8-9.13-9.17A25.28,25.28,0,0,0,9,.51c-1.42,0-3.5-.32-4.45,1-.15.2.79.31,1,.07C6.35.39,10.14.91,11.35,1a18.45,18.45,0,0,1,5.37,1.22,11.21,11.21,0,0,1,6.47,6.56,8.62,8.62,0,0,1-1.65,8.3c-1.35,1.65-6.47,3.06-6.65-.16-.08-1.43.94-3.31,1.59-4.55.15-.28-.64-.23-.74-.2-1.27.37-1.65-5.09-2-5.85a9.31,9.31,0,0,0-2.88-3.68c-.21-.17-1.15,0-.85.24Z" transform="translate(-1.29 -0.48)"/><path class="cls-1" d="M10,25.82A35,35,0,0,0,18.41,38.1c1,.89,2,1.65,3,2.5s2.21,1.49,1.76,3S21.82,45,20.45,45A8.14,8.14,0,0,0,14.6,47l.93.27a7,7,0,0,1-.79-4.39c0-.31-.93-.53-1-.28a7.05,7.05,0,0,0,.79,4.51c.12.22.71.47.93.27,1.8-1.61,3.66-1.72,6-1.83a4.51,4.51,0,0,0,2-.33c2-1.11.62-3.14-.62-4.2A49.42,49.42,0,0,1,16,34.66,34.9,34.9,0,0,1,10.92,26c-.11-.28-1.05-.4-1-.17Z" transform="translate(-1.29 -0.48)"/><path class="cls-1" d="M8.73,26.61c-.88,3-2.68,5.07-3.11,8.23a31.3,31.3,0,0,1-2.82,9.77c0,.09.17.19.22.21a3,3,0,0,0,1.57.24c.64,0-.14-.44-.44-.42.13,0,1.44-4.33,1.59-4.89A34.83,34.83,0,0,0,6.61,35c.41-3.09,2.25-5.32,3.11-8.23.07-.25-.9-.46-1-.16Z" transform="translate(-1.29 -0.48)"/><path class="cls-1" d="M7.53,28.6A233.05,233.05,0,0,1,5.94,66.18c-.36,2.88-.79,5.75-1.24,8.61-.24,1.51-.51,2.69.94,3.56s3.77,1,5.46,1.1A30,30,0,0,0,18.81,79a.11.11,0,0,0,.1-.13q-2.41-14-3.44-28.22c0-.27-1-.53-.95-.21q.78,10.76,2.34,21.44c.24,1.63,1,3.7.84,5.33-.17,2.26-3.35,1.87-5.2,1.86-2.61,0-6.9.16-7-3.43a36.2,36.2,0,0,1,.81-5.26,233.22,233.22,0,0,0,2.1-41.52c0-.27-1-.53-.95-.21Z" transform="translate(-1.29 -0.48)"/></g></g></svg>