<svg xmlns="http://www.w3.org/2000/svg" viewBox="0 0 27.69 92.23"><defs><style>.cls-1{fill:#0a2117;}</style></defs><title>figureF_2</title><g id="Layer_2" data-name="Layer 2"><g id="Layer_1-2" data-name="Layer 1"><polygon class="cls-1" points="8.7 1.45 8.74 1.48 8.77 1.35 8.7 1.45"/><path class="cls-1" d="M9.35,2.11s0,0,0-.06-.11.26-.16.39C9.33,2.55,9.22,2,9.35,2.11Z" transform="translate(-0.29 -1.07)"/><path class="cls-1" d="M9.44,2.11c.13,0,.13-.12.14-.18C9.58,2.05,9.37,2,9.44,2.11Z" transform="translate(-0.29 -1.07)"/><path class="cls-1" d="M18.71,4.4l0,0S18.7,4.4,18.71,4.4Z" transform="translate(-0.29 -1.07)"/><path class="cls-1" d="M20.54,6.48h.11c-.38-.41-.47-1-.86-1.45h.05a7.47,7.47,0,0,0-3.07-2.65l.07,0c-.08,0-.18,0-.24,0s0,0,.07,0c-.17-.31-.81-.29-.92-.48-.08,0-.14,0-.13.11a6.88,6.88,0,0,0-3.2-.4c-.05,0-.06-.07,0-.14-.9.29-1.82.33-2.72.58,0,.08.12.05.06.15.3,0,.46-.34.75-.27l0,.08c.2,0,0-.19.21-.14s0,.1,0,.1a5.69,5.69,0,0,0,1.19-.3c.1.15.44,0,.59.15.11-.07.21,0,.26-.15a8.94,8.94,0,0,1,4.17,1.27c.77.13,1.2,1,1.8,1.52l0,0a2.08,2.08,0,0,1,.66.74l.26.16A13.51,13.51,0,0,1,21,11.12c0,2.34-.24,4.3-.4,6.55,0,0,0,0,0-.06a11.36,11.36,0,0,1-.59,1.73h0c-.38,1.5-1.64,2.62-2.69,3.62a9.35,9.35,0,0,1-5.45,1.35v-.06a8.39,8.39,0,0,1-4.11-1.64c-1.16-1-2.66-1.89-3.29-3.4-.21-1-1.28-1.94-1.19-2.95.05-1.93-.31-3.66-.38-5.61.19-.86.31-1.73.55-2.58A5,5,0,0,1,4.59,5.79C4.88,5,5.86,4.64,6.5,4.09L6.43,4c.38,0,.4-.68.76-.48l0,0c.22.07.15-.55.34-.42V3.09c.18-.11.07.08.23,0s0-.16.09-.16c.16.32.45-.26.6.13-.1,0,.21.1,0,.25.08,0,.37-.09.3-.25s.07-.37-.17-.45v.14c-.11-.11-.07,0-.12-.14-.28.06-.37-.1-.6-.1h0c-.08.19-.29.19-.41.22l-.07,0c-.13-.11-.16.42-.2.14A12.36,12.36,0,0,0,5.6,4c0,.13-.37.34-.13.38-.27,0-.65.27-.76.42,0,0,0,0,0-.06-.45.1-.06.49-.53.54.17.18-.41.46-.25.78a.17.17,0,0,1-.15,0,11.5,11.5,0,0,0-.85,1.55c.05.47-.42,1-.22,1.4a2.16,2.16,0,0,0-.3,1.17l0,0a2.82,2.82,0,0,0,.07,1.39c-.29.12-.25.33-.35.53.12.32.08,1,.22,1.42-.13.08.08.39-.11.43a42.1,42.1,0,0,1,.94,4.38h0a5.78,5.78,0,0,0,.68.35s0,0-.05,0c.15.21.08.52.25.73,0,0,0,0-.08,0,.2.17.12.52.41.69l0,0,.16.12c-.06,0-.14.08-.18,0a10.36,10.36,0,0,0,5.48,4.06l-.1,0a4.58,4.58,0,0,0,.46,0,.08.08,0,0,1-.06,0,5.22,5.22,0,0,0,1.7.28s-.1.09,0,.13c.42-.14.66.27.88-.1a.1.1,0,0,1,0,.13,15,15,0,0,0,3.42-.7c.75-.65,1.83-1,2.37-1.86l0,.05A13,13,0,0,0,20.53,19a7.64,7.64,0,0,0,.39-1.4H21c-.08-.94.65-1.85.39-2.85l.1.07c-.15-.16.1-.57-.2-.53l.1-.16c-.35-.65.22-1.17,0-2l.07.05a1.1,1.1,0,0,1-.05-.61s0,0,.05.06c.25-.67-.1-1.39-.16-2.08l.14.06c-.19-.32-.13-.95-.3-1.37h.07L21,8.09l.12,0A8,8,0,0,0,20.54,6.48Z" transform="translate(-0.29 -1.07)"/><path class="cls-1" d="M16.68,2.3h0S16.7,2.3,16.68,2.3Z" transform="translate(-0.29 -1.07)"/><path class="cls-1" d="M7.74,2.56h.08S7.77,2.56,7.74,2.56Z" transform="translate(-0.29 -1.07)"/><polygon class="cls-1" points="10.27 22.73 10.23 22.77 10.33 22.89 10.27 22.73"/><path class="cls-1" d="M10.75,24.57s.05,0,.07,0l-.27-.46C10.37,24.27,10.87,24.44,10.75,24.57Z" transform="translate(-0.29 -1.07)"/><path class="cls-1" d="M10.71,24.7c-.08.17.06.25.1.29C10.71,24.92,10.86,24.67,10.71,24.7Z" transform="translate(-0.29 -1.07)"/><path class="cls-1" d="M10.35,39.84a.27.27,0,0,0,0-.05A.06.06,0,0,0,10.35,39.84Z" transform="translate(-0.29 -1.07)"/><path class="cls-1" d="M10.81,43.8l.11,0a16.3,16.3,0,0,1-.08-2.35l0,.05c.05-2-.12-3.8-.16-5.76,0,0,0,0,.06.07a.71.71,0,0,1-.1-.31s.05,0,.06.07c.19-.41-.09-1.22.06-1.48,0-.12-.09-.17-.15-.11,0-1.54,0-3.18-.09-4.75a.1.1,0,0,1,.14-.06,15.6,15.6,0,0,1,0-4.11c-.08-.06-.09.14-.16,0-.12.44.15.81,0,1.21l-.07-.05c-.06.29.19.07.08.36-.07.12-.09,0-.1,0a7.35,7.35,0,0,0,.07,1.85c-.17.14,0,.66-.2.89.06.16,0,.32.14.39-.16,2.16-.06,4.37-.11,6.58.3,1-.1,2.28,0,3.51h0a6,6,0,0,1,.07,1.46l.13.41c-.29,2.88-.06,5.82-.11,8.74a51.34,51.34,0,0,0,.44,9.46s0,0-.06-.06c.11.93,0,1.78.15,2.66h0c.38,2.16.23,4.54.67,6.61l.06,1c0,.32,0,.73-.33.83l.15.11c-.05-1.93-.13-4-.22-6h.06c-.16-2.16.15-4.26,0-6.42.14-2.22-.35-4.57-.13-6.81.32-1.38-.3-3.21,0-4.51a29,29,0,0,0,.12-8c.27-2.46-.06-4.94.42-7.31-.17-1.14.41-2.37.42-3.63l-.08,0c.26-.44-.27-1,.1-1.29v0c.19-.23-.38-.58-.16-.71l-.09,0c0-.29.1,0,.15-.25s-.16,0-.1-.21c.36,0,0-.71.37-.71,0,.16.17-.24.23.12,0-.1.06-.58-.11-.55s-.32-.25-.49,0l.13.07c-.14.09-.07.07-.17.1,0,.38-.24.42-.34.69h0c.15.2,0,.45,0,.6l-.08.06c-.16.08.27.46,0,.32,0,.79,0,1.69-.09,2.56.09.13,0,.67.16.49a1.94,1.94,0,0,0-.33,1.1s0,0,0-.06c-.31.45.24.57-.14,1,.24.08-.12.8.16,1.06-.06.05-.11.07-.15,0,0,.79-.18,1.66-.22,2.34.19.58-.16,1.38.12,1.89A4.72,4.72,0,0,0,11,38.78l0-.06a6.09,6.09,0,0,0,.15,1.9c-.29.18-.25.46-.35.74.12.43.05,1.3.15,2-.14.1,0,.54-.15.57A19.76,19.76,0,0,1,10.59,50v0c.1.26.33.55.46.81,0,0,0,0,0,0,0,.36-.16.69-.13,1.05,0,0,0,0-.06-.06.08.34-.16.69,0,1.09l-.05,0,.07.25c-.06,0-.16,0-.14-.15-.09,3.08.23,6.26.22,9.42l-.06-.12.11.61s0,0-.06-.06a22.68,22.68,0,0,0,.07,2.35s-.09-.12-.13,0c.18.56-.21.91.16,1.18a.08.08,0,0,1-.13,0A45.78,45.78,0,0,1,11,71v.05l.13.49.34-.15a.89.89,0,0,0,.47-.59,2,2,0,0,0,0-.59l-.09-1a11,11,0,0,0-.27-2.05h.07a48.31,48.31,0,0,1-.36-5.46c0-.76-.11-1.27-.15-2l.08,0c-.38-1.27.16-2.71-.23-4l.11.09c-.18-.2,0-.81-.26-.72l.08-.24c-.41-.9.12-1.66-.15-2.77l.07.07a2.18,2.18,0,0,1-.05-.86s0,0,.05.09a11.52,11.52,0,0,0-.08-2.95l.13.11a13.7,13.7,0,0,1-.11-2l.06,0-.09-.31h.12C10.95,45.35,10.83,44.59,10.81,43.8Z" transform="translate(-0.29 -1.07)"/><path class="cls-1" d="M10.74,35.61h0S10.75,35.63,10.74,35.61Z" transform="translate(-0.29 -1.07)"/><path class="cls-1" d="M11.69,25.84l0-.1S11.69,25.81,11.69,25.84Z" transform="translate(-0.29 -1.07)"/><polygon class="cls-1" points="4.59 92.16 4.63 92.15 4.54 92.11 4.59 92.16"/><path class="cls-1" d="M4.69,93H4.62l.27.16C5.07,93.15,4.58,93,4.69,93Z" transform="translate(-0.29 -1.07)"/><path class="cls-1" d="M4.73,93c.08,0-.05-.07-.1-.09S4.58,93,4.73,93Z" transform="translate(-0.29 -1.07)"/><path class="cls-1" d="M5.52,89.35h0S5.53,89.35,5.52,89.35Z" transform="translate(-0.29 -1.07)"/><path class="cls-1" d="M5.28,88.29l-.11,0c.15.23-.09.38-.05.58l0,0A5.47,5.47,0,0,0,5,90.25l-.05,0s.1.07.08.1a.08.08,0,0,1-.06,0c-.2.06,0,.32-.11.35,0,0,.08.06.14.06a5,5,0,0,0,0,1.18.23.23,0,0,1-.14,0c.22.38,0,.69-.1,1,.07,0,.09,0,.16,0s-.14-.23,0-.3l.07,0c.06-.06-.18-.05-.07-.1s.09,0,.1,0,.11-.29,0-.47c.17,0,0-.16.21-.18-.05-.05,0-.09-.13-.12a11.71,11.71,0,0,0,.31-1.58c-.25-.32.19-.53.15-.85h0a.4.4,0,0,1,0-.37l-.11-.13a10.5,10.5,0,0,0,.69-2,3.86,3.86,0,0,0,.54-2.26s0,0,.05,0c0-.24.17-.4.17-.63h0c-.09-.59.36-1.05.26-1.63a14.66,14.66,0,0,0,.57-1.93l.06,0c0-.55.54-.92.63-1.46.32-.46.05-1.18.43-1.63.41-.21,0-.87.38-1,.69-.43.64-1.14.64-1.86.39-.49.23-1.23.79-1.63-.09-.35.49-.42.56-.73l-.08,0c.26,0-.2-.36.15-.28v0c.19,0-.32-.3-.12-.24l-.08,0c0-.08.09,0,.15,0s-.14-.07-.08-.09c.33.14,0-.19.37,0,0,0,.17,0,.21.13s.08-.12-.08-.18-.29-.2-.44-.19l.11.07-.16,0c-.06.08-.24,0-.34,0h0c.12.11,0,.13,0,.15l-.07,0c-.15,0,.23.23,0,.09a2.14,2.14,0,0,1-.2.6c.08.07-.08.15.12.18a.3.3,0,0,0-.36.14s0,0,0,0c-.31,0,.19.23-.18.19.22.12-.15.15.09.32l-.14,0c-.09.18-.25.34-.33.49.14.22-.23.28,0,.51-.1.07-.28.17-.22.35l0,0a.54.54,0,0,0,0,.52c-.28-.07-.26,0-.37,0,.08.15,0,.33,0,.53-.13,0,0,.15-.18.08a1.29,1.29,0,0,1-.6,1.38h0c.08.1.27.25.37.36s0,0,0,0-.2.1-.2.2l-.05,0c.05.11-.21.11-.1.25h0l0,.08c-.06,0-.15-.06-.12-.08-.33.69-.29,1.54-.6,2.26l0,0,.05.18-.05,0c-.17.15-.06.4-.15.56,0,0-.08-.06-.12,0,.12.19-.29.14,0,.32a.27.27,0,0,1-.12,0,2.68,2.68,0,0,1-.33,1.13c.21.41-.18.66,0,1.06l-.06,0c.09.48-.29.85-.37,1.3a2.83,2.83,0,0,0-.09.5l-.08,0c.2.39-.46.56-.22,1l-.1-.05c.15.1-.11.18.17.24l-.1,0c.31.32-.28.34-.12.68l-.06,0c0,.09.05.18,0,.21s0,0,0,0c-.33.15-.1.47-.17.71l-.12-.06c.12.15-.07.33,0,.49l-.06,0,.07.1-.12,0A5.13,5.13,0,0,0,5.28,88.29Z" transform="translate(-0.29 -1.07)"/><path class="cls-1" d="M5,90.28H5S4.95,90.28,5,90.28Z" transform="translate(-0.29 -1.07)"/><path class="cls-1" d="M10.81,71.2h0S10.82,71.2,10.81,71.2Z" transform="translate(-0.29 -1.07)"/><polygon class="cls-1" points="22.98 88.62 22.95 88.59 23.01 88.68 22.98 88.62"/><path class="cls-1" d="M23.34,89.93l0,.05a1.43,1.43,0,0,0-.13-.27C23.13,89.59,23.43,90,23.34,89.93Z" transform="translate(-0.29 -1.07)"/><path class="cls-1" d="M23.31,89.91c-.06,0,0,.08,0,.13S23.39,90,23.31,89.91Z" transform="translate(-0.29 -1.07)"/><path class="cls-1" d="M21.24,88.23h0Z" transform="translate(-0.29 -1.07)"/><path class="cls-1" d="M20.54,87.36l-.11,0c.24.14.09.39.22.57h0a3.06,3.06,0,0,0,.67,1.34h-.06s.12,0,.12,0a.08.08,0,0,1-.06,0c-.11.19.25.2.17.33s.1,0,.14-.07a1.13,1.13,0,0,0,.94.42.28.28,0,0,1,0,.14c.35-.21.53-.1.77-.15,0-.07-.05-.07-.07-.15s0,.22-.14.1v-.08s0,.19,0,.1,0-.1,0-.1-.17,0-.31.13c0-.16-.12,0-.11-.2,0,.05-.07,0-.12.12a5.31,5.31,0,0,1-.52-.34,1.55,1.55,0,0,1-.43-.57c-.39-.1-.14-.52-.31-.78h0a.4.4,0,0,1-.16-.34l-.15-.07a8.43,8.43,0,0,0-.39-2.24,3.73,3.73,0,0,0-.88-2.3s0,0,.06,0c-.14-.21-.11-.45-.26-.64h0c-.45-.43-.41-1.11-.9-1.49a9.56,9.56,0,0,0-1-1.86l.06,0c-.37-.43-.35-1.06-.72-1.5-.17-.57-.92-.82-1.07-1.41.05-.47-.75-.49-.68-.94,0-.85-.67-1.21-1.32-1.57-.27-.6-1-.81-1.15-1.49-.36-.06-.2-.65-.48-.84l0,.06c.09-.25-.42,0-.22-.26h0c.09-.17-.4.19-.28,0l-.07.05c-.07,0,.07-.08.05-.14s-.12.11-.12,0c.25-.26-.18-.08.1-.36,0,0,.07-.16.19-.15s-.09-.13-.2,0-.28.2-.33.35l.1-.08a.87.87,0,0,1-.1.14c.06.08-.07.23-.08.34h0c.15-.08.13,0,.14.08l0,.06c-.1.12.29-.13.08,0a2.22,2.22,0,0,1,.5.42c.1,0,.11.13.22,0a.32.32,0,0,0,0,.39s0,0,0,0c-.13.28.29-.07.1.25.2-.15.08.2.34.06a.42.42,0,0,1-.1.11,5.38,5.38,0,0,1,.31.52c.26,0,.15.33.46.24,0,.12,0,.33.21.36h0a.56.56,0,0,0,.47.24c-.2.22-.11.24-.14.35.17,0,.28.2.47.26-.09.1.13.08,0,.2A1.29,1.29,0,0,1,15,76.33h0c.12,0,.36-.07.51-.1,0,0,0,0,0,0s0,.23.05.29l-.06,0c.12,0,0,.23.15.23l0,0,.09,0c-.05,0-.14.08-.14,0,.36.69,1.06,1.21,1.42,1.94h-.07l.17.09-.06,0c0,.23.25.32.32.51,0,0-.1,0-.11.06.22,0-.09.31.26.2a.26.26,0,0,1-.11.06,2.64,2.64,0,0,1,.58,1.06c.44.16.32.63.7.85l-.06,0c.4.32.34.87.56,1.29a3.67,3.67,0,0,0,.23.47l-.07,0c.4.21,0,.74.41,1h-.11c.18,0,0,.22.28.11l-.07.09c.44.1,0,.46.29.66H20c.07.06.14.13.09.2h-.05c-.2.31.17.48.23.72h-.13c.18.08.11.33.21.47H20.3l.1.06-.12,0A5.53,5.53,0,0,0,20.54,87.36Z" transform="translate(-0.29 -1.07)"/><path class="cls-1" d="M21.29,89.32h0S21.28,89.32,21.29,89.32Z" transform="translate(-0.29 -1.07)"/><path class="cls-1" d="M11.26,71.54v0S11.25,71.53,11.26,71.54Z" transform="translate(-0.29 -1.07)"/><polygon class="cls-1" points="5.54 90.15 5.51 90.11 5.55 90.21 5.54 90.15"/><path class="cls-1" d="M5.87,91.45l0,.06-.11-.28C5.71,91.09,5.94,91.54,5.87,91.45Z" transform="translate(-0.29 -1.07)"/><path class="cls-1" d="M5.85,91.43c0-.06,0,.07,0,.11S5.92,91.56,5.85,91.43Z" transform="translate(-0.29 -1.07)"/><path class="cls-1" d="M4.74,92h0S4.74,92,4.74,92Z" transform="translate(-0.29 -1.07)"/><path class="cls-1" d="M4.56,92.53l0,.11c0-.21.13,0,.17-.14v0c.18,0,.27-.24.4-.38v.06s0-.11,0-.1a.2.2,0,0,1,0,.06c.1.16.05-.15.13,0a.44.44,0,0,0,0-.15.76.76,0,0,0,.27-.36.65.65,0,0,1,.06.12c0-.32.13-.26.25-.27a1.35,1.35,0,0,1-.08-.15c-.08-.07,0,.2-.06.09l0-.07s.08.17,0,.1a.7.7,0,0,1,0-.09c0,.05-.11,0-.07.2-.08-.14-.05,0-.13-.12a.52.52,0,0,0,0,.16c-.19,0-.3.21-.47.26,0,.33-.2,0-.26.14v0c0,.08,0,.14-.09.11v.14c-.31-.19-.49.06-.76,0s-.55-.2-.75.25a.15.15,0,0,1,0-.06c-.07.07-.15,0-.22,0v0c-.16.28-.38,0-.54.29a1.93,1.93,0,0,0-.7.08v-.06c-.15.1-.27-.09-.41-.14l.11.35a.15.15,0,0,0,.09-.08c.22,0,.12-.52.4-.44.23.23.11-.44.34-.19s.45,0,.65-.29c.23.14.43-.32.65,0,.11-.22.19.29.29.24v-.08c0,.24.13-.32.1,0v0c0,.18.12-.41.09-.19l0-.09S4,92,4,92s0-.16,0-.1c-.07.35.08-.06,0,.33A1.52,1.52,0,0,1,4,92.5s0,0,.07-.14a2.57,2.57,0,0,0,.1-.47l0,.13,0-.16s0-.21,0-.3h0c0,.15-.06.06-.07,0v-.07c0-.15-.09.29,0,0a.4.4,0,0,1-.26,0c0,.1-.06,0-.06.18,0-.22-.06-.28-.09-.28s0,0,0,0c0-.29-.07.26-.1-.09,0,.25-.08-.08-.11.21a1.08,1.08,0,0,1,0-.15c-.08,0-.17-.09-.24-.1,0,.22-.15-.09-.17.22,0-.06-.13-.18-.17,0v0c-.06,0-.14.05-.15.25-.07-.28-.09-.22-.14-.3,0,.14-.11.12-.14.25,0-.13,0,.07-.09-.12-.08.41-.3.34-.6.17h0c0,.11.09.33.13.47s0,0,0,0-.13-.11-.14-.06l0-.06c0,.09-.13-.11-.1,0l0,0v.07c0-.06-.07-.14-.05-.13-.24.07-.34.37-.48.56l-.55.79.74-.16a.43.43,0,0,1,.2,0v.06l.06-.1a.32.32,0,0,1,0,.06c.06.11.15-.06.21,0a.55.55,0,0,0,0,.13c.06-.17.07.23.11-.13a.73.73,0,0,1,0,.13.4.4,0,0,1,.43-.05c.11-.33.25,0,.36-.31v.07c.14-.24.32,0,.47-.07s.1-.06.17-.08v.08c.07-.32.28.24.34-.12v.11c0-.17.08,0,0-.24l0,.08c0-.4.18.15.22-.12v.07c0-.06,0-.11.07,0a.43.43,0,0,1,0,0c.14.25.16-.06.24-.08l0,.13c0-.16.11,0,.15-.12v0l0,.12C4.47,92.68,4.5,92.56,4.56,92.53Z" transform="translate(-0.29 -1.07)"/><path class="cls-1" d="M5.19,92.17h0Z" transform="translate(-0.29 -1.07)"/><path class="cls-1" d="M4.15,91.53v0S4.16,91.54,4.15,91.53Z" transform="translate(-0.29 -1.07)"/><polygon class="cls-1" points="22.96 87.97 22.96 88.01 22.99 87.91 22.96 87.97"/><path class="cls-1" d="M23.36,88.84v-.07l-.11.28C23.25,89.22,23.38,88.73,23.36,88.84Z" transform="translate(-0.29 -1.07)"/><path class="cls-1" d="M23.37,88.87c0,.07,0-.06.06-.11S23.4,88.72,23.37,88.87Z" transform="translate(-0.29 -1.07)"/><path class="cls-1" d="M24.73,89.54h0Z" transform="translate(-0.29 -1.07)"/><path class="cls-1" d="M25.38,89.54l.09-.07c-.21.06-.12-.15-.25-.16l0,0c-.14-.2-.43-.22-.66-.27l0,0s-.08.08-.09.06l0,0c.06-.18-.18,0-.12-.12a.33.33,0,0,0-.09.12.86.86,0,0,0-.55,0,.53.53,0,0,1,0-.13c-.24.23-.32.07-.45,0a1.12,1.12,0,0,1,0,.16c0,.1.13-.17.13,0l0,.07c0,.05.06-.18.06-.08a.59.59,0,0,1,0,.1c.07,0,.1.08.22-.08,0,.16.06,0,0,.18,0-.05,0,0,.1-.13.16.16.42.14.6.29.29-.19.15.2.31.2l0,0c.08,0,.15,0,.16.05l.13-.06c0,.41.34.54.39.87,0,.17,0,.35.07.49s.06.05.31.25l-.07,0c.09.09,0,.07,0,.17l0,0a.4.4,0,0,1,.14.36c-.06,0-.15,0-.13.11a2.3,2.3,0,0,0-.82-.17l0-.06c-.28.05-.41-.34-.68-.32-.2-.21-.62.18-.81-.08s-.46.23-.51-.13c-.15-.55-.53-.35-.92-.17-.22-.25-.63.09-.79-.33-.19.17-.18-.35-.34-.33l0,.08c0-.24-.21.28-.14-.06h0c0-.18-.19.38-.14.17l0,.08s0-.1,0-.14-.05.15-.06.1c.1-.35-.1,0,0-.34,0,0,0-.16.08-.23s-.06,0-.11.12a1.94,1.94,0,0,0-.14.46l0-.12,0,.16s0,.22,0,.3h0c.07-.15.07,0,.08,0l0,.07c0,.15.14-.27,0,0a.5.5,0,0,1,.3,0c0-.09.07,0,.11-.16,0,.22,0,.3,0,.3s0,0,0,0c0,.29.14-.23.09.12.08-.23.07.1.18-.17a.91.91,0,0,1,0,.14c.09,0,.16.15.23.18.13-.19.12.14.27-.13,0,.08.06.22.16.12l0,0a.25.25,0,0,0,.28-.15.52.52,0,0,0,0,.33c.09-.11.17,0,.28-.14,0,.13.08,0,0,.15.32-.29.53-.09.66.25h0c.06-.09.16-.31.23-.43s0,0,0,0,0,.17.08.15l0,.06c.06-.07,0,.17.12,0v0l0-.06c0,.06,0,.15-.06.13.32.17.77,0,1.11.12l0,.05.1-.08,0,.06c.05.13.2,0,.27,0a.43.43,0,0,0,0,.12c.11-.15,0,.25.17-.09a.56.56,0,0,1,0,.12,1.25,1.25,0,0,1,.8.19c0-.33.41.06.39-.19l.06.08c0-.07.06,0,0-.1a.34.34,0,0,1,0-.16.49.49,0,0,0,0-.31c0-.09-.07-.19-.09-.28l.08,0c-.18-.13-.11-.18-.07-.27s.07-.21-.12-.26l.11,0c-.17,0,0-.12-.25,0l.07-.06c-.4,0,.1-.25-.19-.27l.07,0c-.06,0-.12,0-.07-.08h0c.2-.23-.14-.19-.18-.29l.12-.06c-.16,0-.09-.13-.2-.15l.05,0-.09,0,.1-.07C25.59,89.61,25.45,89.6,25.38,89.54Z" transform="translate(-0.29 -1.07)"/><path class="cls-1" d="M24.59,89h0S24.59,89,24.59,89Z" transform="translate(-0.29 -1.07)"/><path class="cls-1" d="M20.39,90.76v0S20.39,90.76,20.39,90.76Z" transform="translate(-0.29 -1.07)"/><polygon class="cls-1" points="25.54 54.2 25.57 54.17 25.46 54.15 25.54 54.2"/><path class="cls-1" d="M25.56,55.05l-.07,0,.32.1C26,55.09,25.45,55.11,25.56,55.05Z" transform="translate(-0.29 -1.07)"/><path class="cls-1" d="M25.58,55c.06-.07-.08-.07-.13-.07C25.56,54.94,25.43,55,25.58,55Z" transform="translate(-0.29 -1.07)"/><path class="cls-1" d="M24.5,50.21h0S24.51,50.21,24.5,50.21Z" transform="translate(-0.29 -1.07)"/><path class="cls-1" d="M23.7,49.12l-.11,0c.26.17.14.48.29.7h0a13.29,13.29,0,0,0,.69,1.73h-.06s.12,0,.12.07a.07.07,0,0,1-.07,0c-.15.17.21.35.09.47a.14.14,0,0,0,.16,0,9.35,9.35,0,0,0,.53,1.46.18.18,0,0,1-.13,0,1.74,1.74,0,0,1,.34,1.29c.08,0,.07-.06.16,0,.07-.16-.23-.23-.11-.38h.08c0-.1-.19,0-.11-.1s.1,0,.1,0c-.06-.19,0-.41-.24-.57.16-.08,0-.21.11-.31-.07,0-.07-.09-.18-.09a13.12,13.12,0,0,0-.51-2.07c-.39-.25-.11-.73-.33-1.09h0a.66.66,0,0,1-.2-.44l-.16-.09a11.32,11.32,0,0,0-.69-2.75,5.49,5.49,0,0,0-1.26-2.79s0,0,.06,0c-.18-.25-.2-.55-.38-.78h0c-.55-.52-.62-1.34-1.2-1.8a14.26,14.26,0,0,0-1.4-2.22l.05,0c-.49-.51-.58-1.26-1.07-1.78-.3-.67-1.15-1-1.45-1.66,0-.55-.92-.58-.95-1.1-.18-1-1-1.39-1.8-1.81-.42-.68-1.31-1-1.53-1.8-.41-.15-.24-.78-.49-1.07l-.06.05c.14-.24-.45-.12-.18-.37h0c.13-.14-.46,0-.29-.11l-.09,0c-.06-.08.09-.05.09-.13s-.15.05-.13,0c.33-.15-.16-.19.22-.34,0,0,.12-.12.24-.05s0-.17-.2-.1-.35,0-.45.17l.13,0a.73.73,0,0,1-.14.09c0,.13-.15.21-.19.33h0c.17,0,.12.12.12.18l-.06,0c-.13.1.34,0,.08.09.18.22.32.49.49.74.11,0,.12.19.24,0a.38.38,0,0,0,0,.46s0,0,0,0c-.13.3.32,0,.14.32.21-.14.11.26.39.14a.33.33,0,0,1-.1.11c.17.21.3.48.44.66.29,0,.24.4.57.31,0,.14.1.38.32.43h0a.8.8,0,0,0,.58.28c-.17.24-.07.27-.07.4.19,0,.35.24.58.31-.08.11.16.09,0,.23a1.94,1.94,0,0,1,1.22,1.48h0c.13,0,.37-.08.53-.1,0,0,0,0,0,0s0,.27.11.34l-.06,0c.13,0,0,.27.21.28l0,0,.11,0c-.05,0-.13.09-.14,0,.55.8,1.41,1.43,1.92,2.3h-.07l.2.1-.06,0c0,.27.35.38.45.6,0,0-.1,0-.11.06.24.06,0,.36.31.25a.21.21,0,0,1-.11.06,3.77,3.77,0,0,1,.82,1.27c.49.21.47.75.89,1l-.06,0c.45.4.53,1,.81,1.56a4.74,4.74,0,0,0,.32.57l-.07,0c.46.25.09.9.57,1.16h-.11c.18,0,0,.26.31.13l-.05.1c.47.13,0,.56.39.8h-.07c.08.07.16.16.13.25s0,0-.06,0c-.16.38.25.58.34.88h-.13c.19.09.14.41.27.57h-.06l.11.07-.12,0C23.43,48.68,23.61,48.88,23.7,49.12Z" transform="translate(-0.29 -1.07)"/><path class="cls-1" d="M24.52,51.62h0S24.51,51.62,24.52,51.62Z" transform="translate(-0.29 -1.07)"/><path class="cls-1" d="M11.06,29.66v0S11.06,29.65,11.06,29.66Z" transform="translate(-0.29 -1.07)"/><polygon class="cls-1" points="4.61 62.06 4.65 62.04 4.55 62 4.61 62.06"/><path class="cls-1" d="M4.67,62.87H4.61L4.9,63C5.07,63,4.56,62.91,4.67,62.87Z" transform="translate(-0.29 -1.07)"/><path class="cls-1" d="M4.71,62.82c.07-.06-.07-.08-.11-.1C4.7,62.75,4.56,62.83,4.71,62.82Z" transform="translate(-0.29 -1.07)"/><path class="cls-1" d="M4.91,57.68v0S4.91,57.69,4.91,57.68Z" transform="translate(-0.29 -1.07)"/><path class="cls-1" d="M4.55,56.3l-.11,0c.18.27,0,.53,0,.81l0,0a8.81,8.81,0,0,0,.08,2l-.06,0s.11.07.09.11a.07.07,0,0,1-.06,0c-.19.13.09.42-.06.5a.13.13,0,0,0,.15,0,8.14,8.14,0,0,0,.15,1.62.17.17,0,0,1-.14,0,2,2,0,0,1,.08,1.4c.08,0,.08,0,.16,0,.1-.15-.18-.28,0-.41l.07,0c.05-.1-.19,0-.09-.13s.1,0,.1,0c0-.21.05-.43-.12-.63.17,0,0-.22.18-.3-.06-.06,0-.11-.15-.14.11-.73,0-1.48.06-2.23-.3-.37.11-.77,0-1.19h0a.72.72,0,0,1,0-.5L4.75,57a23,23,0,0,0,.5-2.94,7.57,7.57,0,0,0,.32-3.2s0,0,.06,0c0-.32.14-.59.13-.9h0c-.14-.77.29-1.52.15-2.27.18-.85.36-1.82.47-2.74l.06,0c0-.75.52-1.37.59-2.11.33-.7,0-1.6.42-2.29.42-.37-.05-1.15.38-1.49a3.43,3.43,0,0,0,.68-2.63c.41-.75.27-1.69.87-2.35-.09-.44.53-.68.62-1.1H9.93c.27-.06-.19-.44.17-.41v0c.2,0-.33-.32-.11-.3l-.08,0c0-.1.1,0,.16,0s-.15-.07-.08-.11c.34.11,0-.26.39-.12,0,.05.18,0,.21.12.05,0,.09-.18-.08-.23s-.29-.19-.46-.15l.12.07a.68.68,0,0,1-.17,0c-.06.12-.25.07-.36.13h0c.13.12,0,.17,0,.21H9.57c-.16,0,.23.25,0,.12a4,4,0,0,1-.24.85c.08.07-.09.21.12.22a.4.4,0,0,0-.38.27s0,0,0,0c-.32.06.19.27-.19.3.23.1-.16.23.08.41a.32.32,0,0,1-.15,0c-.09.26-.28.51-.36.73.14.25-.25.42,0,.68-.1.11-.29.29-.24.51l0,0a.88.88,0,0,0,0,.68c-.29,0-.27.08-.39.15.08.18,0,.45,0,.7-.14,0,0,.19-.19.15a2.41,2.41,0,0,1-.62,2H7c.08.11.28.27.39.39s0,0,0,0-.21.19-.21.32a.08.08,0,0,1-.05,0c.05.13-.21.19-.1.36H6.89l0,.1c-.06,0-.15,0-.12-.09-.32,1-.27,2.14-.55,3.19l0-.05.06.23a.1.1,0,0,1-.06,0c-.17.24-.06.55-.13.79,0,0-.08-.06-.12,0,.13.23-.28.26,0,.43a.2.2,0,0,1-.12,0,5.29,5.29,0,0,1-.27,1.61c.24.5-.15.94,0,1.45H5.56a6.62,6.62,0,0,1-.28,1.85,4.39,4.39,0,0,0-.05.7H5.15c.24.48-.41.87-.14,1.38l-.1,0c.16.09-.1.27.2.28L5,52.6c.35.36-.25.54,0,.95l-.07,0c0,.11.07.23,0,.3s0,0,0,0c-.31.28-.06.67-.1,1l-.12-.05c.13.18,0,.46,0,.68l-.06,0,.07.12H4.52C4.48,55.76,4.56,56,4.55,56.3Z" transform="translate(-0.29 -1.07)"/><path class="cls-1" d="M4.47,59.1h0S4.47,59.09,4.47,59.1Z" transform="translate(-0.29 -1.07)"/><path class="cls-1" d="M9.63,32l0,0S9.64,32,9.63,32Z" transform="translate(-0.29 -1.07)"/><path class="cls-1" d="M6.86,11.22A10.65,10.65,0,0,1,7,14.39c0,.27,1,.32,1,0a10.65,10.65,0,0,0-.18-3.17c-.07-.31-1-.25-1,0Z" transform="translate(-0.29 -1.07)"/><path class="cls-1" d="M16.23,11.18a9.46,9.46,0,0,1-.09,3.19c-.06.29.92.51,1,.24a9.79,9.79,0,0,0,.08-3.3c0-.27-1-.44-1-.13Z" transform="translate(-0.29 -1.07)"/><path class="cls-1" d="M10.74,19.33a19.36,19.36,0,0,0,4-.19c.24,0,0-.26-.08-.32a.92.92,0,0,0-.67-.16,17.57,17.57,0,0,1-3.64.18c-.64,0,0,.48.36.49Z" transform="translate(-0.29 -1.07)"/><path class="cls-1" d="M3.09,13.11A44.87,44.87,0,0,1,7.8,5l-1,0c-.65,1-.63,2,.7,2C9.36,7.1,11,4.23,11.73,3l-1,0c-.3,1.26-.58,2.11.92,2,1.65-.15,2.87-1.91,3.73-3.12.14-.2-.79-.29-1,0a8,8,0,0,1-1.62,2c-1.31.82-1.32.26-1.05-.86.06-.25-.87-.17-1,0A16,16,0,0,1,9.13,5.25a4.83,4.83,0,0,1-1,1Q7,5.7,7.8,5c.14-.22-.8-.27-1,0a44.87,44.87,0,0,0-4.71,8.08c-.12.26.85.3,1,0Z" transform="translate(-0.29 -1.07)"/><path class="cls-1" d="M20.21,20.31A9.6,9.6,0,0,0,23,17.23c.47-1,.69-2.27,1.08-3.3.88-2.29-1.22-4.53-2.09-6.55s-1.71-4.1-3.71-5.24-5-1.19-7.36-.92C7.84,1.58,6,3.33,4.05,5.64S0,11.32.31,14.31c.09,1,.59.8.87,1.49s-.11,1.41.08,2.19a3.1,3.1,0,0,0,3.07,2.15c.64.05-.08-.45-.38-.48C1,19.42,2.67,17.3,2.32,16c-.21-.83-1-1.25-.94-2.31.13-3.73,3-7.49,5.62-9.91a8.28,8.28,0,0,1,5.67-2.14c3.46-.14,6.13.83,7.65,4,.65,1.33,1.13,2.73,1.82,4s2.26,3.41.24,4.61a.09.09,0,0,0,0,.1c.4,2.49-1.28,4.13-3,5.6-.21.17.66.58.89.39Z" transform="translate(-0.29 -1.07)"/><path class="cls-1" d="M10.13,26.68A72.64,72.64,0,0,0,2.79,45.6c-.49,2.19-1,5.46,1.08,7a2.8,2.8,0,0,0,3,.36c.31-.13-.59-.41-.83-.31-3.2,1.36-2.56-5.33-2.31-6.55a57.66,57.66,0,0,1,1.81-6.48A75.62,75.62,0,0,1,11.08,26.9c.15-.27-.81-.46-.94-.22Z" transform="translate(-0.29 -1.07)"/><path class="cls-1" d="M5.68,53a211,211,0,0,1,.19,27.66c0,.28.56.43.77.4l12.19-1.89c.57-.09,1.31,0,1.5-.61.27-.91-1-3.89-1.29-4.86a135,135,0,0,1-3.76-24.29c0-.27-1-.51-1-.2a135.19,135.19,0,0,0,3,21.07q.57,2.54,1.24,5.06c.15.55,1,2.35.76,2.74-.36.67-1.88.73-2.49.82L6.05,80.57l.77.4a211.82,211.82,0,0,0-.19-27.78c0-.27-1-.51-1-.2Z" transform="translate(-0.29 -1.07)"/><path class="cls-1" d="M11.56,27.11a26.1,26.1,0,0,0,4.59,4.7,64.94,64.94,0,0,1,6.06,6.45c1.4,1.71,4.21,4.44,4.5,6.68.15,1.17-.07,1.25-1,2-.61.52-1.3,1-1.94,1.45l-3.89,2.91.92.27a19.65,19.65,0,0,0-4.05-5.39c-.12-.12-.77-.37-.86-.11L14.59,50c-.09.26.86.56,1,.29l1.34-3.89L16,46.27a18.6,18.6,0,0,1,3.86,5.15.8.8,0,0,0,.92.27l4.28-3.2c.77-.57,2.51-1.4,2.82-2.45.53-1.76-2.29-4.51-3.22-5.73a65.27,65.27,0,0,0-5.87-6.75c-2.1-2.11-4.75-3.9-6.37-6.41-.14-.22-1.09-.37-.89-.05Z" transform="translate(-0.29 -1.07)"/></g></g></svg>