<svg xmlns="http://www.w3.org/2000/svg" xmlns:xlink="http://www.w3.org/1999/xlink" viewBox="0 0 79.76 83.45"><defs><style>.cls-1{fill:url(#linear-gradient);}.cls-2{fill:url(#linear-gradient-2);}.cls-3{fill:#332c2d;}.cls-4{fill:none;stroke:#332c2d;stroke-miterlimit:10;}.cls-5{fill:url(#linear-gradient-3);}</style><linearGradient id="linear-gradient" x1="1041.96" y1="42.85" x2="1022.13" y2="56.61" gradientTransform="matrix(-1, 0, 0, 1, 1111.08, 0)" gradientUnits="userSpaceOnUse"><stop offset="0" stop-color="#fff"/><stop offset="1"/></linearGradient><linearGradient id="linear-gradient-2" x1="69.83" y1="20.72" x2="-46.93" y2="101.73" gradientTransform="matrix(1, 0, 0, 1, 0, 0)" xlink:href="#linear-gradient"/><linearGradient id="linear-gradient-3" x1="12.18" y1="41.17" x2="-10.06" y2="56.6" gradientTransform="translate(5.06 -0.41) rotate(6.69)" xlink:href="#linear-gradient"/></defs><title>ghosty</title><g id="Layer_2" data-name="Layer 2"><g id="Layer_1-2" data-name="Layer 1"><path class="cls-1" d="M71,39.45s10.88,6.71,8.45,9.91a21.6,21.6,0,0,1-7.18-.53c-3.7-1-2.55-1.17-2.55-1.17Z"/><path class="cls-2" d="M26.22.13c-4.31,5-34.45,48.71,1.39,83.12a.72.72,0,0,0,1.22-.52L26.35,71.62s9,5,27,.33l2,8.52a.72.72,0,0,0,1.13.36c4.76-3.71,28.28-24.94,3.76-78.31a.38.38,0,0,0-.65-.08l-7.28,9S38.85,7.7,30,11.07L26.87.28A.38.38,0,0,0,26.22.13Z"/><ellipse class="cls-3" cx="22.65" cy="27.61" rx="2.56" ry="2.67"/><ellipse class="cls-3" cx="54.59" cy="27.9" rx="2.56" ry="2.67"/><path class="cls-4" d="M34.23,38s4.36,6,7.75-.23"/><path class="cls-5" d="M10.67,37.7S-1.92,44.15.25,48.18A21.5,21.5,0,0,0,8,48.47c4.1-.65,2.89-1,2.89-1Z"/></g></g></svg>